<ttFont>
          <CharString index="0">
            311 336 rmoveto
            71 26 -10 -47 12 -44 callgsubr
            171 vlineto
            -20 11 -8 -11 rlineto
            -35 -25 -23 -11 -31 hhcurveto
            -127 192 hlineto
            -96 callgsubr
            -306 -59 callsubr
            -391 30 callgsubr
            421 hlineto
            21 13 -4 -10 8 hvcurveto
            8 -11 20 11 rlineto
            171 vlineto
            -34 12 -6 -23 rlineto
            -71 -19 -19 -18 -71 hhcurveto
            -108 -50 callgsubr
            203 vlineto
            return
          </CharString>
          <CharString index="1">
            401 92 rmoveto
            -75 22 -31 55 34 42 24 39 35 vhcurveto
            -19 26 rlineto
            -12 -17 -18 -6 -15 hhcurveto
            -19 -11 10 21 hvcurveto
            327 vlineto
            17 5 10 8 -54 callgsubr
            -70 20 -62 hhcurveto
            -159 -100 -108 -173 -162 85 -81 94 62 57 25 81 58 hvcurveto
            -251 156 rmoveto
            131 56 76 97 33 34 -10 -21 31 vhcurveto
            -270 vlineto
            -63 -37 -49 -28 -51 hhcurveto
            -59 -55 49 136 hvcurveto
            return
          </CharString>
          <CharString index="2">
            81 12 42 33 44 vhcurveto
            13 18 -102 callgsubr
            return
          </CharString>
          <CharString index="3">
            rmoveto
            -107 callgsubr
            return
          </CharString>
          <CharString index="4">
            473 8 callsubr
            -40 -50 -18 -56 hhcurveto
            -97 -51 73 117 141 51 77 85 63 32 -47 -49 -57 -42 -57 -85 hvcurveto
            -41 -13 13 -10 hhcurveto
            -8 -7 -11 -11 -35 82 -12 28 125 66 87 82 75 -55 72 -115 -157 -102 -107 -161 -154 90 -102 140 79 69 31 58 50 hvcurveto
            return
          </CharString>
          <CharString index="5">
            589 355 rmoveto
            -172 -83 -138 -144 -145 -74 135 170 177 82 148 146 170 48 -195 -125 vhcurveto
            -554 3 rmoveto
            -206 107 -166 224 223 109 166 206 206 -109 168 -223 -224 -107 -168 -206 vhcurveto
            return
          </CharString>
          <CharString index="6">
            rmoveto
            29 -35 113 56 rlineto
            41 20 15 23 29 vvcurveto
            29 -17 22 -25 12 vhcurveto
            return
          </CharString>
          <CharString index="7">
            515 510 rmoveto
            -122 -13 -12 -15 12 -16 rlineto
            30 -51 9 -46 -98 vvcurveto
            -136 -53 -82 -89 -63 -33 42 80 vhcurveto
            303 -51 callsubr
            13 7 -6 -16 hvcurveto
            -250 vlineto
            -105 57 -61 96 74 65 37 59 30 vhcurveto
            -66 24 -30 53 35 44 25 38 31 vhcurveto
            -19 26 rlineto
            -11 -16 -18 7 callsubr
            -19 -10 10 21 hvcurveto
            return
          </CharString>
          <CharString index="8">
            36 callsubr
            6 -23 34 12 rlineto
            178 vlineto
            -16 13 -18 -13 rlineto
            -15 -20 -36 -6 -58 hhcurveto
            return
          </CharString>
          <CharString index="9">
            428 245 rmoveto
            -123 -59 -82 -83 -84 -53 81 126 125 58 86 85 106 30 -132 -81 vhcurveto
            -383 3 rmoveto
            -160 94 -102 150 149 95 102 160 161 -95 101 -149 -150 -94 -101 -161 vhcurveto
            return
          </CharString>
          <CharString index="10">
            rmoveto
            -26 -15 -54 -67 -44 -76 33 -28 rcurveline
            104 83 105 -83 32 28 -44 78 -57 67 -22 13 rlinecurve
            endchar
          </CharString>
          <CharString index="11">
            -73 -33 -32 -37 -31 -24 24 42 vhcurveto
            47 28 16 9 vvcurveto
            8 -6 3 -13 -57 -41 -39 -51 -64 54 -38 70 return
          </CharString>
          <CharString index="12">
            rmoveto
            -107 43 -120 128 119 69 109 130 119 -59 94 -114 -116 -70 -101 -124 vhcurveto
            84 -1 rmoveto
            98 30 81 65 64 31 -81 -98 -99 -31 -80 -64 -65 -30 80 99 vhcurveto
            return
          </CharString>
          <CharString index="13">
            81 12 42 33 44 vhcurveto
            return
          </CharString>
          <CharString index="14">
            -86 callgsubr
            -6 return
          </CharString>
          <CharString index="15">
            -73 callsubr
            -13 -15 -46 -30 callgsubr
            return
          </CharString>
          <CharString index="16">
            -44 vhcurveto
            -13 -18 13 -16 rlineto
            219 hlineto
            12 34 -23 6 rlineto
            -50 return
          </CharString>
          <CharString index="17">
            -65 callgsubr
            -13 13 7 callgsubr
            return
          </CharString>
          <CharString index="18">
            287 -46 callsubr
            hstemhm
            109 72 -59 76 497 87 -70 85 hintmask 11011000
            787 468 rmoveto
            -1 15 -4 63 12 vvcurveto
            56 11 34 25 36 vhcurveto
            12 18 -15 16 rlineto
            -144 hlineto
            -212 -503 -206 503 rlineto
            -182 hlineto
            -11 -34 23 -6 rlineto
            44 -11 14 -15 -46 vvcurveto
            -16 -4 -53 -1 -8 vhcurveto
            hintmask 11100100
            -27 -396 -4 -62 -16 -16 -51 -15 rlinecurve
            -23 -6 11 -34 rlineto
            188 hlineto
            15 16 -12 18 rlineto
            -25 36 -11 34 56 vvcurveto
            12 3 51 3 35 vhcurveto
            22 308 209 -494 rlineto
            54 hlineto
            209 494 29 -417 rlineto
            1 -11 1 -17 -9 vvcurveto
            -41 -14 -18 -43 29 callsubr
            -45 45 -18 52 -6 81 rlinecurve
            endchar
          </CharString>
          <CharString index="19">
            rmoveto
            18 11 -7 12 -12 15 -18 4 rlinecurve
            -175 -80 10 -21 20 -24 26 -6 rlinecurve
            59 38 rlineto
            -262 vlineto
            -32 -6 -7 -24 -6 vhcurveto
            -34 -9 11 -31 rlineto
            155 hlineto
            13 17 -11 13 rlineto
            -20 24 -5 25 47 vvcurveto
            endchar
          </CharString>
          <CharString index="20">
            -23 -6 12 -34 rlineto
            return
          </CharString>
          <CharString index="21">
            95 rmoveto
            16 13 4 21 17 vvcurveto
            -55 150 hlineto
            -82 -9 -12 -14 rlineto
            12 -19 2 -11 -23 vvcurveto
            -74 -126 vlineto
            124 275 -17 15 rlineto
            -51 hlineto
            -142 -341 rlineto
            212 -10 hlineto
            -32 -6 -7 -24 -6 vhcurveto
            -34 -9 12 -31 rlineto
            155 hlineto
            12 17 -11 13 -15 17 -5 19 -3 29 rlinecurve
            return
          </CharString>
          <CharString index="22">
            rmoveto
            106 68 32 61 44 -37 27 -41 -13 -8 -5 -8 hvcurveto
            -10 16 -10 -36 vvcurveto
            -29 -25 -23 -66 -69 -20 25 30 vhcurveto
            34 16 9 10 vvcurveto
            8 -9 5 -12 -41 -38 -27 -44 -61 68 -32 105 vhcurveto
            endchar
          </CharString>
          <CharString index="23">
            106 75 50 77 52 hvcurveto
            2 3 1 3 2 vvcurveto
            13 -20 15 -12 -3 -2 -1 -3 -2 vhcurveto
            -55 -38 -62 -35 -88 hhcurveto
            -134 -82 137 166 150 53 168 157 -83 callgsubr
            return
          </CharString>
          <CharString index="24">
            -94 callsubr
            13 18 -56 callgsubr
            return
          </CharString>
          <CharString index="25">
            -71 callgsubr
            -142 hlineto
            -41 -9 14 55 hvcurveto
            391 vlineto
            -83 callsubr
            -215 -78 callsubr
            -49 callgsubr
            -16 -14 -52 vhcurveto
            -124 -37 callgsubr
            return
          </CharString>
          <CharString index="26">
            723 hmoveto
            -53 callgsubr
            rlineto
            50 -15 14 -16 -62 vvcurveto
            -190 -327 122 -104 callgsubr
            245 hlineto
            11 32 -21 6 rlineto
            -48 14 -13 15 59 vvcurveto
            208 327 -201 vlineto
            -62 -14 -16 -50 -15 1 callgsubr
            endchar
          </CharString>
          <CharString index="27">
            635 702 rmoveto
            -40 callgsubr
            29 -8 21 -20 -36 vvcurveto
            -26 -2 -22 -22 -48 vhcurveto
            -109 -240 -147 293 rlineto
            -16 31 -9 18 18 vvcurveto
            21 12 12 27 7 vhcurveto
            23 6 -12 34 rlineto
            -225 hlineto
            -13 -16 43 -33 26 -31 31 -62 rlinecurve
            207 -415 rlineto
            -87 -35 -46 -25 -39 hhcurveto
            -25 -17 18 28 hvcurveto
            38 21 23 10 vvcurveto
            7 -6 4 -15 -55 -37 -40 -54 -64 45 -33 70 70 70 29 154 69 vhcurveto
            188 415 16 36 13 33 26 31 rlinecurve
            return
          </CharString>
          <CharString index="28">
            -62 -14 56 634 56 hstemhm
            45 111 -95 95 250 98 -83 83 -83 101 hintmask 11100010
            292 42 rmoveto
            -86 -58 49 70 hvcurveto
            56 32 26 9 vvcurveto
            6 -6 6 -15 -65 -49 -48 -69 -95 102 -66 145 151 79 79 116 vhcurveto
            248 -366 -43 175 vvcurveto
            59 40 56 83 vhcurveto
            hintmask 11011000
            -83 callgsubr
            -148 -70 -96 -98 vhcurveto
            hintmask 11100100
            -244 360 56 -195 vvcurveto
            -72 -54 -41 -75 vhcurveto
            endchar
          </CharString>
          <CharString index="29">
            -93 callsubr
            rlineto
            50 -15 14 -16 -62 vvcurveto
            return
          </CharString>
          <CharString index="30">
            20 17 6 27 24 vvcurveto
            -213 hlineto
            107 87 94 91 81 vvcurveto
            76 -60 41 -94 -75 -72 -36 -74 -41 32 -28 42 14 8 4 7 vhcurveto
            12 -17 20 22 vvcurveto
            44 33 23 34 33 33 -22 -47 -71 -34 -62 -193 -157 vhcurveto
            19 -38 rlineto
            return
          </CharString>
          <CharString index="31">
            13 vvcurveto
            25 14 11 31 8 vhcurveto
            23 6 -12 34 rlineto
            -225 hlineto
            -13 -16 43 -33 return
          </CharString>
          <CharString index="32">
            -13 -16 13 -18 rlineto
            33 -44 12 -42 -81 vvcurveto
            return
          </CharString>
          <CharString index="33">
            541 549 rmoveto
            34 12 rlineto
            178 vlineto
            -16 13 -18 -13 rlineto
            -15 -20 -36 -6 -58 hhcurveto
            -259 -71 callsubr
            45 hlineto
            28 6 -14 -62 hvcurveto
            -384 vlineto
            -81 -12 -42 -33 -91 callsubr
            15 -14 16 62 vvcurveto
            452 vlineto
            62 6 14 28 vhcurveto
            45 36 callsubr
            endchar
          </CharString>
          <CharString index="34">
            -90 callsubr
            -253 vlineto
            -57 return
          </CharString>
          <CharString index="35">
            -70 callsubr
            391 vlineto
            81 12 42 33 44 vhcurveto
            return
          </CharString>
          <CharString index="36">
            hlineto
            -58 -36 6 15 -20 -47 callgsubr
            6 23 rlineto
            71 19 19 18 71 hhcurveto
            return
          </CharString>
          <CharString index="37">
            -55 callgsubr
            rlineto
            -48 14 -13 15 59 vvcurveto
            return
          </CharString>
          <CharString index="38">
            -75 callsubr
            -316 vlineto
            -81 -12 -42 -33 -91 callsubr
            15 -14 16 62 vvcurveto
            452 vlineto
            -32 callgsubr
            return
          </CharString>
          <CharString index="39">
            -30 callsubr
            234 -20 hstem
            108 90 vstem
            92 -60 callgsubr
            107 -180 -45 callgsubr
          </CharString>
          <CharString index="40">
            517 rmoveto
            -83 callsubr
            return
          </CharString>
          <CharString index="41">
            -101 callgsubr
            -281 vlineto
            -76 callgsubr
            return
          </CharString>
          <CharString index="42">
            rmoveto
            -5 24 -18 12 rlineto
            -15 11 -8 11 15 vvcurveto
            11 4 14 8 16 vhcurveto
            46 90 -29 19 -39 -42 rlineto
            -47 -50 -35 -42 -41 vvcurveto
            -49 29 -18 36 18 20 5 7 18 vhcurveto
            return
          </CharString>
          <CharString index="43">
            419 438 rmoveto
            27 16 rlineto
            18 -6 13 -14 12 vhcurveto
            -249 hlineto
            -61 -29 5 19 -29 hvcurveto
            -12 -12 rlineto
            -154 vlineto
            31 -11 12 53 rlineto
            34 8 17 8 50 hhcurveto
            150 hlineto
            -281 -408 11 -31 rlineto
            256 hlineto
            61 29 -5 -19 29 hvcurveto
            12 12 rlineto
            154 vlineto
            -31 11 -12 -53 rlineto
            -34 -8 -17 -8 -50 hhcurveto
            -157 hlineto
            return
          </CharString>
          <CharString index="44">
            30 -39 30 -5 26 -2 rrcurveto
            80 130 31 51 26 vvcurveto
            24 -27 47 -84 136 vhcurveto
            -26 -2 -30 -6 -30 -38 21 -38 63 -67 53 -56 -53 -56 -63 -68 -21 -37 rrcurveto
            return
          </CharString>
          <CharString index="45">
            -253 rmoveto
            -21 -20 15 24 hvcurveto
            30 14 5 9 vvcurveto
            6 -7 4 -10 -35 -29 -22 -36 -51 54 -26 55 78 58 53 63 77 -54 36 -59 -13 -12 -1 -3 -13 vhcurveto
            return
          </CharString>
          <CharString index="46">
            97 572 rmoveto
            71 19 19 18 71 hhcurveto
            211 hlineto
            -397 -661 rlineto
            460 hlineto
            21 13 -4 -10 8 hvcurveto
            8 -11 20 11 rlineto
            171 vlineto
            -34 12 -6 -23 rlineto
            -71 -19 -19 -18 -71 hhcurveto
            -226 hlineto
            395 661 rlineto
            -365 hlineto
            -58 -36 6 15 -20 -47 callgsubr
            rlineto
            return
          </CharString>
          <CharString index="47">
            hlineto
            -11 -31 21 -6 return
          </CharString>
          <CharString index="48">
            hlineto
            -75 callsubr
            return
          </CharString>
          <CharString index="49">
            -63 -8 -32 -24 -34 vhcurveto
            -12 -16 12 -15 rlineto
            174 hlineto
            11 31 -21 5 rlineto
            -34 8 -8 17 50 vvcurveto
            return
          </CharString>
          <CharString index="50">
            -22 -17 -10 -20 -12 hvcurveto
            -43 14 -99 17 -71 vhcurveto
            -12 3 5 -7 12 hhcurveto
            12 5 7 12 3 hvcurveto
            20 84 11 93 36 vvcurveto
            20 -12 -18 10 -21 hhcurveto
            return
          </CharString>
          <CharString index="51">
            -24 -4 -21 25 57 279 57 268 57 34 -20 return
          </CharString>
          <CharString index="52">
            -56 -24 -17 -9 vvcurveto
            -8 6 -3 13 return
          </CharString>
          <CharString index="53">
            199 750 rmoveto
            -101 callgsubr
            -67 -88 vlineto
            -14 -11 -9 -23 -29 vvcurveto
            111 -433 hlineto
            -42 callgsubr
            return
          </CharString>
          <CharString index="54">
            hvcurveto
            -45 312 rlineto
            20 -3 -11 12 -18 hhcurveto
            -37 -54 -26 -34 -35 hvcurveto
            9 -26 rlineto
            44 hlineto
            13 4 -5 -17 3 hvcurveto
            31 -212 rlineto
            return
          </CharString>
          <CharString index="55">
            30 -8 16 -16 -44 -73 -21 -19 -22 vhcurveto
            -33 vlineto
            52 -11 rlineto
            17 -4 4 -9 -20 vvcurveto
            return
          </CharString>
          <CharString index="56">
            -18 callgsubr
            -41 -56 -25 -35 -35 vhcurveto
            9 -26 rlineto
            44 hlineto
            return
          </CharString>
          <CharString index="57">
            18 callgsubr
            -12 14 rlineto
            return
          </CharString>
          <CharString index="58">
            -405 hlineto
            -11 -32 21 -5 rlineto
            36 -9 5 -7 -60 vvcurveto
            -169 -12 -147 -64 -26 -6 25 24 -5 vhcurveto
            21 -5 -3 21 -14 hhcurveto
            -31 -17 -45 -38 -54 35 -36 64 54 97 22 399 32 24 5 33 hvcurveto
            39 hlineto
            48 11 -13 -57 hvcurveto
            return
          </CharString>
          <CharString index="59">
            -20 hstem
            103 90 vstem
            62 492 rmoveto
            -12 -15 12 -17 rlineto
            30 -40 11 -39 -74 vvcurveto
            -132 vlineto
            -75 -11 -28 -30 -41 vhcurveto
            -12 -16 12 -15 rlineto
            200 hlineto
            11 31 -21 6 rlineto
            -46 14 -13 14 57 vvcurveto
            247 vlineto
            57 11 13 48 vhcurveto
            return
          </CharString>
          <CharString index="60">
            rmoveto
            -98 callgsubr
          </CharString>
          <CharString index="61">
            21 -28 callgsubr
            return
          </CharString>
          <CharString index="62">
            12 -37 rlineto
            58 hlineto
            15 7 -6 -18 hvcurveto
            return
          </CharString>
          <CharString index="63">
            -42 callsubr
            -31 rlineto
            return
          </CharString>
          <CharString index="64">
            -34 callsubr
            13 18 -13 16 rlineto
            return
          </CharString>
          <CharString index="65">
            -8 callgsubr
            11 return
          </CharString>
          <CharString index="66">
            0 callsubr
            13 -12 13 55 vvcurveto
            return
          </CharString>
          <CharString index="67">
            -50 callsubr
            -201 -60 callsubr
            return
          </CharString>
          <CharString index="68">
            56 -16 callsubr
            363 109 vstem
            366 hmoveto
            223 109 159 199 199 -93 175 -299 -102 -113 -24 -20 -56 33 callsubr
            return
          </CharString>
          <CharString index="69">
            hlineto
            13 16 -13 18 rlineto
            -33 44 -12 return
          </CharString>
          <CharString index="70">
            -36 vvcurveto
            88 -352 hlineto
            -60 31 -36 55 43 52 30 45 35 vhcurveto
            -19 26 rlineto
            -21 -25 -24 -11 -19 hhcurveto
            -27 -11 16 41 hvcurveto
            322 107 -36 callsubr
            -130 return
          </CharString>
          <CharString index="71">
            vlineto
            14 11 9 23 29 vvcurveto
            return
          </CharString>
          <CharString index="72">
            -55 -27 -17 -37 -10 1 callgsubr
            174 630 rmoveto
            18 10 28 88 184 81 -155 -161 -200 -81 -109 -174 -55 -53 20 104 vhcurveto
            return
          </CharString>
          <CharString index="73">
            -80 callgsubr
            391 vlineto
            -94 callsubr
            return
          </CharString>
          <CharString index="74">
            -14 66 142 56 210 50 return
          </CharString>
          <CharString index="75">
            -20 -20 callsubr
            return
          </CharString>
          <CharString index="76">
            35 108 446 109 return
          </CharString>
          <CharString index="77">
            -322 -14 68 456 -20 return
          </CharString>
          <CharString index="78">
            -85 -57 -64 -83 hhcurveto
            -36 -35 11 21 -30 hvcurveto
            -76 vlineto
            -22 27 35 -10 35 hhcurveto
            return
          </CharString>
          <CharString index="79">
            127 99 return
          </CharString>
          <CharString index="80">
            18 7 28 60 106 56 -62 -81 -86 -51 -60 -92 vhcurveto
            -31 -11 7 -8 hhcurveto
            -10 -4 -8 -10 -8 4 -9 11 -5 hvcurveto
            -7 14 27 -6 24 hhcurveto
            return
          </CharString>
          <CharString index="81">
            -18 -13 -5 -28 -22 vvcurveto
            return
          </CharString>
          <CharString index="82">
            -452 vlineto
            return
          </CharString>
          <CharString index="83">
            -24 -278 52 233 -21 29 67 429 -20 return
          </CharString>
          <CharString index="84">
            rmoveto
            -28 -29 -22 -11 -17 hhcurveto
            return
          </CharString>
          <CharString index="85">
            -51 -108 26 hvcurveto
            5 -21 31 11 rlineto
            208 vlineto
            -49 -41 17 return
          </CharString>
          <CharString index="86">
            -21 -5 -3 -6 -36 vvcurveto
            return
          </CharString>
          <CharString index="87">
            hstemhm
            -28 callsubr
            return
          </CharString>
          <CharString index="88">
            -245 -21 252 54 -54 70 388 66 return
          </CharString>
          <CharString index="89">
            517 rmoveto
            81 13 41 32 45 vhcurveto
            13 18 -56 callgsubr
            -219 -93 callsubr
            rlineto
            50 -13 14 -20 -60 vvcurveto
            return
          </CharString>
          <CharString index="90">
            312 rmoveto
            75 12 38 30 41 -12 callsubr
            45 -13 14 -17 -55 vvcurveto
            return
          </CharString>
          <CharString index="91">
            hstem
            -28 callsubr
            return
          </CharString>
          <CharString index="92">
            vlineto
            -69 -25 -20 -30 vhcurveto
            hintmask 01111110
            -34 -9 16 -10 hhcurveto
            -8 -5 -6 -15 -28 27 -31 61 75 48 49 124 hvcurveto
            return
          </CharString>
          <CharString index="93">
            -112 68 -73 109 109 69 73 112 113 -69 72 -109 -109 -68 -72 -113 vhcurveto
            endchar
          </CharString>
          <CharString index="94">
            41 vhcurveto
            12 16 -12 15 rlineto
            return
          </CharString>
          <CharString index="95">
            -40 callsubr
            rlineto
            return
          </CharString>
          <CharString index="96">
            57 661 38 callgsubr
            return
          </CharString>
          <CharString index="97">
            hstemhm
            -31 callsubr
            return
          </CharString>
          <CharString index="98">
            18 14 5 27 22 vvcurveto
            return
          </CharString>
          <CharString index="99">
            -67 -64 40 72 hvcurveto
            53 24 24 9 vvcurveto
            12 -7 0 -14 -58 -43 -43 -63 -108 114 -54 118 return
          </CharString>
          <CharString index="100">
            -67 -64 38 69 hvcurveto
            53 30 24 9 vvcurveto
            12 -7 0 -14 -61 -46 -43 -63 -108 114 -54 118 return
          </CharString>
          <CharString index="101">
            7 callsubr
            -20 -10 12 22 hvcurveto
            242 vlineto
            125 return
          </CharString>
          <CharString index="102">
            72 21 -21 273 62 383 -20 return
          </CharString>
          <CharString index="103">
            vlineto
            -61 -14 -19 -50 42 callgsubr
            return
          </CharString>
          <CharString index="104">
            45 104 279 105 return
          </CharString>
          <CharString index="105">
            27 49 hvcurveto
            34 10 10 11 vvcurveto
            9 -11 3 -11 -42 -32 -30 -41 -83 92 -43 100 143 return
          </CharString>
          <CharString index="106">
            -56 -14 54 418 52 return
          </CharString>
          <CharString index="107">
            6 callsubr
            -44 return
          </CharString>
          <CharString index="108">
            41 3 callsubr
            return
          </CharString>
          <CharString index="109">
            hlineto
            91 30 -64 -106 28 -44 callgsubr
            223 vlineto
            -54 -55 19 44 hvcurveto
            return
          </CharString>
          <CharString index="110">
            -50 callsubr
            -200 -90 callsubr
            return
          </CharString>
          <CharString index="111">
            -242 58 318 37 268 58 24 -20 return
          </CharString>
          <CharString index="112">
            85 57 65 83 hhcurveto
            36 35 -12 -21 30 hvcurveto
            return
          </CharString>
          <CharString index="113">
            15 callgsubr
            rlineto
            return
          </CharString>
          <CharString index="114">
            -7 -15 hhcurveto
            return
          </CharString>
          <CharString index="115">
            75 rmoveto
            -78 callgsubr
            -39 return
          </CharString>
          <CharString index="116">
            51 52 -30 -59 hvcurveto
            -53 -30 -24 -9 vvcurveto
            -12 7 0 14 60 47 44 62 return
          </CharString>
          <CharString index="117">
            rmoveto
            20 17 6 36 27 vvcurveto
            -269 hlineto
            -19 -17 -7 -36 -27 vvcurveto
            endchar
          </CharString>
          <CharString index="118">
            vlineto
            -57 -12 -18 -47 -11 vhcurveto
            -21 -5 11 return
          </CharString>
          <CharString index="119">
            -19 -15 -7 -31 -24 vvcurveto
            endchar
          </CharString>
          <CharString index="120">
            423 76 -423 hlineto
            return
          </CharString>
          <CharString index="121">
            -76 -77 -62 -87 -34 vhcurveto
            return
          </CharString>
          <CharString index="122">
            31 11 rlineto
            164 vlineto
            -15 12 -16 -12 rlineto
            -14 -19 -33 -5 -53 hhcurveto
            return
          </CharString>
          <CharString index="123">
            -281 -46 callsubr
            return
          </CharString>
          <CharString index="124">
            -19 callgsubr
            hstemhm
            return
          </CharString>
          <CharString index="125">
            19 -2 13 -19 -12 -25 -10 -17 -24 vhcurveto
            19 -26 -32 12 -36 hhcurveto
            return
          </CharString>
          <CharString index="126">
            -14 68 -33 -21 432 78 -10 -20 return
          </CharString>
          <CharString index="127">
            hlineto
            37 callsubr
            -25 callsubr
            return
          </CharString>
          <CharString index="128">
            rlineto
            -189 hlineto
            return
          </CharString>
          <CharString index="129">
            vstem
            24 callsubr
            return
          </CharString>
          <CharString index="130">
            -283 -61 -21 826 -20 hstem
            126 99 vstem
            225 return
          </CharString>
          <CharString index="131">
            297 hmoveto
            -80 callgsubr
            return
          </CharString>
          <CharString index="132">
            68 329 47 hstem
            42 79 133 89 vstem
            329 return
          </CharString>
          <CharString index="133">
            57 -80 -116 -120 -57 -88 return
          </CharString>
          <CharString index="134">
            190 70 83 114 72 -52 65 -90 30 hvcurveto
            return
          </CharString>
          <CharString index="135">
            -4 callsubr
            12 -34 rlineto
            return
          </CharString>
          <CharString index="136">
            -13 1 callgsubr
            219 hlineto
            13 16 return
          </CharString>
          <CharString index="137">
            18 14 6 27 22 vvcurveto
            return
          </CharString>
          <CharString index="138">
            vstem
            435 103 rmoveto
            -34 -42 -44 -16 -51 hhcurveto
            return
          </CharString>
          <CharString index="139">
            hlineto
            63 228 rlineto
            -72 hlineto
            -63 -228 rlineto
            return
          </CharString>
          <CharString index="140">
            hvcurveto
            -45 callsubr
            return
          </CharString>
          <CharString index="141">
            75 11 38 -23 callgsubr
            return
          </CharString>
          <CharString index="142">
            57 34 -20 hstem
            248 99 return
          </CharString>
          <CharString index="143">
            hlineto
            71 19 -18 -71 19 hvcurveto
            return
          </CharString>
          <CharString index="144">
            52 12 -14 -62 hvcurveto
            return
          </CharString>
          <CharString index="145">
            -14 63 669 -20 return
          </CharString>
          <CharString index="146">
            hstemhm
            54 92 -80 80 177 90 -78 91 return
          </CharString>
          <CharString index="147">
            72 34 33 66 71 vvcurveto
            -328 95 rmoveto
            return
          </CharString>
          <CharString index="148">
            vlineto
            -62 -14 -16 -50 -15 vhcurveto
            -23 -6 rlineto
            return
          </CharString>
          <CharString index="149">
            -15 -46 -13 vhcurveto
            return
          </CharString>
        <CharString name=".notdef">
          -342 endchar
        </CharString>
        <CharString name="A">
          -5 callsubr
          hstem
          -106 callgsubr
          endchar
        </CharString>
        <CharString name="AE">
          330 -4 -21 25 57 249 57 298 57 34 -20 hstem
          481 99 vstem
          665 306 rmoveto
          71 26 -10 -47 12 -44 callgsubr
          171 vlineto
          -20 11 -8 -11 rlineto
          -35 -25 -23 -11 -31 hhcurveto
          -127 222 hlineto
          -96 callgsubr
          -307 hlineto
          -348 -624 -21 -37 -28 -9 -29 -8 rlinecurve
          -87 callsubr
          184 hlineto
          19 16 -9 18 rlineto
          -5 11 -8 18 16 vvcurveto
          21 1 17 20 37 vhcurveto
          83 152 rlineto
          198 -180 hlineto
          -59 -13 -15 -48 2 callgsubr
          -32 rlineto
          421 hlineto
          21 13 -4 -10 8 hvcurveto
          8 -11 20 11 rlineto
          171 vlineto
          -34 12 -6 -23 rlineto
          -71 -19 -19 -18 -71 hhcurveto
          -108 -50 callgsubr
          173 vlineto
          -265 57 rmoveto
          166 302 rlineto
          -302 vlineto
          endchar
        </CharString>
        <CharString name="Aacute">
          -5 callsubr
          113 -21 191 -20 hstemhm
          hintmask 11100000
          -106 callgsubr
          hintmask 00011000
          10 490 -101 callsubr
          endchar
        </CharString>
        <CharString name="Acircumflex">
          -5 callsubr
          113 43 callgsubr
          hstemhm
          hintmask 11100000
          -106 callgsubr
          hintmask 00011000
          96 641 -97 callsubr
        </CharString>
        <CharString name="Adieresis">
          -5 callsubr
          137 17 callsubr
          hintmask 11100000
          -106 callgsubr
          hintmask 00011000
          -48 544 -105 callgsubr
        </CharString>
        <CharString name="Agrave">
          -5 callsubr
          113 -21 191 -20 hstemhm
          hintmask 11100000
          -106 callgsubr
          hintmask 00011000
          52 646 -92 callgsubr
        </CharString>
        <CharString name="Aring">
          -5 callsubr
          75 48 116 49 hstemhm
          239 70 86 71 hintmask 11100000
          -106 callgsubr
          hintmask 00011110
          65 544 -77 callgsubr
        </CharString>
        <CharString name="Atilde">
          -5 callsubr
          135 -10 callgsubr
          hintmask 11100000
          -106 callgsubr
          hintmask 00011010
          236 609 -23 callsubr
          hintmask 00011100
          -93 callgsubr
        </CharString>
        <CharString name="B">
          17 0 52 289 46 289 39 callgsubr
          hintmask 11111000
          559 535 rmoveto
          -34 callgsubr
          hintmask 11110100
          27 callsubr
          hintmask 11111000
          40 callsubr
          -27 callsubr
          hintmask 11110100
          19 callgsubr
        </CharString>
        <CharString name="C">
          -17 -14 69 621 56 hstem
          35 113 337 98 vstem
          358 732 rmoveto
          17 callgsubr
          -205 104 -167 216 -84 callsubr
          vhcurveto
          endchar
        </CharString>
        <CharString name="Ccedilla">
          -17 -295 42 150 37 52 69 -4 -20 645 56 hstemhm
          35 113 40 67 104 74 52 98 hintmask 1101111110000000
          296 -62 callsubr
          44 57 rlineto
          hintmask 1110111110000000
          10 9 -1 10 hhcurveto
          -84 callsubr
          17 callgsubr
          -183 83 -153 171 -30 vhcurveto
          -72 -94 -31 callgsubr
        </CharString>
        <CharString name="D">
          99 0 51 625 -39 callsubr
          -505 vlineto
          -35 callsubr
          endchar
        </CharString>
        <CharString name="Delta">
          64 0 62 656 -20 hstem
          50 hmoveto
          598 hlineto
          -249 718 rlineto
          -102 hlineto
          35 -104 rmoveto
          190 -552 rlineto
          -374 hlineto
          endchar
        </CharString>
        <CharString name="E">
          -56 callsubr
          hstem
          127 99 vstem
          -107 callsubr
          endchar
        </CharString>
        <CharString name="Eacute">
          -56 callsubr
          79 -21 191 -32 callsubr
          hintmask 11111001
          -107 callsubr
          hintmask 00000110
          14 489 -101 callsubr
          endchar
        </CharString>
        <CharString name="Ecircumflex">
          -56 callsubr
          79 -21 186 -32 callsubr
          hintmask 11111001
          -107 callsubr
          hintmask 00000110
          80 640 -97 callsubr
        </CharString>
        <CharString name="Edieresis">
          -56 callsubr
          103 -21 131 -32 callsubr
          hintmask 11111001
          -107 callsubr
          hintmask 00000110
          -64 543 -105 callgsubr
        </CharString>
        <CharString name="Egrave">
          -56 callsubr
          79 -21 191 -32 callsubr
          hintmask 11111001
          -107 callsubr
          hintmask 00000110
          26 645 -92 callgsubr
        </CharString>
        <CharString name="Eth">
          99 0 51 281 63 281 -39 callsubr
          -232 -94 vlineto
          -26 callsubr
          117 -210 hlineto
          -35 callsubr
          157 172 vlineto
          -9 callsubr
          -195 hlineto
          endchar
        </CharString>
        <CharString name="Euro">
          -17 -14 56 191 63 99 63 218 56 hstemhm
          477 85 -85 98 hintmask 11111000
          360 395 rmoveto
          30 callsubr
          -193 hlineto
          115 19 53 103 111 hhcurveto
          65 38 -37 -45 hvcurveto
          -65 -43 -19 -11 vvcurveto
          -5 4 -5 12 73 39 52 54 68 -60 69 -128 -163 -96 -117 -157 -30 vhcurveto
          -69 hlineto
          -26 callsubr
          84 hlineto
          -1 -15 0 -16 -15 vvcurveto
          -18 0 -18 2 -17 vhcurveto
          -62 hlineto
          -26 callsubr
          93 hlineto
          -144 29 86 -103 159 hhcurveto
          hintmask 11110100
          104 111 52 104 59 -42 39 -58 -17 -4 0 -14 hvcurveto
          -9 23 -22 -45 vvcurveto
          -71 -61 -37 -59 -103 -44 87 104 -17 vhcurveto
          167 hlineto
          30 callsubr
          -198 hlineto
          -2 20 0 21 21 vvcurveto
          12 0 12 1 13 vhcurveto
          endchar
        </CharString>
        <CharString name="F">
          -87 21 -21 326 57 278 57 34 -20 hstem
          103 99 vstem
          468 549 rmoveto
          34 12 rlineto
          178 vlineto
          -16 13 -18 -13 rlineto
          -15 -20 -36 -6 -58 hhcurveto
          -296 -59 callsubr
          -316 vlineto
          -81 -12 -42 -33 -91 callsubr
          15 -14 16 62 vvcurveto
          193 75 vlineto
          71 26 -10 -47 12 -44 callgsubr
          171 vlineto
          -20 11 -8 -11 rlineto
          -35 -25 -23 -11 -31 hhcurveto
          -117 202 hlineto
          -32 callgsubr
          87 36 callsubr
          endchar
        </CharString>
        <CharString name="G">
          57 -278 52 233 -21 31 64 595 56 hstemhm
          35 108 48 97 221 102 -90 90 hintmask 11111101
          521 -12 rmoveto
          -156 -47 -58 -84 -65 -37 42 -21 callgsubr
          59 -73 123 145 93 81 213 vhcurveto
          116 vlineto
          -83 callsubr
          -210 -78 callsubr
          -51 vlineto
          -43 -43 -55 -25 -69 hhcurveto
          -132 -79 135 165 127 55 168 168 hvcurveto
          hintmask 11111110
          86 57 -47 -68 hvcurveto
          -56 -30 -25 -10 vvcurveto
          -10 0 -2 21 61 46 48 69 93 -100 64 -141 -224 -107 -168 -188 -199 101 -160 209 vhcurveto
          hintmask 11111101
          70 58 25 40 48 hvcurveto
          endchar
        </CharString>
        <CharString name="H">
          145 21 -21 334 61 323 38 callgsubr
          327 99 vstem
          -81 callsubr
        </CharString>
        <CharString name="I">
          16 callsubr
          hstem
          127 99 vstem
          297 hmoveto
          11 32 -21 6 rlineto
          -48 14 -13 15 59 vvcurveto
          391 -104 callgsubr
          endchar
        </CharString>
        <CharString name="Iacute">
          16 callsubr
          113 -21 191 -32 callsubr
          hintmask 11001000
          297 hmoveto
          11 32 -21 6 rlineto
          -48 14 -13 15 59 vvcurveto
          391 -104 callgsubr
          hintmask 00110000
          35 825 -101 callsubr
          endchar
        </CharString>
        <CharString name="Icircumflex">
          16 callsubr
          113 -21 186 -32 callsubr
          hintmask 11001000
          297 hmoveto
          11 32 -21 6 rlineto
          -48 14 -13 15 59 vvcurveto
          391 -104 callgsubr
          hintmask 00110000
          111 976 -97 callsubr
        </CharString>
        <CharString name="Idieresis">
          16 callsubr
          137 -21 131 -32 callsubr
          hintmask 11001000
          297 hmoveto
          11 32 -21 6 rlineto
          -48 14 -13 15 59 vvcurveto
          391 -104 callgsubr
          hintmask 00110000
          -32 879 -105 callgsubr
        </CharString>
        <CharString name="Igrave">
          16 callsubr
          113 -21 191 -32 callsubr
          hintmask 11001000
          297 hmoveto
          11 32 -21 6 rlineto
          -48 14 -13 15 59 vvcurveto
          391 -104 callgsubr
          hintmask 00110000
          67 981 -92 callgsubr
        </CharString>
        <CharString name="J">
          -66 callgsubr
        </CharString>
        <CharString name="K">
          -90 callgsubr
        </CharString>
        <CharString name="L">
          -84 -4 -21 25 -11 callsubr
          vstem
          226 -67 callsubr
          -219 -78 callsubr
          -459 -41 callgsubr
          endchar
        </CharString>
        <CharString name="Lslash">
          -84 -4 -21 25 57 208 -21 230 -20 264 38 callgsubr
          vstem
          305 20 callgsubr
          -103 -52 rlineto
          95 vlineto
          -83 callsubr
          -219 -78 callsubr
          -212 vlineto
          -78 -39 37 callgsubr
          102 51 rlineto
          -169 -41 callgsubr
          211 vlineto
          endchar
        </CharString>
        <CharString name="M">
          -89 callsubr
        </CharString>
        <CharString name="N">
          145 -25 callgsubr
          121 70 398 70 vstem
          572 hmoveto
          -91 callgsubr
          endchar
        </CharString>
        <CharString name="Ntilde">
          145 -46 callsubr
          135 -10 callgsubr
          121 70 398 70 hintmask 11000011
          572 hmoveto
          -91 callgsubr
          hintmask 00110100
          335 379 -23 callsubr
          hintmask 00111000
          -93 callgsubr
        </CharString>
        <CharString name="O">
          0 callgsubr
          hstem
          -31 callsubr
          vstem
          -102 callsubr
          endchar
        </CharString>
        <CharString name="OE">
          322 -4 -21 25 45 -45 57 279 57 268 57 -44 44 34 -20 hstemhm
          35 108 330 99 hintmask 1101101110000000
          366 718 rmoveto
          -224 -107 -162 -198 -198 107 -160 224 hvcurveto
          457 hlineto
          21 13 -4 -10 8 hvcurveto
          8 -11 20 11 rlineto
          171 vlineto
          -34 12 -6 -23 rlineto
          hintmask 1011101110000000
          -71 -19 -19 -18 -71 hhcurveto
          -108 -50 callgsubr
          203 85 vlineto
          71 26 -10 -47 12 -44 callgsubr
          171 vlineto
          -20 11 -8 -11 rlineto
          -35 -25 -23 -11 -31 hhcurveto
          -127 192 hlineto
          -96 callgsubr
          hintmask 1101011110000000
          -359 -673 rmoveto
          -145 -87 140 173 150 52 166 160 44 41 -16 -25 33 hvcurveto
          -563 vlineto
          -16 -28 -33 -9 -37 hhcurveto
          endchar
        </CharString>
        <CharString name="Oacute">
          0 callgsubr
          79 -21 191 -4 callgsubr
          hintmask 11001100
          -102 callsubr
          hintmask 00110000
          232 467 -101 callsubr
          endchar
        </CharString>
        <CharString name="Ocircumflex">
          0 callgsubr
          79 -21 186 -4 callgsubr
          hintmask 11001100
          -102 callsubr
          hintmask 00110000
          318 618 -97 callsubr
        </CharString>
        <CharString name="Odieresis">
          0 callgsubr
          103 -21 131 -4 callgsubr
          hintmask 11001100
          -102 callsubr
          hintmask 00110000
          175 521 -105 callgsubr
        </CharString>
        <CharString name="Ograve">
          0 callgsubr
          79 -21 191 -4 callgsubr
          hintmask 11001100
          -102 callsubr
          hintmask 00110000
          274 623 -92 callgsubr
        </CharString>
        <CharString name="Omega">
          128 21 -21 677 54 hstem
          60 107 428 107 vstem
          381 677 rmoveto
          145 69 -120 -149 -102 -42 -99 -111 -55 hvcurveto
          28 -152 rlineto
          194 31 hlineto
          -62 14 -49 11 -16 9 -8 42 rlinecurve
          -6 33 rlineto
          121 58 58 98 112 vvcurveto
          178 -104 145 -217 -217 -104 -145 -178 -112 58 -98 121 -58 vhcurveto
          -6 -33 -8 -42 -16 -9 -49 -11 rlinecurve
          -62 -14 rlineto
          -31 194 vlineto
          28 152 rlineto
          -111 55 -42 99 102 vvcurveto
          149 69 120 145 vhcurveto
          endchar
        </CharString>
        <CharString name="Oslash">
          99 -42 -21 49 59 630 57 49 -20 hstem
          -31 callsubr
          vstem
          252 -63 rmoveto
          21 60 rlineto
          -7 28 31 -4 34 hhcurveto
          223 109 166 206 150 -58 130 -118 59 hvcurveto
          30 84 rlineto
          -72 hlineto
          -22 -60 rlineto
          7 -28 -31 4 -33 hhcurveto
          -224 -107 -168 -206 -151 57 -129 118 -59 hvcurveto
          -29 -82 rlineto
          -38 413 rmoveto
          177 82 148 146 25 22 -5 -7 20 vhcurveto
          -203 -573 rlineto
          -61 54 -31 95 111 vvcurveto
          446 5 rmoveto
          -172 -83 -138 -144 -25 -22 4 7 -21 vhcurveto
          203 570 rlineto
          69 -66 23 -119 -86 vvcurveto
          endchar
        </CharString>
        <CharString name="Otilde">
          0 callgsubr
          101 -21 39 54 35 -20 24 -4 callgsubr
          hintmask 11000011
          -102 callsubr
          hintmask 00110100
          460 586 -23 callsubr
          hintmask 00111000
          -93 callgsubr
        </CharString>
        <CharString name="P">
          -38 21 -21 261 52 363 56 -16 callsubr
          246 104 vstem
          -69 callgsubr
        </CharString>
        <CharString name="Q">
          99 -222 80 128 59 151 58 421 57 hstem
          35 108 58 43 345 109 vstem
          35 358 rmoveto
          -206 107 -166 224 45 40 7 12 36 vhcurveto
          39 -85 rlineto
          -74 33 47 -68 84 hhcurveto
          47 46 33 50 5 -3 5 -6 hvcurveto
          -8 -17 -13 -30 hhcurveto
          -49 -32 23 54 -24 hvcurveto
          -50 111 rlineto
          90 66 44 115 131 vvcurveto
          206 -109 168 -223 -224 -107 -168 -206 vhcurveto
          554 -3 rmoveto
          -91 -24 -81 -43 -57 vhcurveto
          88 -56 -68 40 -71 hhcurveto
          -78 -48 -41 -66 -7 0 -6 2 -7 hvcurveto
          -40 55 -20 79 89 vvcurveto
          177 82 148 146 170 48 -195 -125 vhcurveto
          -345 -222 rmoveto
          39 28 24 38 44 58 -33 -93 46 vhcurveto
          -16 -28 -32 -9 -36 hhcurveto
          -58 -60 25 63 hvcurveto
          endchar
        </CharString>
        <CharString name="R">
          6 -14 55 -20 -21 676 56 hstemhm
          107 99 246 104 hintmask 10111000
          604 55 rmoveto
          -10 -14 -12 -4 -13 hhcurveto
          -18 -11 13 18 -9 hvcurveto
          -93 189 -11 21 -11 16 -18 12 rlinecurve
          111 26 51 83 94 vvcurveto
          120 -84 99 -208 -94 -104 -24 -20 -51 vhcurveto
          -45 callsubr
          -494 -4 callsubr
          rlineto
          hintmask 01111000
          12 -34 rlineto
          219 hlineto
          13 16 -13 18 rlineto
          -32 44 -13 41 82 vvcurveto
          429 vlineto
          18 8 28 68 112 58 -73 -93 -93 -57 -63 -102 vhcurveto
          -30 -11 7 -8 hhcurveto
          -11 -5 -12 -12 -10 6 -8 13 -5 hvcurveto
          39 -14 16 -7 13 -29 76 -161 rcurveline
          hintmask 10111000
          -75 35 33 -42 70 hhcurveto
          31 32 12 28 29 hvcurveto
          endchar
        </CharString>
        <CharString name="S">
          -79 callsubr
        </CharString>
        <CharString name="Scaron">
          -62 -14 56 634 56 88 43 callgsubr
          hstemhm
          45 111 -95 95 250 98 -83 83 -83 101 hintmask 1100100010000000
          292 42 rmoveto
          -86 -58 49 70 hvcurveto
          56 32 26 9 vvcurveto
          6 -6 6 -15 -65 -49 -48 -69 -95 102 -66 145 151 79 79 116 vhcurveto
          248 -366 -43 175 vvcurveto
          59 40 56 83 vhcurveto
          hintmask 1100011000000000
          -83 callgsubr
          -148 -70 -96 -98 vhcurveto
          hintmask 1100100100000000
          -244 360 56 -195 vvcurveto
          -72 -54 -41 -75 vhcurveto
          hintmask 0011000000000000
          14 757 -84 callgsubr
        </CharString>
        <CharString name="T">
          -39 21 -21 661 35 callsubr
          vstem
          -74 callsubr
        </CharString>
        <CharString name="Thorn">
          -38 21 -21 130 52 366 53 117 38 callgsubr
          246 104 22 callsubr
          372 vlineto
          20 9 30 78 105 54 -82 -106 -107 -57 -71 -102 vhcurveto
          -30 -11 7 -8 hhcurveto
          -11 -5 -12 -12 -24 43 -11 45 166 74 108 125 133 -99 105 -137 -35 -37 -6 -14 -39 hvcurveto
          6 42 13 30 23 31 13 18 rcurveline
          -102 callgsubr
          endchar
        </CharString>
        <CharString name="U">
          105 38 callsubr
          hstem
          111 99 352 70 vstem
          -100 callgsubr
          endchar
        </CharString>
        <CharString name="Uacute">
          105 38 callsubr
          113 -21 191 -20 hstemhm
          111 99 352 70 hintmask 11001100
          -100 callgsubr
          hintmask 00110000
          96 605 -101 callsubr
          endchar
        </CharString>
        <CharString name="Ucircumflex">
          105 38 callsubr
          113 43 callgsubr
          hstemhm
          111 99 352 70 hintmask 11001100
          -100 callgsubr
          hintmask 00110000
          163 756 -97 callsubr
        </CharString>
        <CharString name="Udieresis">
          105 38 callsubr
          137 17 callsubr
          111 99 352 70 hintmask 11001100
          -100 callgsubr
          hintmask 00110000
          16 659 -105 callgsubr
        </CharString>
        <CharString name="Ugrave">
          105 38 callsubr
          113 -21 191 -20 hstemhm
          111 99 352 70 hintmask 11001100
          -100 callgsubr
          hintmask 00110000
          102 761 -92 callgsubr
        </CharString>
        <CharString name="V">
          48 -25 callgsubr
          597 -59 callgsubr
          195 -580 rlineto
          114 hlineto
          endchar
        </CharString>
        <CharString name="W">
          453 -25 callgsubr
          1002 -59 callgsubr
          10 -32 -149 -465 -163 502 rlineto
          -7 21 -4 15 -76 callsubr
          25 -23 22 -66 rlinecurve
          195 -580 rlineto
          114 hlineto
          144 436 147 -436 rlineto
          114 hlineto
          endchar
        </CharString>
        <CharString name="X">
          46 -25 callgsubr
          -88 callgsubr
        </CharString>
        <CharString name="Y">
          -8 -25 callgsubr
          -94 callgsubr
          endchar
        </CharString>
        <CharString name="Yacute">
          -8 -46 callsubr
          113 -21 191 -20 hstemhm
          hintmask 11000000
          -94 callgsubr
          hintmask 00110000
          -65 443 -101 callsubr
          endchar
        </CharString>
        <CharString name="Ydieresis">
          -8 -46 callsubr
          137 17 callsubr
          hintmask 11000000
          -94 callgsubr
          hintmask 00110000
          -143 497 -105 callgsubr
        </CharString>
        <CharString name="Z">
          -44 -4 -21 25 57 604 57 34 -20 hstem
          -61 callsubr
          endchar
        </CharString>
        <CharString name="Zcaron">
          -44 -4 -21 25 57 604 57 34 -20 88 43 callgsubr
          hstemhm
          hintmask 11110000
          -61 callsubr
          hintmask 00001100
          236 250 -84 callgsubr
        </CharString>
        <CharString name="a">
          -26 callgsubr
          hstem
          -3 callgsubr
          vstem
          -106 callsubr
          endchar
        </CharString>
        <CharString name="aacute">
          -26 callgsubr
          80 -21 191 -20 hstemhm
          -3 callgsubr
          hintmask 11001100
          -106 callsubr
          hintmask 00110000
          53 356 -101 callsubr
          endchar
        </CharString>
        <CharString name="acircumflex">
          -26 callgsubr
          80 43 callgsubr
          hstemhm
          -3 callgsubr
          hintmask 11001100
          -106 callsubr
          hintmask 00110000
          139 507 -97 callsubr
        </CharString>
        <CharString name="acute">
          -346 590 -2 callgsubr
          63 604 -101 callsubr
          endchar
        </CharString>
        <CharString name="acute.case">
          811 -2 callgsubr
          39 825 -101 callsubr
          endchar
        </CharString>
        <CharString name="acutecomb">
          -346 590 -2 callgsubr
          63 604 -101 callsubr
          endchar
        </CharString>
        <CharString name="adieresis">
          -26 callgsubr
          104 17 callsubr
          -3 callgsubr
          hintmask 11001100
          -106 callsubr
          hintmask 00110000
          -5 410 -105 callgsubr
        </CharString>
        <CharString name="ae">
          231 -14 54 -54 66 142 56 0 56 138 66 hstemhm
          45 95 241 103 231 95 hintmask 10011111
          254 510 rmoveto
          -116 -79 -62 -20 -13 15 -16 11 hvcurveto
          14 24 45 110 hhcurveto
          97 51 -73 -117 -138 -55 -76 -91 -63 -32 45 47 59 42 59 85 hvcurveto
          47 15 -13 12 hhcurveto
          8 7 11 11 35 -89 12 -31 -125 -66 -89 -84 -75 55 -72 115 93 68 45 75 34 hvcurveto
          -75 37 71 -45 93 hhcurveto
          79 69 31 58 50 hvcurveto
          -78 callgsubr
          hintmask 01101111
          -39 -40 -50 -18 -56 hhcurveto
          -97 -51 73 117 141 51 77 85 63 32 -47 -49 -57 -42 -57 -85 hvcurveto
          -41 -13 13 -10 hhcurveto
          -8 -7 -11 -11 -35 82 -12 28 125 66 87 82 75 -55 72 -115 -88 -70 -34 -57 -45 hvcurveto
          57 -40 -64 34 -79 hhcurveto
          endchar
        </CharString>
        <CharString name="agrave">
          -26 callgsubr
          80 -21 191 -20 hstemhm
          -3 callgsubr
          hintmask 11001100
          -106 callsubr
          hintmask 00110000
          95 512 -92 callgsubr
        </CharString>
        <CharString name="ampersand">
          34 -14 53 458 -20 209 46 hstemhm
          30 114 -74 110 218 87 -40 73 53 97 hintmask 11101101
          303 376 rmoveto
          9 4 12 8 9 -5 13 -9 -65 -57 46 94 64 43 64 83 58 34 -34 -50 hvcurveto
          -45 -21 -14 -8 vvcurveto
          -7 7 -3 14 54 33 36 51 71 -75 49 -93 -165 -82 -90 -90 -92 57 -53 85 -21 vhcurveto
          hintmask 11110011
          -120 -31 -62 -74 -89 vvcurveto
          -132 102 -74 153 173 60 95 77 41 -19 37 -29 26 vhcurveto
          89 7 109 25 100 vvcurveto
          63 -50 40 -56 -18 -26 -5 -10 vhcurveto
          -14 53 -17 -64 -144 -327 109 -115 vvcurveto
          -15 11 -17 11 13 8 44 8 96 vhcurveto
          10 13 1 15 hhcurveto
          13 -18 11 -26 -38 vvcurveto
          -89 -66 -48 -88 -93 -54 77 77 77 48 78 111 28 vhcurveto
          endchar
        </CharString>
        <CharString name="apple">
          197 -82 -21 110 -21 23 -21 28 -21 74 36 219 51 83 69 20 -20 hstemhm
          90 90 -68 68 -68 81 70 115 76 115 67 84 -84 105 hintmask 1010111010011100
          500 -80 rmoveto
          1 3 4 0 2 8 6 -1 7 hhcurveto
          23 2 17 9 16 hvcurveto
          13 7 19 1 12 8 11 8 5 20 11 11 9 9 14 1 8 10 10 11 -1 22 7 13 rrcurveto
          9 15 22 1 25 9 -2 10 10 vvcurveto
          hintmask 1010111010011010
          22 20 3 3 18 vhcurveto
          13 -10 13 14 11 10 11 13 19 -22 13 23 vvcurveto
          hintmask 1010110101011100
          7 1 7 8 vvcurveto
          25 -23 3 -9 16 vhcurveto
          -6 9 5 20 -6 9 -10 17 -23 4 -13 11 -10 11 1 16 -11 8 -13 9 -14 -2 -14 7 rrcurveto
          9 -17 -2 23 -24 -9 -9 -2 -7 -22 -6 22 -24 -12 -15 -11 -13 -12 -16 11 -12 -19 -8 -21 -22 -8 -8 2 -8 hhcurveto
          -22 -1 -6 -25 -16 -8 -14 -7 -20 2 -12 -10 -9 -9 -4 -19 -9 -9 -10 -10 -19 0 -7 -12 -6 -10 2 -19 -6 -9 rrcurveto
          -9 -16 -22 -5 -23 vvcurveto
          -22 vlineto
          hintmask 1010111010011100
          -17 -22 -19 -19 -14 11 -9 -15 -13 -11 -14 -12 vvcurveto
          hintmask 1010111000111100
          -19 22 -14 -17 -7 -2 -7 -8 vvcurveto
          -24 23 -10 7 -11 vhcurveto
          10 -16 -6 -10 10 -16 9 -14 14 2 12 -9 12 -10 -1 -22 16 -10 14 -9 7 8 20 -11 rrcurveto
          -6 12 11 -26 23 7 8 2 7 21 10 -23 18 14 13 11 15 13 15 -9 13 hhcurveto
          15 12 16 5 16 hvcurveto
          -23 83 rmoveto
          -3 -12 -9 -12 -11 hhcurveto
          hintmask 1001111010011100
          -9 -10 7 -10 hhcurveto
          hintmask 1100111000111100
          -11 -11 -9 -11 hhcurveto
          2 -12 -7 15 -17 -4 -5 -1 -4 hhcurveto
          -17 -7 19 4 -9 hvcurveto
          -16 8 -4 -7 -10 7 -12 7 1 17 -9 7 -8 7 -11 -2 -6 10 -7 12 4 8 -7 12 rrcurveto
          -5 8 -18 6 17 5 2 5 5 vvcurveto
          hintmask 1010111010011100
          13 -15 10 13 10 7 10 10 11 -7 6 10 15 15 12 15 4 -1 5 5 vvcurveto
          17 17 4 7 11 vhcurveto
          4 8 -2 13 5 7 6 8 13 0 7 8 7 7 2 13 8 7 8 7 15 -2 10 5 rrcurveto
          6 11 4 19 17 5 5 -1 5 17 7 15 14 9 11 -8 9 9 11 8 10 17 2 -16 17 6 6 2 6 hhcurveto
          18 1 -17 -7 12 hvcurveto
          11 -6 10 4 9 -8 9 -6 -2 -12 8 -7 9 -9 17 -3 7 -11 4 -7 -3 -14 4 -7 rrcurveto
          7 -13 16 -1 -19 -5 -1 -5 -5 -16 17 -10 -14 -8 -8 -9 -9 -9 8 -10 -9 vvcurveto
          -3 -13 -14 -3 -17 -5 1 -6 -7 vvcurveto
          -21 -14 2 -7 -12 vhcurveto
          -6 -10 0 -15 -6 -9 -6 -8 -11 0 -6 -7 -8 -7 -3 -14 -9 -6 -8 -6 -15 -1 -9 -5 rrcurveto
          -5 -11 0 -14 -18 -5 -4 1 -5 hhcurveto
          -3 -2 0 -1 -3 hvcurveto
          -61 372 rmoveto
          -85 -68 -68 -85 -84 68 -69 85 84 69 69 84 85 -69 68 -84 hvcurveto
          38 -112 rmoveto
          -158 -76 158 -49 61 172 -61 vlineto
          endchar
        </CharString>
        <CharString name="approxequal">
          -13 179 76 -11 75 76 76 -11 75 hstemhm
          hintmask 10010000
          522 503 rmoveto
          23 -27 -35 9 -35 hhcurveto
          hintmask 10100000
          -29 callsubr
          hintmask 01010000
          5 callsubr
          -140 vmoveto
          23 -27 -35 9 -35 hhcurveto
          hintmask 10100000
          -29 callsubr
          hintmask 01100000
          5 callsubr
          endchar
        </CharString>
        <CharString name="aring">
          -26 callgsubr
          42 48 116 49 hstemhm
          45 105 38 70 86 71 -14 89 hintmask 11001001
          -106 callsubr
          hintmask 00110110
          108 410 -77 callgsubr
        </CharString>
        <CharString name="asciicircum">
          -13 419 -21 320 -20 hstem
          267 718 rmoveto
          -171 -320 rlineto
          81 hlineto
          132 255 134 -255 rlineto
          81 hlineto
          -171 320 rlineto
          endchar
        </CharString>
        <CharString name="asciitilde">
          -13 290 76 -11 75 hstemhm
          hintmask 01000000
          522 398 rmoveto
          23 -27 -35 9 -35 hhcurveto
          hintmask 10000000
          -29 callsubr
          hintmask 01000000
          5 callsubr
          endchar
        </CharString>
        <CharString name="asterisk">
          -60 432 -21 22 35 callgsubr
          504 657 rmoveto
          28 -18 21 -29 7 vhcurveto
          -68 -37 -50 -26 -32 -17 7 36 9 55 15 76 rrcurveto
          20 -12 -18 10 -21 hhcurveto
          -22 -17 -10 -20 -12 hvcurveto
          15 -76 9 -55 7 -36 -33 18 -50 25 -67 38 rrcurveto
          -28 -6 -19 -23 -30 vvcurveto
          -13 5 -13 11 -12 vhcurveto
          76 -9 55 -9 37 -5 -27 -25 -39 -40 -57 -52 rrcurveto
          -31 18 -34 38 8 9 2 4 9 vhcurveto
          32 70 26 49 16 34 15 -34 26 -49 33 -71 rrcurveto
          hintmask 10100000
          -4 8 8 -2 9 hhcurveto
          31 25 27 39 hvcurveto
          -57 53 -39 39 -27 25 37 5 55 9 78 9 rrcurveto
          10 12 5 13 15 vvcurveto
          endchar
        </CharString>
        <CharString name="at">
          258 -110 57 89 52 3 76 285 58 108 57 hstem
          55 96 82 98 169 84 156 97 vstem
          452 452 rmoveto
          22 20 -6 -17 22 hvcurveto
          -17 -200 rlineto
          -43 -30 -34 -19 -27 hhcurveto
          -43 -34 45 69 81 39 90 82 hvcurveto
          385 -137 rmoveto
          201 -140 159 -218 -237 -187 -194 -231 -201 140 -159 219 80 64 21 39 65 vhcurveto
          -24 42 rlineto
          -34 -56 -56 -11 -68 hhcurveto
          -170 -98 128 173 205 132 165 191 169 97 -128 -172 -158 -64 -72 -40 -28 -24 28 54 6 0 6 22 251 hvcurveto
          1 13 6 9 5 7 9 16 rcurveline
          -8 12 rlineto
          5 -50 -67 15 -49 hhcurveto
          -130 -90 -98 -156 -109 56 -56 68 46 55 27 50 42 hvcurveto
          -87 52 -45 69 143 73 156 123 vhcurveto
          endchar
        </CharString>
        <CharString name="atilde">
          -26 callgsubr
          102 -10 callgsubr
          -3 callgsubr
          hintmask 11000011
          -106 callsubr
          hintmask 00110100
          280 475 -23 callsubr
          hintmask 00111000
          -93 callgsubr
        </CharString>
        <CharString name="b">
          -44 -14 56 399 69 -56 56 272 -20 hstemhm
          98 91 250 106 hintmask 11011100
          301 454 rmoveto
          82 56 -84 -122 -126 -56 -80 -89 -43 -31 10 22 -31 hvcurveto
          676 vlineto
          -101 callgsubr
          -625 vlineto
          -39 39 71 -24 77 hhcurveto
          149 111 120 162 142 -88 100 -125 -34 -34 -8 -21 -33 hvcurveto
          -6 -4 -3 -7 -7 vvcurveto
          -11 7 -11 8 vhcurveto
          hintmask 10111100
          10 13 13 41 hhcurveto
          endchar
        </CharString>
        <CharString name="backslash">
          -263 -42 -21 844 -20 hstem
          371 -63 rmoveto
          -299 844 rlineto
          -72 hlineto
          300 -844 rlineto
          endchar
        </CharString>
        <CharString name="bar">
          23 callsubr
          -82 rmoveto
          826 -99 -826 vlineto
          endchar
        </CharString>
        <CharString name="braceleft">
          -318 13 callgsubr
          76 111 vstem
          187 160 rmoveto
          112 -45 46 -65 13 vhcurveto
          65 14 45 45 112 vvcurveto
          114 30 96 72 17 vhcurveto
          -7 45 rlineto
          -150 -18 -56 -116 -138 vvcurveto
          -104 -19 -37 -57 -11 vhcurveto
          -38 vlineto
          57 -11 19 -37 -104 vvcurveto
          -138 56 -116 150 -18 vhcurveto
          7 45 rlineto
          -72 17 -30 96 114 vvcurveto
          endchar
        </CharString>
        <CharString name="braceright">
          -318 13 callgsubr
          129 111 vstem
          129 160 rmoveto
          -114 -30 -96 -72 -17 vhcurveto
          7 -45 rlineto
          150 18 56 116 138 vvcurveto
          104 19 37 57 11 vhcurveto
          38 vlineto
          -57 11 -19 37 104 vvcurveto
          138 -56 116 -150 18 vhcurveto
          -7 -45 rlineto
          72 -17 30 -96 -114 vvcurveto
          -112 45 -45 65 -14 vhcurveto
          -65 -13 -45 -46 -112 vvcurveto
          endchar
        </CharString>
        <CharString name="bracketleft">
          -247 13 callgsubr
          126 99 vstem
          126 -112 rmoveto
          234 48 hlineto
          -80 12 rlineto
          -37 6 -18 10 37 vvcurveto
          660 vlineto
          37 18 10 37 6 vhcurveto
          80 12 rlineto
          48 -234 vlineto
          endchar
        </CharString>
        <CharString name="bracketright">
          -247 13 callgsubr
          162 99 vstem
          261 774 rmoveto
          -234 -48 hlineto
          80 -12 rlineto
          37 -6 18 -10 -37 vvcurveto
          -660 vlineto
          -37 -18 -10 -37 -6 vhcurveto
          -80 -12 rlineto
          -48 234 vlineto
          endchar
        </CharString>
        <CharString name="breve">
          -291 580 76 64 -20 hstem
          47 55 vstem
          172 580 -12 callgsubr
        </CharString>
        <CharString name="breve.case">
          801 76 64 -20 hstem
          13 55 vstem
          138 801 -12 callgsubr
        </CharString>
        <CharString name="brokenbar">
          23 callsubr
          453 rmoveto
          291 -99 -291 vlineto
          99 -535 rmoveto
          292 -99 -292 vlineto
          endchar
        </CharString>
        <CharString name="bullet">
          -368 215 28 122 27 hstem
          49 303 rmoveto
          -35 51 -53 31 34 51 53 35 35 -51 54 -34 -33 -49 -54 -35 vhcurveto
          endchar
        </CharString>
        <CharString name="c">
          -125 -14 67 405 52 hstem
          45 104 221 93 vstem
          435 103 rmoveto
          -38 callgsubr
          -151 101 -110 140 69 64 29 54 47 vhcurveto
          -51 callgsubr
          endchar
        </CharString>
        <CharString name="caron">
          -260 599 43 callgsubr
          hstem
          201 578 -84 callgsubr
        </CharString>
        <CharString name="caron.case">
          820 43 callgsubr
          hstem
          152 799 -84 callgsubr
        </CharString>
        <CharString name="caron.salt">
          -260 599 43 callgsubr
          hstem
          201 578 -84 callgsubr
        </CharString>
        <CharString name="ccedilla">
          -125 -295 42 150 37 52 67 -2 -20 427 52 hstemhm
          45 104 -26 67 104 74 2 93 hintmask 1101101110000000
          231 -62 callsubr
          44 58 rlineto
          hintmask 1110110110000000
          -1 8 8 -1 9 hhcurveto
          69 64 29 54 47 hvcurveto
          -51 callgsubr
          -38 callgsubr
          -128 73 -99 107 -27 vhcurveto
          -73 -95 -31 callgsubr
        </CharString>
        <CharString name="cedilla">
          -284 -295 42 150 37 117 -20 hstem
          55 67 104 74 vstem
          163 -62 callsubr
          77 99 -24 22 -118 -153 -31 callgsubr
        </CharString>
        <CharString name="cent">
          -148 -62 -21 653 51 181 -20 hstem
          43 104 91 63 67 93 vstem
          290 165 rmoveto
          -87 -56 77 118 125 51 85 76 57 37 -34 -53 hvcurveto
          -55 callsubr
          57 41 40 58 75 -66 53 -94 5 vhcurveto
          181 vlineto
          -21 -28 -6 -18 -14 hvcurveto
          -160 vlineto
          -119 -21 -76 -99 -140 vvcurveto
          -140 79 -101 116 -17 vhcurveto
          -183 vlineto
          22 28 6 18 13 hvcurveto
          159 vlineto
          57 7 53 27 41 47 rrcurveto
          -51 callgsubr
          -34 -41 -42 -16 -48 hhcurveto
          endchar
        </CharString>
        <CharString name="circumflex">
          -260 590 43 callgsubr
          hstem
          174 755 -97 callsubr
        </CharString>
        <CharString name="circumflex.case">
          811 43 callgsubr
          hstem
          125 976 -97 callsubr
        </CharString>
        <CharString name="colon">
          -443 7 -19 callgsubr
          270 17 callsubr
          hintmask 11000000
          33 -29 callgsubr
          hintmask 00110000
          360 vmoveto
          -98 callgsubr
        </CharString>
        <CharString name="comma">
          -443 -102 -21 242 -20 hstem
          19 100 -95 callgsubr
          endchar
        </CharString>
        <CharString name="copyright">
          144 209 26 63 44 324 37 58 26 hstem
          216 69 vstem
          482 574 rmoveto
          11 17 4 10 6 hvcurveto
          109 -25 vlineto
          -9 -18 rlineto
          16 -26 -28 8 -34 hhcurveto
          -121 -57 -92 -110 -112 57 -91 120 60 42 29 46 30 hvcurveto
          -26 23 rlineto
          -33 -22 -34 -21 -46 hhcurveto
          -70 -42 71 88 78 27 87 82 31 26 -15 -25 18 hvcurveto
          -343 -128 -58 callgsubr
        </CharString>
        <CharString name="d">
          -26 callgsubr
          272 -20 hstem
          -3 callgsubr
          vstem
          150 248 rmoveto
          131 56 76 97 33 34 -10 -21 31 vhcurveto
          -270 vlineto
          -63 -37 -49 -28 -51 hhcurveto
          -59 -55 49 136 hvcurveto
          340 502 rmoveto
          -101 callgsubr
          -177 vlineto
          9 -30 -31 4 -34 hhcurveto
          -159 -100 -108 -173 -162 85 -81 94 62 57 25 81 58 hvcurveto
          -75 22 -31 55 34 42 24 39 35 vhcurveto
          -19 26 rlineto
          -12 -17 -18 -6 -15 hhcurveto
          -19 -11 10 21 hvcurveto
          endchar
        </CharString>
        <CharString name="dagger">
          -43 -98 -21 947 -20 hstem
          257 76 vstem
          45 603 rmoveto
          -22 6 -17 15 -11 vhcurveto
          82 12 70 9 39 9 rrcurveto
          -299 16 -2 -403 24 hhcurveto
          24 -1 403 299 15 hvcurveto
          40 -9 68 -9 83 -12 rrcurveto
          15 11 6 17 22 vvcurveto
          21 -6 18 -15 11 vhcurveto
          -81 -13 -68 -7 -39 -9 4 65 4 59 7 47 25 callgsubr
          6 -47 5 -59 4 -65 -39 9 -68 7 -81 13 rrcurveto
          -15 -11 -6 -18 -21 vvcurveto
          endchar
        </CharString>
        <CharString name="daggerdbl">
          -43 -107 -21 956 -20 hstem
          270 48 vstem
          545 603 rmoveto
          21 -6 18 -15 11 vhcurveto
          -86 -13 -71 -8 -38 -10 4 65 7 62 11 46 25 callgsubr
          10 -46 7 -62 5 -65 -39 10 -70 8 -86 13 rrcurveto
          -15 -11 -6 -18 -21 vvcurveto
          -22 6 -17 15 -11 vhcurveto
          87 13 73 9 37 10 15 -237 rcurveline
          -15 -234 -37 11 -73 8 -87 14 rlinecurve
          -15 -11 -6 -17 -22 vvcurveto
          -21 6 -18 15 -11 vhcurveto
          85 13 71 8 39 10 -5 -65 -7 -62 -10 -46 rrcurveto
          -22 13 20 -11 23 hhcurveto
          24 19 11 22 13 hvcurveto
          -11 46 -6 61 -5 66 38 -10 71 -8 86 -13 rrcurveto
          15 11 6 18 21 vvcurveto
          22 -6 17 -15 11 vhcurveto
          -88 -14 -72 -8 -38 -11 -15 234 rcurveline
          15 237 38 -10 72 -9 88 -13 rlinecurve
          15 11 6 17 22 vvcurveto
          endchar
        </CharString>
        <CharString name="degree">
          -199 361 47 276 47 hstem
          40 85 184 86 vstem
          309 549 rmoveto
          -89 -41 -52 -56 -53 -34 48 87 89 41 52 56 53 34 -48 -87 vhcurveto
          -269 -3 rmoveto
          -14 callsubr
        </CharString>
        <CharString name="dieresis">
          -213 614 -19 callgsubr
          hstem
          54 658 -105 callgsubr
        </CharString>
        <CharString name="dieresis.case">
          835 -19 callgsubr
          hstem
          -19 879 -105 callgsubr
        </CharString>
        <CharString name="divide">
          -13 146 -19 callgsubr
          83 76 84 17 callsubr
          hintmask 00100000
          99 319 rmoveto
          13 callsubr
          hintmask 00011000
          149 128 -104 callsubr
          hintmask 11000000
          -333 vmoveto
          -98 callgsubr
        </CharString>
        <CharString name="dollar">
          -53 -132 -21 815 55 155 -20 hstemhm
          54 107 -95 95 92 63 64 98 -70 70 -70 101 hintmask 1111010010000000
          286 56 rmoveto
          -69 -65 40 74 hvcurveto
          53 30 24 9 vvcurveto
          12 -6 0 -15 -61 -46 -43 -63 -98 93 -54 106 -9 vhcurveto
          -154 vlineto
          22 28 6 18 13 hvcurveto
          130 vlineto
          117 11 76 75 99 234 -348 -68 203 vvcurveto
          51 36 56 80 vhcurveto
          hintmask 1110111000000000
          9 callsubr
          79 -74 45 -88 10 vhcurveto
          157 vlineto
          -21 -28 -6 -18 -14 hvcurveto
          -131 vlineto
          -129 -9 -58 -94 -85 vvcurveto
          hintmask 1111010100000000
          -244 342 49 -165 vvcurveto
          -72 -59 -41 -63 vhcurveto
          endchar
        </CharString>
        <CharString name="dotaccent">
          -310 614 -19 callgsubr
          hstem
          100 -60 callgsubr
          endchar
        </CharString>
        <CharString name="dotaccent.case">
          835 -19 callgsubr
          hstem
          76 879 -47 callsubr
        </CharString>
        <CharString name="dotlessi">
          -30 callsubr
          hstem
          108 90 vstem
          199 478 -45 callgsubr
        </CharString>
        <CharString name="e">
          -105 -33 callsubr
          hstem
          45 103 231 95 vstem
          -103 callsubr
          endchar
        </CharString>
        <CharString name="eacute">
          -105 -33 callsubr
          80 -21 191 -20 hstemhm
          45 103 231 95 hintmask 11100110
          -103 callsubr
          hintmask 00011000
          -308 529 -101 callsubr
          endchar
        </CharString>
        <CharString name="ecircumflex">
          -105 -33 callsubr
          80 43 callgsubr
          hstemhm
          45 103 231 95 hintmask 11100110
          -103 callsubr
          hintmask 00011000
          -222 680 -97 callsubr
        </CharString>
        <CharString name="edieresis">
          -105 -33 callsubr
          104 17 callsubr
          45 103 231 95 hintmask 11100110
          -103 callsubr
          hintmask 00011000
          -365 583 -105 callgsubr
        </CharString>
        <CharString name="egrave">
          -105 -33 callsubr
          80 -21 191 -20 hstemhm
          45 103 231 95 hintmask 11100110
          -103 callsubr
          hintmask 00011000
          -266 685 -92 callgsubr
        </CharString>
        <CharString name="eight">
          -18 -17 56 640 56 hstemhm
          54 106 -88 103 261 108 -92 110 hintmask 11011000
          544 551 rmoveto
          132 -109 52 -134 -158 -71 -101 -102 -86 40 -51 75 -41 vhcurveto
          hintmask 11100100
          -65 -39 -68 -61 -88 vvcurveto
          -132 111 -51 135 164 98 79 117 83 -45 62 -96 49 vhcurveto
          hintmask 11101000
          62 38 61 59 81 vvcurveto
          -202 -267 rmoveto
          hintmask 11100100
          75 -33 35 -30 -68 vvcurveto
          -73 -64 -41 -87 -90 -51 55 75 50 24 58 51 54 vhcurveto
          66 348 rmoveto
          hintmask 11011000
          86 49 -54 -73 -48 -22 -54 -45 -52 hvcurveto
          -62 28 rlineto
          -99 44 -33 38 54 vvcurveto
          60 50 57 76 vhcurveto
          endchar
        </CharString>
        <CharString name="eightinferior">
          -234 -14 46 363 47 hstem
          48 74 150 86 vstem
          347 328 rmoveto
          82 -68 32 -85 -101 -45 -63 -63 -49 22 -31 41 -24 vhcurveto
          -37 -25 -37 -36 -50 vvcurveto
          -83 71 -32 85 103 62 49 73 48 -25 36 -53 30 vhcurveto
          35 24 32 35 47 vvcurveto
          -133 -164 rmoveto
          39 -17 19 -16 -38 vvcurveto
          -39 -33 -22 -45 -46 -26 30 40 24 12 31 26 30 vhcurveto
          34 208 rmoveto
          43 26 -28 -39 -25 -12 -28 -22 -29 hvcurveto
          -28 14 rlineto
          -52 26 -18 18 29 vvcurveto
          32 25 30 38 vhcurveto
          endchar
        </CharString>
        <CharString name="ellipsis">
          -61 7 -19 callgsubr
          hstem
          33 -29 callgsubr
          191 hmoveto
          -107 callgsubr
          191 hmoveto
          -98 callgsubr
        </CharString>
        <CharString name="emdash">
          276 11 callgsubr
          833 4 callgsubr
          -783 -10 rlineto
          12 callsubr
        </CharString>
        <CharString name="endash">
          145 11 callgsubr
          704 4 callgsubr
          -654 -10 rlineto
          12 callsubr
        </CharString>
        <CharString name="equal">
          -13 211 76 140 76 hstem
          99 211 rmoveto
          13 callsubr
          140 vmoveto
          12 callgsubr
        </CharString>
        <CharString name="eslash">
          -286 265 -21 230 -20 hstem
          302 20 callgsubr
          -280 -140 37 callgsubr
          endchar
        </CharString>
        <CharString name="eth">
          -50 -14 54 398 52 54 18 171 18 -6 45 hstemhm
          43 104 -73 85 289 93 hintmask 11110101
          538 670 rmoveto
          18 9 3 20 52 vvcurveto
          -137 -68 rlineto
          hintmask 11101011
          64 -45 -61 43 -79 hhcurveto
          -111 -52 -63 -62 -54 39 -52 73 12 4 5 5 hvcurveto
          11 -43 19 65 vvcurveto
          44 28 37 49 46 42 -36 -59 33 vhcurveto
          -50 -25 rlineto
          -18 -9 -3 -21 -51 vvcurveto
          99 49 19 -47 16 -56 11 -60 rlinecurve
          42 -38 -49 18 -52 hhcurveto
          hintmask 11101101
          -153 -96 -97 -155 -154 96 -98 153 152 97 98 154 99 -23 167 -63 124 hvcurveto
          -308 -390 rmoveto
          123 55 77 87 94 65 -86 -123 -116 -56 -73 -88 -91 -66 79 119 vhcurveto
          endchar
        </CharString>
        <CharString name="exclam">
          -388 7 -21 781 -20 hstem
          60 126 vstem
          62 -29 callgsubr
          61 716 rmoveto
          -27 -21 -8 -17 -15 hvcurveto
          -80 18 -219 20 -200 vhcurveto
          -29 3 8 -16 14 hhcurveto
          14 8 16 29 3 hvcurveto
          20 200 18 219 80 vvcurveto
          17 -16 -21 8 -26 hhcurveto
          endchar
        </CharString>
        <CharString name="exclamdown">
          -388 -270 20 740 21 hstem
          60 126 vstem
          184 3 callgsubr
          -61 -716 rmoveto
          27 21 8 17 15 hvcurveto
          80 -18 219 -20 200 vhcurveto
          29 -3 -8 16 -14 hhcurveto
          -14 -8 -16 -29 -3 hvcurveto
          -20 -200 -18 -219 -80 vvcurveto
          -17 16 21 -8 26 hhcurveto
          endchar
        </CharString>
        <CharString name="f">
          -300 -238 43 629 -11 callgsubr
          152 93 vstem
          45 481 rmoveto
          -1 callgsubr
          -524 hlineto
          -96 callsubr
          123 57 21 callgsubr
          447 117 -36 callsubr
          -140 76 hlineto
          97 24 67 61 41 26 -28 -43 vhcurveto
          -55 callsubr
          57 41 14 callgsubr
          -125 -61 -112 -173 vhcurveto
          endchar
        </CharString>
        <CharString name="f.alt">
          -300 -238 43 629 -11 callgsubr
          208 93 vstem
          45 481 rmoveto
          -1 callgsubr
          -524 hlineto
          -96 callsubr
          123 57 21 callgsubr
          447 117 -36 callsubr
          -140 hlineto
          143 40 97 101 43 24 -28 -43 vhcurveto
          -55 callsubr
          56 42 14 callgsubr
          6 callgsubr
          vhcurveto
          endchar
        </CharString>
        <CharString name="f_f">
          -16 -238 43 26 45 558 63 240 45 hstemhm
          -105 89 125 90 194 90 -69 69 152 93 hintmask 1111111010000000
          600 434 rmoveto
          14 11 9 23 29 vvcurveto
          -140 76 hlineto
          97 24 67 61 41 26 -28 -43 vhcurveto
          -55 callsubr
          57 41 14 callgsubr
          -48 -38 -17 -29 -29 vhcurveto
          28 -26 -44 18 -53 hhcurveto
          -139 -76 -114 -171 -14 hvcurveto
          -65 27 callgsubr
          86 -524 hlineto
          -96 callsubr
          78 51 37 61 27 vhcurveto
          -19 27 32 -10 36 hhcurveto
          143 70 142 207 hvcurveto
          254 vlineto
          -284 -447 rmoveto
          447 194 -320 vlineto
          -141 -35 -97 -87 -33 -26 15 27 -19 vhcurveto
          4 21 2 24 24 vvcurveto
          510 vmoveto
          141 38 99 93 vhcurveto
          hintmask 1111110110000000
          54 30 -33 -50 hvcurveto
          hintmask 1111111010000000
          -8 -34 -13 -26 -87 vvcurveto
          -10 vlineto
          endchar
        </CharString>
        <CharString name="f_f_i">
          246 -238 43 26 45 110 22 callgsubr
          194 90 193 90 -75 93 hintmask 1111011110100000
          483 497 rmoveto
          141 40 99 101 43 24 -28 -43 vhcurveto
          -55 callsubr
          56 42 14 callgsubr
          -66 -52 -23 -41 -38 vhcurveto
          39 -30 -45 25 -53 hhcurveto
          6 callgsubr
          hvcurveto
          -65 27 callgsubr
          86 -524 hlineto
          -96 callsubr
          78 51 37 61 27 vhcurveto
          -19 27 32 -10 36 hhcurveto
          150 63 142 207 hvcurveto
          254 173 vlineto
          hintmask 1110111111000000
          14 6 -6 -16 hvcurveto
          -320 vlineto
          -99 callgsubr
          390 vlineto
          19 -12 13 -19 vhcurveto
          hintmask 1111011111000000
          -8 -22 -20 -5 -37 hhcurveto
          -457 -510 -7 callgsubr
          510 vmoveto
          141 40 99 101 53 33 -33 -52 8 vhcurveto
          -21 -43 -12 -53 -5 -59 rrcurveto
          endchar
        </CharString>
        <CharString name="f_f_l">
          246 -238 43 26 45 110 68 380 -11 callgsubr
          194 90 223 90 vstem
          797 746 rmoveto
          18 callsubr
          -60 -48 -22 -39 -36 hvcurveto
          37 -30 -44 24 -52 hhcurveto
          6 callgsubr
          hvcurveto
          -65 27 callgsubr
          86 -524 hlineto
          -96 callsubr
          78 51 37 61 27 vhcurveto
          -19 27 32 -10 36 hhcurveto
          150 63 142 207 hvcurveto
          254 117 -36 callsubr
          -140 hlineto
          143 35 97 91 68 29 -51 -66 vhcurveto
          -528 vlineto
          -99 callgsubr
          -597 -101 -7 callgsubr
          141 750 rmoveto
          52 33 -32 -50 8 hvcurveto
          -20 -44 -12 -54 -5 -60 rrcurveto
          -197 hlineto
          141 40 99 101 vhcurveto
          endchar
        </CharString>
        <CharString name="fi">
          -18 -238 43 181 22 callgsubr
          193 90 -75 93 hintmask 1110111100000000
          372 434 rmoveto
          14 6 -6 -16 hvcurveto
          -320 vlineto
          -99 callgsubr
          390 vlineto
          hintmask 1101111100000000
          19 -12 13 -19 vhcurveto
          hintmask 1110111010000000
          -8 -22 -20 -5 -37 hhcurveto
          -173 hlineto
          143 40 97 101 43 24 -28 -43 vhcurveto
          -55 callsubr
          56 42 14 callgsubr
          6 callgsubr
          vhcurveto
          -67 27 callgsubr
          88 -524 hlineto
          -96 callsubr
          123 57 21 callgsubr
          447 vlineto
          endchar
        </CharString>
        <CharString name="five">
          -38 -14 63 312 55 302 -20 hstemhm
          57 98 -48 64 261 109 hintmask 11101100
          432 193 rmoveto
          -97 -74 -47 -72 vhcurveto
          hintmask 11110100
          -7 callsubr
          152 100 79 128 113 -74 110 -179 -37 -41 -4 -10 -45 vhcurveto
          12 225 rlineto
          294 hlineto
          26 21 8 39 31 vvcurveto
          -389 hlineto
          -18 -333 21 -37 rlineto
          8 39 35 5 31 hhcurveto
          181 27 -105 -63 hvcurveto
          endchar
        </CharString>
        <CharString name="fiveinferior">
          -246 -14 50 171 46 110 67 hstem
          39 80 141 86 vstem
          260 115 rmoveto
          -52 -37 -27 -38 -34 -32 21 36 vhcurveto
          31 17 14 9 vvcurveto
          7 -6 3 -17 -41 -33 -28 -41 -68 73 -34 74 98 62 49 80 70 -47 68 -113 -17 -24 -2 -4 -20 vhcurveto
          6 116 rlineto
          168 hlineto
          20 16 6 29 22 vvcurveto
          -250 hlineto
          -11 -204 15 -29 rlineto
          6 30 23 4 16 hhcurveto
          97 15 -58 -34 hvcurveto
          endchar
        </CharString>
        <CharString name="fl">
          -8 -238 43 181 68 380 -11 callgsubr
          223 90 vstem
          45 481 rmoveto
          -1 callgsubr
          -524 hlineto
          -96 callsubr
          123 57 21 callgsubr
          447 117 -36 callsubr
          -140 hlineto
          143 35 97 91 68 29 -51 -66 vhcurveto
          -528 vlineto
          -99 callgsubr
          1 658 rlineto
          18 callsubr
          -136 -75 -114 -171 -14 hvcurveto
          endchar
        </CharString>
        <CharString name="florin">
          -170 -238 43 497 63 317 50 hstem
          -79 89 125 90 199 90 vstem
          225 449 rmoveto
          138 35 95 87 49 28 -26 -40 vhcurveto
          -56 -27 -17 -9 vvcurveto
          -8 6 -3 13 56 42 14 callgsubr
          -155 -75 -142 -207 vhcurveto
          -18 -110 vlineto
          -26 callsubr
          133 -392 hlineto
          -96 callsubr
          123 57 21 callgsubr
          315 165 vlineto
          -9 callsubr
          -188 hlineto
          endchar
        </CharString>
        <CharString name="four">
          -26 21 -21 162 63 493 -20 hstem
          385 100 vstem
          555 162 rmoveto
          -9 callsubr
          -93 254 hlineto
          -110 -12 -12 -15 rlineto
          18 -29 4 -20 -42 vvcurveto
          -136 -257 vlineto
          216 477 -19 16 rlineto
          -63 hlineto
          -232 -556 rlineto
          355 -29 hlineto
          -62 -12 -13 -51 -13 vhcurveto
          -43 -11 12 -34 rlineto
          239 hlineto
          13 16 -13 18 -27 36 -14 35 -3 57 rlinecurve
          endchar
        </CharString>
        <CharString name="fourinferior">
          -239 21 -21 95 51 290 -20 hstem
          233 80 vstem
          348 -86 callsubr
          endchar
        </CharString>
        <CharString name="fraction">
          -263 -25 callgsubr
          71 -48 callgsubr
          endchar
        </CharString>
        <CharString name="ft">
          -8 -238 43 181 69 379 63 228 53 hstemhm
          -105 89 125 90 223 91 -55 55 hintmask 11111110
          358 481 rmoveto
          -21 -6 -3 -5 -37 callsubr
          143 hlineto
          99 -22 -76 39 -71 hhcurveto
          -130 -86 -101 -180 -17 hvcurveto
          -66 27 callgsubr
          88 -524 hlineto
          -96 callsubr
          123 57 21 callgsubr
          447 67 -36 callsubr
          -90 hlineto
          154 56 74 89 vhcurveto
          hintmask 11111101
          85 29 -63 -56 -38 -11 -63 -89 -24 hvcurveto
          endchar
        </CharString>
        <CharString name="g">
          -32 -278 52 233 -21 29 77 363 55 hstemhm
          60 105 -53 97 207 89 hintmask 11111010
          165 248 rmoveto
          131 56 76 97 33 34 -10 -21 31 vhcurveto
          -241 vlineto
          -63 -37 -49 -28 -51 hhcurveto
          -59 -55 41 115 hvcurveto
          131 -474 rmoveto
          hintmask 11110110
          -55 -32 42 51 hvcurveto
          -75 callgsubr
          55 -73 116 135 87 90 166 vhcurveto
          437 vlineto
          17 5 10 8 -54 callgsubr
          -70 20 -62 hhcurveto
          hintmask 11111010
          -159 -100 -108 -173 -143 85 -71 94 62 57 25 81 58 hvcurveto
          -159 vlineto
          -108 -34 -80 -86 vhcurveto
          endchar
        </CharString>
        <CharString name="germandbls">
          1 -14 50 -50 70 -35 -21 730 52 hstemhm
          100 99 78 89 42 91 30 88 hintmask 10011111
          436 36 rmoveto
          hintmask 01011111
          -70 -23 20 -17 hhcurveto
          -11 -4 -13 -12 -7 3 -9 6 -4 hvcurveto
          -17 32 39 -8 44 hhcurveto
          108 74 74 85 78 -57 53 -70 36 hvcurveto
          -71 36 rlineto
          -37 19 -16 24 33 79 133 54 97 vvcurveto
          86 -66 42 -83 -146 -104 -90 -166 vhcurveto
          -393 41 callsubr
          hintmask 00111111
          12 -34 rlineto
          219 -38 callsubr
          42 81 vvcurveto
          341 vlineto
          108 36 80 91 40 42 -16 -60 vhcurveto
          -101 -131 -78 -80 vvcurveto
          -59 27 -28 51 -32 vhcurveto
          75 -38 rlineto
          61 -31 38 -37 -53 vvcurveto
          hintmask 10011111
          -59 -51 -22 -42 vhcurveto
          endchar
        </CharString>
        <CharString name="grave">
          -346 590 -2 callgsubr
          96 760 -92 callgsubr
        </CharString>
        <CharString name="grave.case">
          811 -2 callgsubr
          81 981 -92 callgsubr
        </CharString>
        <CharString name="greater">
          -13 169 -21 418 -20 hstem
          -17 callgsubr
          endchar
        </CharString>
        <CharString name="greaterequal">
          -13 -1 76 94 35 callgsubr
          -17 callgsubr
          hintmask 10000000
          -423 -320 rmoveto
          12 callgsubr
        </CharString>
        <CharString name="guillemotleft">
          -128 93 -21 414 -20 hstem
          247 118 rmoveto
          -63 callgsubr
          209 hmoveto
          -63 callgsubr
          endchar
        </CharString>
        <CharString name="guillemotright">
          -128 93 -21 414 -20 hstem
          259 118 rmoveto
          -63 callsubr
          -209 hmoveto
          -63 callsubr
          endchar
        </CharString>
        <CharString name="guilsinglleft">
          -337 93 -21 414 -20 hstem
          247 118 rmoveto
          -63 callgsubr
          endchar
        </CharString>
        <CharString name="guilsinglright">
          -337 93 -21 414 -20 hstem
          50 118 rmoveto
          -63 callsubr
          endchar
        </CharString>
        <CharString name="h">
          5 -16 68 -31 -21 432 78 272 -20 hstemhm
          108 91 231 90 hintmask 01111100
          108 111 rmoveto
          -42 callgsubr
          162 59 110 86 64 22 -36 -68 vhcurveto
          -238 vlineto
          hintmask 10111100
          -99 callgsubr
          242 29 callgsubr
          389 vlineto
          -101 callgsubr
          endchar
        </CharString>
        <CharString name="hungarumlaut">
          -103 590 -2 callgsubr
          63 604 -101 callsubr
          51 -156 -101 callsubr
          endchar
        </CharString>
        <CharString name="hungarumlaut.case">
          811 -2 callgsubr
          -65 825 -101 callsubr
          51 -156 -101 callsubr
          endchar
        </CharString>
        <CharString name="hyphen">
          -279 11 callgsubr
          296 4 callgsubr
          -263 -10 rlineto
          12 callsubr
        </CharString>
        <CharString name="i">
          -68 callsubr
        </CharString>
        <CharString name="iacute">
          -30 callsubr
          100 -21 191 -20 hstemhm
          108 90 hintmask 11001000
          199 478 rmoveto
          -101 callgsubr
          -310 vlineto
          -99 callgsubr
          hintmask 00110000
          -141 516 -101 callsubr
          endchar
        </CharString>
        <CharString name="icircumflex">
          -30 callsubr
          100 43 callgsubr
          hstemhm
          108 90 hintmask 11001000
          199 478 rmoveto
          -101 callgsubr
          -310 vlineto
          -99 callgsubr
          hintmask 00110000
          -55 667 -97 callsubr
        </CharString>
        <CharString name="idieresis">
          -30 callsubr
          124 17 callsubr
          108 90 hintmask 11001000
          199 478 rmoveto
          -101 callgsubr
          -310 vlineto
          -99 callgsubr
          hintmask 00110000
          -198 570 -105 callgsubr
        </CharString>
        <CharString name="igrave">
          -30 callsubr
          100 -21 191 -20 hstemhm
          108 90 hintmask 11001000
          199 478 rmoveto
          -101 callgsubr
          -310 vlineto
          -99 callgsubr
          hintmask 00110000
          -99 672 -92 callgsubr
        </CharString>
        <CharString name="infinity">
          208 172 72 226 72 hstem
          60 76 570 76 vstem
          136 357 rmoveto
          59 40 54 65 53 47 -31 -82 40 vhcurveto
          -82 -40 -47 -31 -53 hhcurveto
          -65 -40 54 59 hvcurveto
          570 hmoveto
          -59 -40 -54 -65 -53 -47 31 82 -40 vhcurveto
          82 40 47 31 53 hhcurveto
          65 40 -54 -59 hvcurveto
          -285 -64 rmoveto
          -75 45 59 -46 76 hhcurveto
          76 105 45 140 140 -105 45 -76 -76 -59 -46 -75 -45 hvcurveto
          75 -45 -59 46 -77 hhcurveto
          -75 -105 -45 -140 -140 105 -45 75 77 59 46 75 45 hvcurveto
          endchar
        </CharString>
        <CharString name="integral">
          -185 -188 48 917 48 hstem
          -30 87 123 89 123 87 cntrmask 00111000
          270 697 rmoveto
          47 25 33 35 35 27 -34 -46 vhcurveto
          -10 13 17 -7 16 hhcurveto
          25 16 19 27 54 -57 45 -69 -107 -66 -84 -136 hvcurveto
          -665 vlineto
          -47 -26 -33 -35 -35 -27 34 46 vhcurveto
          10 -13 -17 7 -16 hhcurveto
          -25 -16 -19 -27 -54 57 -45 69 107 66 84 136 hvcurveto
          endchar
        </CharString>
        <CharString name="j">
          -73 callgsubr
        </CharString>
        <CharString name="k">
          -50 -14 63 -28 -21 441 69 272 -20 hstemhm
          108 91 229 90 hintmask 10111100
          336 92 rmoveto
          -67 35 23 -39 63 hhcurveto
          37 37 18 45 33 hvcurveto
          -21 26 rlineto
          -15 -15 -20 -11 -18 hhcurveto
          -17 -14 6 22 -11 hvcurveto
          -78 148 rlineto
          96 11 52 74 69 vvcurveto
          68 -45 63 -93 -74 -74 -62 -87 -33 vhcurveto
          389 vlineto
          -101 callgsubr
          -563 vlineto
          -50 -8 -17 -34 -8 vhcurveto
          -21 -5 rlineto
          hintmask 01111100
          11 -31 rlineto
          175 hlineto
          12 15 -12 16 rlineto
          -25 33 -7 33 63 vvcurveto
          167 62 114 100 45 22 -33 -38 -48 -38 -55 -77 vhcurveto
          -41 -13 9 -10 hhcurveto
          -11 -4 -10 -9 -10 4 -7 15 -4 hvcurveto
          9 -3 rlineto
          endchar
        </CharString>
        <CharString name="l">
          -332 -14 68 728 -20 hstem
          98 90 vstem
          189 750 rmoveto
          -101 callgsubr
          -582 vlineto
          -99 callgsubr
          endchar
        </CharString>
        <CharString name="less">
          -13 169 -21 418 -20 hstem
          -14 callgsubr
          endchar
        </CharString>
        <CharString name="lessequal">
          -13 -1 76 94 35 callgsubr
          -14 callgsubr
          hintmask 10000000
          -396 vmoveto
          12 callgsubr
        </CharString>
        <CharString name="logicalnot">
          -13 189 -21 151 76 hstem
          454 68 vstem
          99 319 rmoveto
          355 -151 68 227 -423 hlineto
          endchar
        </CharString>
        <CharString name="lozenge">
          -36 -25 callgsubr
          50 359 rmoveto
          199 -359 rlineto
          102 hlineto
          197 359 -199 359 rlineto
          -102 hlineto
          35 -66 rmoveto
          174 -319 -141 -268 -174 319 rlineto
          endchar
        </CharString>
        <CharString name="lslash">
          -332 -14 68 211 -21 230 -20 328 -20 hstem
          98 90 vstem
          275 20 callgsubr
          -111 -55 1 331 rlineto
          -101 callgsubr
          -301 vlineto
          -79 -39 37 callgsubr
          103 51 rlineto
          -203 vlineto
          -99 callgsubr
          252 vlineto
          endchar
        </CharString>
        <CharString name="m">
          307 19 callsubr
          hstemhm
          113 91 219 90 219 90 hintmask 01101110
          204 160 rmoveto
          162 59 110 86 49 25 -34 -68 vhcurveto
          -330 122 vlineto
          12 15 rlineto
          -38 45 -6 36 64 vvcurveto
          12 vlineto
          155 3 58 105 84 hhcurveto
          49 25 -34 -68 hvcurveto
          -238 vlineto
          hintmask 10101110
          -75 22 -31 55 34 43 24 39 35 vhcurveto
          -19 26 rlineto
          -14 -18 -17 -6 callsubr
          -39 55 -89 -73 -74 -62 -87 -34 vhcurveto
          103 -7 -40 46 -81 hhcurveto
          -73 -74 -62 -87 -34 hvcurveto
          107 vlineto
          hintmask 01011110
          -70 callgsubr
          endchar
        </CharString>
        <CharString name="macron">
          -226 617 80 hstem
          325 617 10 callsubr
        </CharString>
        <CharString name="macron.case">
          838 80 hstem
          259 838 10 callsubr
        </CharString>
        <CharString name="minus">
          -13 319 76 hstem
          99 319 rmoveto
          12 callgsubr
        </CharString>
        <CharString name="mu">
          -20 -188 -21 195 67 445 -20 hstem
          96 89 236 90 vstem
          511 hmoveto
          498 vlineto
          -104 -13 -12 -13 12 -18 12 -19 1 -14 1 -12 rlinecurve
          -189 vlineto
          -98 -56 -69 -79 -66 -35 42 80 vhcurveto
          277 vlineto
          32 -7 14 -16 -41 -75 -21 -19 -24 vhcurveto
          -33 vlineto
          52 -11 rlineto
          17 -4 5 -9 -20 vvcurveto
          -495 vlineto
          -23 -3 -12 -11 -16 vhcurveto
          -12 -18 12 -13 103 -13 rlineto
          229 vlineto
          -24 25 31 -10 31 hhcurveto
          60 62 40 56 27 hvcurveto
          -66 25 -30 53 vhcurveto
          endchar
        </CharString>
        <CharString name="multiply">
          -13 179 -21 398 -20 hstem
          166 158 rmoveto
          144 145 145 -145 54 54 -145 145 145 145 -54 54 -145 -145 -144 145 -54 -54 144 -145 -144 -145 rlineto
          endchar
        </CharString>
        <CharString name="n">
          10 19 callsubr
          hstemhm
          113 91 231 90 hintmask 10101100
          -52 callgsubr
          hintmask 01011100
          -70 callgsubr
          endchar
        </CharString>
        <CharString name="nbspace">
          endchar
        </CharString>
        <CharString name="nine">
          12 -14 57 233 72 319 65 hstemhm
          77 113 -97 97 264 120 -106 106 hintmask 11110010
          321 732 rmoveto
          -163 -81 -127 -120 -107 66 -102 129 94 68 47 68 33 hvcurveto
          1 -17 0 -18 -19 vvcurveto
          -144 -42 -150 -135 -59 -42 34 55 vhcurveto
          41 25 23 9 vvcurveto
          8 -7 4 -15 vhcurveto
          hintmask 11101100
          -58 -42 -36 -55 -82 83 -58 116 192 90 157 197 214 -72 178 -181 hvcurveto
          -3 -384 rmoveto
          -81 -40 79 80 80 43 80 89 83 42 -81 -80 -79 -44 -79 -92 hvcurveto
          endchar
        </CharString>
        <CharString name="nineinferior">
          -216 -14 47 124 56 174 51 hstemhm
          61 84 123 101 -84 84 hintmask 11110100
          194 33 rmoveto
          -32 -23 17 28 hvcurveto
          23 15 13 8 vvcurveto
          9 -7 4 -16 -41 -29 -23 -37 -53 56 -36 77 120 55 95 120 106 -40 131 -122 -103 -52 -78 -74 -66 43 -63 83 49 34 20 37 24 vhcurveto
          -99 -21 -82 -70 vhcurveto
          hintmask 11111000
          74 263 rmoveto
          -53 -31 -30 -36 -33 -23 27 65 52 32 30 34 32 25 -27 -64 vhcurveto
          endchar
        </CharString>
        <CharString name="notequal">
          -13 21 -21 211 76 140 76 215 -20 hstem
          99 427 rmoveto
          204 hlineto
          -59 -140 rlineto
          -145 -76 114 hlineto
          -88 -211 rlineto
          71 hlineto
          88 211 rlineto
          238 76 -206 hlineto
          58 140 rlineto
          148 76 -116 hlineto
          90 215 rlineto
          -72 hlineto
          -90 -215 rlineto
          -235 hlineto
          endchar
        </CharString>
        <CharString name="ntilde">
          10 19 callsubr
          132 -10 callgsubr
          113 91 231 90 hintmask 1010000011000000
          -52 callgsubr
          hintmask 0101000011000000
          -70 callgsubr
          hintmask 0000110100000000
          246 563 -23 callsubr
          hintmask 0000111000000000
          -93 callgsubr
        </CharString>
        <CharString name="numbersign">
          62 21 -21 224 66 134 66 228 -20 hstem
          106 424 rmoveto
          99 hlineto
          -37 -134 rlineto
          -100 hlineto
          -18 -66 rlineto
          100 33 callgsubr
          179 33 callgsubr
          100 hlineto
          19 66 rlineto
          -100 hlineto
          37 134 rlineto
          100 hlineto
          19 66 rlineto
          -100 32 callsubr
          -178 32 callsubr
          -100 hlineto
          153 -66 rmoveto
          178 hlineto
          -37 -134 rlineto
          -178 hlineto
          endchar
        </CharString>
        <CharString name="o">
          -1 callsubr
          hstem
          -3 callsubr
          vstem
          -98 callsubr
          endchar
        </CharString>
        <CharString name="oacute">
          -1 callsubr
          80 -21 191 -20 hstemhm
          -3 callsubr
          hintmask 11001100
          -98 callsubr
          hintmask 00110000
          166 356 -101 callsubr
          endchar
        </CharString>
        <CharString name="ocircumflex">
          -1 callsubr
          80 43 callgsubr
          hstemhm
          -3 callsubr
          hintmask 11001100
          -98 callsubr
          hintmask 00110000
          233 507 -97 callsubr
        </CharString>
        <CharString name="odieresis">
          -1 callsubr
          104 17 callsubr
          -3 callsubr
          hintmask 11001100
          -98 callsubr
          hintmask 00110000
          90 410 -105 callgsubr
        </CharString>
        <CharString name="oe">
          280 -14 54 -54 66 142 56 208 52 -50 50 hstemhm
          -3 callsubr
          231 95 hintmask 01101111
          858 8 callsubr
          -40 -50 -18 -56 hhcurveto
          -96 -50 70 114 -2 hvcurveto
          12 vlineto
          4 vlineto
          135 2 51 73 83 hhcurveto
          63 32 -47 -49 -57 -42 -57 -85 hvcurveto
          -41 -13 13 -10 hhcurveto
          -8 -7 -11 -11 -35 82 -12 28 125 66 87 82 75 -55 72 -115 -89 -71 -34 -59 -45 hvcurveto
          59 -42 -68 34 -85 hhcurveto
          -150 -94 -101 -161 -160 94 -102 150 82 66 31 55 42 hvcurveto
          -55 40 63 -31 78 hhcurveto
          79 69 31 58 50 hvcurveto
          -430 170 rmoveto
          hintmask 10110111
          -123 -59 -82 -83 -84 -53 81 126 125 58 86 85 106 30 -132 -81 vhcurveto
          endchar
        </CharString>
        <CharString name="ogonek">
          -246 -295 66 280 -20 hstem
          24 80 vstem
          224 51 rmoveto
          -131 -87 -69 -64 -81 vvcurveto
          -73 54 -41 66 67 72 40 86 60 vhcurveto
          -34 31 rlineto
          -60 -44 -57 -31 -43 hhcurveto
          -35 -26 21 44 47 41 60 105 69 hvcurveto
          endchar
        </CharString>
        <CharString name="ograve">
          -1 callsubr
          80 -21 191 -20 hstemhm
          -3 callsubr
          hintmask 11001100
          -98 callsubr
          hintmask 00110000
          181 512 -92 callgsubr
        </CharString>
        <CharString name="one">
          -216 21 -21 734 -20 hstem
          192 99 vstem
          291 680 rmoveto
          26 17 -8 15 -13 17 -19 5 rlinecurve
          -277 -129 13 -28 25 -34 31 -6 rlinecurve
          123 78 rlineto
          -482 vlineto
          -62 -13 -13 -51 -13 vhcurveto
          -43 -11 12 -34 rlineto
          239 -38 callsubr
          42 81 vvcurveto
          endchar
        </CharString>
        <CharString name="onehalf">
          384 0 68 -47 -21 316 -21 102 47 274 -20 37 -20 hstemhm
          194 79 322 79 133 89 hintmask 0100100000000000
          345 -48 callgsubr
          hintmask 1001000110000000
          608 hmoveto
          -77 callsubr
          hintmask 0010011000000000
          -326 693 -88 callsubr
        </CharString>
        <CharString name="oneinferior">
          -315 21 31 callgsubr
          398 -88 callsubr
        </CharString>
        <CharString name="onequarter">
          384 21 -21 95 51 170 -21 141 -20 302 -20 37 -20 hstemhm
          194 79 507 80 hintmask 10001000
          365 -48 callgsubr
          hintmask 11010001
          601 -86 callsubr
          hintmask 00100110
          -588 598 -88 callsubr
        </CharString>
        <CharString name="onesuperior">
          -315 316 31 callgsubr
          693 -88 callsubr
        </CharString>
        <CharString name="ordfeminine">
          -236 361 55 106 40 127 42 hstem
          45 81 118 75 vstem
          244 558 rmoveto
          4 -21 -19 0 -14 hhcurveto
          -89 -56 -42 -68 -53 41 -38 56 44 37 20 33 22 hvcurveto
          -37 5 18 -16 35 hhcurveto
          26 32 19 29 27 hvcurveto
          -19 26 rlineto
          -10 -15 -13 -5 -8 hhcurveto
          -9 -5 5 12 hvcurveto
          165 vlineto
          89 -37 40 -86 -72 -61 -43 -52 -23 17 -15 22 14 14 5 10 12 vhcurveto
          50 18 26 36 32 16 -25 -49 vhcurveto
          -73 -199 rmoveto
          -29 -16 17 29 38 28 22 51 17 14 -1 -3 8 hvcurveto
          -60 -1 -29 -42 -43 hhcurveto
          endchar
        </CharString>
        <CharString name="ordmasculine">
          -199 361 47 278 45 hstem
          40 85 184 86 vstem
          125 546 rmoveto
          86 33 54 53 58 40 -60 -86 -81 -34 -51 -53 -56 -41 55 83 vhcurveto
          -85 hmoveto
          -14 callsubr
        </CharString>
        <CharString name="oslash">
          -56 -68 15 39 54 418 52 40 15 hstem
          -3 callsubr
          vstem
          206 -68 rmoveto
          21 60 rlineto
          -4 20 20 -2 22 hhcurveto
          149 95 102 160 115 -48 84 -82 39 hvcurveto
          28 79 rlineto
          -54 hlineto
          -22 -62 rlineto
          5 -21 -22 2 -23 hhcurveto
          -150 -94 -101 -161 -117 49 -86 85 -38 hvcurveto
          -26 -75 rlineto
          -4 315 rmoveto
          125 58 86 85 16 15 -4 -5 13 vhcurveto
          -133 -375 rlineto
          -34 35 -20 61 77 vvcurveto
          279 -2 rmoveto
          -123 -59 -82 -83 -14 -13 2 4 -12 vhcurveto
          131 370 rlineto
          38 -45 12 -74 -52 vvcurveto
          endchar
        </CharString>
        <CharString name="otilde">
          -1 callsubr
          102 -10 callgsubr
          -3 callsubr
          hintmask 11000011
          -98 callsubr
          hintmask 00110100
          375 475 -23 callsubr
          hintmask 00111000
          -93 callgsubr
        </CharString>
        <CharString name="p">
          -39 -19 callsubr
          -12 -20 hstemhm
          103 90 251 106 hintmask 11001110
          193 452 rmoveto
          -52 callsubr
          -487 vlineto
          -58 callsubr
          560 vlineto
          hintmask 11010110
          27 35 35 12 42 hhcurveto
          82 26 callsubr
          -80 hvcurveto
          hintmask 10110110
          -36 callgsubr
        </CharString>
        <CharString name="paragraph">
          -18 -202 45 833 30 -30 56 hstemhm
          67 77 13 93 148 92 -66 66 hintmask 11011100
          306 -202 rmoveto
          137 47 96 86 hvcurveto
          656 vlineto
          17 6 10 7 12 vhcurveto
          12 18 rlineto
          hintmask 10111010
          -11 13 rlineto
          5 -68 -72 21 -86 hhcurveto
          -123 -88 -76 -115 -68 30 -83 74 -86 hvcurveto
          160 -185 rlineto
          72 -83 21 -48 -47 vvcurveto
          -63 -44 -35 -54 -43 -33 28 43 vhcurveto
          56 24 17 9 vvcurveto
          8 -6 3 -13 -56 -42 -40 -58 -65 62 -46 87 vhcurveto
          92 382 rmoveto
          -154 178 rlineto
          -74 86 -26 71 52 vvcurveto
          72 53 37 52 102 47 -72 -107 vhcurveto
          endchar
        </CharString>
        <CharString name="parenleft">
          -282 13 callgsubr
          58 108 vstem
          166 331 rmoveto
          201 65 138 90 59 vhcurveto
          45 vlineto
          -166 -69 -97 -148 -226 vvcurveto
          -226 97 -148 166 -69 vhcurveto
          45 vlineto
          -90 59 -65 137 202 vvcurveto
          endchar
        </CharString>
        <CharString name="parenright">
          -282 13 callgsubr
          186 108 vstem
          186 331 rmoveto
          -202 -65 -137 -90 -59 vhcurveto
          -45 vlineto
          166 69 97 148 226 vvcurveto
          226 -97 148 -166 69 vhcurveto
          -45 vlineto
          90 -59 65 -138 -201 vvcurveto
          endchar
        </CharString>
        <CharString name="partialdiff">
          -79 -14 54 398 52 296 -20 hstem
          34 100 279 104 vstem
          34 188 rmoveto
          -125 76 -77 129 198 80 173 163 162 -62 219 -260 83 vhcurveto
          -21 -46 134 -60 74 -97 27 -126 rlinecurve
          23 -28 -35 10 -37 hhcurveto
          -173 -102 -151 -151 hvcurveto
          260 250 rmoveto
          73 46 -65 -97 -143 -74 -93 -87 -72 -46 59 94 98 46 147 114 hvcurveto
          endchar
        </CharString>
        <CharString name="percent">
          384 -14 47 -12 -21 279 47 65 47 246 47 -13 -20 hstemhm
          50 84 190 85 200 84 190 85 hintmask 0100010000000000
          395 -48 callgsubr
          hintmask 1001000011000000
          285 213 -95 callsubr
          hintmask 0010101100000000
          -643 294 -95 callsubr
          endchar
        </CharString>
        <CharString name="period">
          -443 7 -19 callgsubr
          hstem
          33 51 -47 callsubr
        </CharString>
        <CharString name="periodcentered">
          -443 277 -19 callgsubr
          hstem
          33 321 -47 callsubr
        </CharString>
        <CharString name="perthousand">
          784 -14 47 -12 -21 279 47 65 47 246 47 -13 -20 hstemhm
          50 84 190 85 200 84 190 85 41 84 190 85 hintmask 0100010000000000
          395 -48 callgsubr
          hintmask 1001000011000000
          285 213 -95 callsubr
          hintmask 0010101100000000
          -643 294 -95 callsubr
          hintmask 1001000000110000
          875 -292 -95 callsubr
          endchar
        </CharString>
        <CharString name="pi">
          2 -14 60 -25 -21 423 74 hstemhm
          hintmask 01100000
          130 423 rmoveto
          44 hlineto
          -55 -306 -8 -44 -5 -13 -31 -13 rlinecurve
          -33 -14 -6 -33 rlineto
          169 hlineto
          15 15 -7 16 rlineto
          -7 16 -3 14 21 vvcurveto
          17 2 21 5 28 vhcurveto
          49 275 rlineto
          168 hlineto
          -55 -313 rlineto
          -4 -21 -2 -18 -16 vvcurveto
          hintmask 10100000
          -43 16 -26 51 34 43 13 34 57 vhcurveto
          -10 35 rlineto
          -16 -33 -23 -6 -15 hhcurveto
          -21 -6 13 18 8 16 103 39 212 hvcurveto
          4 21 14 11 32 5 54 8 rcurveline
          8 52 rlineto
          -441 hlineto
          -75 -27 -12 -138 -65 hvcurveto
          -15 3 19 -5 17 hhcurveto
          endchar
        </CharString>
        <CharString name="plus">
          -13 167 -21 173 76 174 -20 hstem
          273 75 vstem
          -6 callgsubr
          endchar
        </CharString>
        <CharString name="plusminus">
          -13 -1 76 92 -21 173 76 174 -20 hstemhm
          273 75 hintmask 01111000
          -6 callgsubr
          hintmask 10000000
          -396 vmoveto
          12 callgsubr
        </CharString>
        <CharString name="product">
          46 -79 -21 849 63 hstem
          103 89 297 89 vstem
          578 -100 rmoveto
          849 88 63 -651 -63 88 -849 89 849 297 -849 vlineto
          endchar
        </CharString>
        <CharString name="q">
          -45 -245 -21 252 77 392 55 hstem
          45 105 251 91 vstem
          492 415 rmoveto
          17 6 10 7 -54 callgsubr
          -72 20 -62 hhcurveto
          -159 -100 -108 -173 -162 85 -81 94 62 57 25 81 58 hvcurveto
          -238 vlineto
          -44 -11 -15 -31 -14 vhcurveto
          -31 -14 rlineto
          -33 186 vlineto
          12 15 -10 16 rlineto
          -19 27 -5 27 63 vvcurveto
          -342 366 rmoveto
          131 56 76 97 33 34 -10 -21 31 vhcurveto
          -270 vlineto
          -63 -37 -49 -28 -51 hhcurveto
          -59 -55 49 136 hvcurveto
          endchar
        </CharString>
        <CharString name="question">
          -96 7 -21 716 57 hstem
          51 93 216 114 vstem
          172 -29 callgsubr
          161 292 rmoveto
          88 84 53 81 76 vvcurveto
          113 -97 62 -115 -123 -88 -57 -82 -58 41 -40 57 13 6 3 8 vhcurveto
          9 -24 17 56 vvcurveto
          53 37 34 57 72 50 -41 -83 -68 -21 -80 -174 -152 vhcurveto
          61 -62 rlineto
          19 hlineto
          5 19 12 40 25 25 46 43 rlinecurve
          endchar
        </CharString>
        <CharString name="questiondown">
          -96 -262 57 695 21 hstem
          64 114 216 93 vstem
          366 3 callgsubr
          -161 -292 rmoveto
          -88 -84 -53 -81 -76 vvcurveto
          -113 97 -62 115 123 88 57 82 58 -41 40 -57 -13 -6 -3 -8 vhcurveto
          -9 24 -17 -56 vvcurveto
          -53 -37 -34 -57 -72 -50 41 83 68 21 80 174 152 vhcurveto
          -61 62 rlineto
          -19 hlineto
          -5 -19 -12 -40 -25 -25 -46 -43 rlinecurve
          endchar
        </CharString>
        <CharString name="quotedbl">
          -291 593 -21 262 -20 hstem
          89 834 rmoveto
          -57 callsubr
          165 hmoveto
          -57 callsubr
          endchar
        </CharString>
        <CharString name="quotedblbase">
          -289 -101 -21 242 -20 hstemhm
          19 101 -95 callgsubr
          hintmask 11000000
          137 -7 -95 callgsubr
          endchar
        </CharString>
        <CharString name="quotedblleft">
          -255 524 20 201 21 hstemhm
          172 543 -65 callsubr
          hintmask 11000000
          171 7 -65 callsubr
          endchar
        </CharString>
        <CharString name="quotedblright">
          -255 543 -21 242 -20 hstemhm
          53 745 -95 callgsubr
          hintmask 11000000
          137 -7 -95 callgsubr
          endchar
        </CharString>
        <CharString name="quoteleft">
          -409 524 20 201 21 hstem
          172 543 -65 callsubr
          endchar
        </CharString>
        <CharString name="quoteright">
          -409 543 -21 242 -20 hstem
          53 745 -95 callgsubr
          endchar
        </CharString>
        <CharString name="quotesinglbase">
          -443 -102 -21 242 -20 hstem
          19 100 -95 callgsubr
          endchar
        </CharString>
        <CharString name="quotesingle">
          -456 593 -21 262 -20 hstem
          89 834 rmoveto
          -57 callsubr
          endchar
        </CharString>
        <CharString name="r">
          -197 21 -21 437 63 10 -20 hstemhm
          113 91 144 89 hintmask 11011000
          204 468 rmoveto
          -66 callsubr
          33 -8 32 60 vvcurveto
          210 69 71 42 19 14 -15 -24 vhcurveto
          -37 -28 -23 -9 vvcurveto
          -8 6 -3 13 57 41 39 51 vhcurveto
          hintmask 10111000
          64 -42 38 -55 -56 -51 -60 -89 -23 vhcurveto
          -6 hlineto
          endchar
        </CharString>
        <CharString name="radical">
          -48 -79 -21 850 61 hstem
          456 811 rmoveto
          -196 -817 -131 390 -168 -67 19 -48 80 32 139 -401 rlineto
          107 hlineto
          208 850 rlineto
          122 61 hlineto
          endchar
        </CharString>
        <CharString name="registered">
          144 209 26 233 37 151 40 65 26 hstem
          276 65 110 68 vstem
          452 358 rmoveto
          4 -8 3 -5 -5 vvcurveto
          -6 -2 -5 -3 -7 vhcurveto
          -4 -7 9 -10 rlineto
          87 hlineto
          9 7 4 12 11 vvcurveto
          -31 11 -61 113 -3 7 -9 9 -8 8 rlinecurve
          50 21 22 43 43 vvcurveto
          58 -39 48 -112 vhcurveto
          -110 hlineto
          -10 -7 -5 -14 -11 vvcurveto
          33 -12 rlineto
          -294 vlineto
          -9 -3 -4 -6 -3 vhcurveto
          -24 -13 rlineto
          -24 116 vlineto
          10 8 5 13 12 vvcurveto
          -33 11 rlineto
          119 29 vlineto
          20 8 -6 -14 7 hvcurveto
          -64 192 rmoveto
          15 16 1 11 61 22 -31 -39 -44 -22 -37 -58 vhcurveto
          -30 hlineto
          -215 -7 -58 callgsubr
        </CharString>
        <CharString name="ring">
          -317 552 48 116 49 hstem
          45 70 86 71 vstem
          115 658 -77 callgsubr
        </CharString>
        <CharString name="ring.case">
          773 48 116 49 hstem
          24 70 86 71 vstem
          94 879 -77 callgsubr
        </CharString>
        <CharString name="s">
          -79 callgsubr
        </CharString>
        <CharString name="scaron">
          -171 -14 49 427 48 89 43 callgsubr
          39 callsubr
          hintmask 11001001
          241 35 rmoveto
          -42 -53 25 61 hvcurveto
          33 12 15 8 vvcurveto
          9 -11 3 -10 -49 -34 -33 -45 -77 75 -48 99 120 78 59 91 81 -83 36 -73 30 vhcurveto
          -61 25 -56 26 55 vvcurveto
          42 32 31 56 vhcurveto
          hintmask 11000110
          37 45 -20 -53 hvcurveto
          -31 -15 -14 -11 vvcurveto
          -8 6 -5 15 49 35 37 50 64 -72 39 -93 -104 -78 -54 -81 -96 87 -38 73 -30 vhcurveto
          hintmask 11001001
          56 -24 53 -24 -47 vvcurveto
          -48 -39 -33 -55 vhcurveto
          hintmask 00110000
          4 543 -84 callgsubr
        </CharString>
        <CharString name="section">
          -195 -256 45 897 45 hstemhm
          34 104 -66 66 174 55 -55 93 hintmask 11010100
          236 686 rmoveto
          43 33 -28 -43 hvcurveto
          -55 callsubr
          56 42 14 callgsubr
          -137 -47 -96 -86 -57 30 -69 56 -67 vhcurveto
          154 -185 rlineto
          5 17 2 17 17 vvcurveto
          57 -32 65 -56 66 vhcurveto
          -70 84 -23 47 47 vvcurveto
          63 44 35 54 vhcurveto
          -33 -897 rmoveto
          -43 -33 28 43 hvcurveto
          56 24 17 9 vvcurveto
          8 -6 3 -13 vhcurveto
          hintmask 11101000
          -56 -42 -40 -58 -65 62 -46 87 137 47 96 86 57 -30 69 -56 67 hvcurveto
          -154 185 rlineto
          -5 -17 -2 -17 -17 vvcurveto
          -57 32 -65 56 -66 vhcurveto
          70 -84 23 -47 -47 vvcurveto
          -63 -44 -35 -54 vhcurveto
          endchar
        </CharString>
        <CharString name="semicolon">
          -443 -102 -21 242 -20 268 17 callsubr
          hintmask 11000000
          19 100 -95 callgsubr
          hintmask 00110000
          -3 304 -47 callsubr
        </CharString>
        <CharString name="seven">
          -138 -25 callgsubr
          487 718 rmoveto
          -485 hlineto
          -31 8 -39 26 -21 vhcurveto
          345 hlineto
          -190 -488 -24 -61 -23 -23 -53 -15 rlinecurve
          -87 callsubr
          184 hlineto
          19 16 -9 18 rlineto
          -10 19 -4 20 22 vvcurveto
          28 6 33 17 44 vhcurveto
          endchar
        </CharString>
        <CharString name="seveninferior">
          -306 21 -21 369 67 hstem
          317 436 rmoveto
          -310 hlineto
          -23 5 -28 21 -16 vhcurveto
          194 hlineto
          -108 -278 -12 -32 -15 -14 -25 -8 rlinecurve
          -22 -7 11 -30 rlineto
          121 hlineto
          19 15 rlineto
          -9 9 -7 21 18 vvcurveto
          14 4 21 9 24 vhcurveto
          endchar
        </CharString>
        <CharString name="six">
          12 -14 63 302 68 256 57 hstemhm
          58 108 -108 147 258 98 -98 111 hintmask 11110100
          360 675 rmoveto
          62 41 -38 -63 hvcurveto
          -47 -30 -25 -10 vvcurveto
          -8 6 -4 15 61 46 48 69 79 -82 56 -116 -205 -100 -184 -220 -184 92 -158 185 vhcurveto
          hintmask 11110010
          159 80 105 127 112 -66 89 -137 -111 -68 -59 -81 -25 hvcurveto
          -1 15 0 16 16 vvcurveto
          157 47 192 147 vhcurveto
          -25 -324 rmoveto
          82 36 -67 -81 -88 -45 -66 -87 hvcurveto
          hintmask 11101100
          -83 -33 65 81 82 44 74 86 hvcurveto
          endchar
        </CharString>
        <CharString name="sixinferior">
          -216 -14 50 165 53 137 47 hstemhm
          40 86 -86 108 131 79 hintmask 11110100
          229 391 rmoveto
          29 21 -19 -34 hvcurveto
          -29 -18 -9 -10 vvcurveto
          -10 6 -4 17 42 32 32 44 51 -54 35 -73 -128 -63 -111 -133 -113 58 -95 116 100 51 65 78 70 -42 55 -87 -51 -38 -24 -37 -21 vhcurveto
          103 28 95 75 vhcurveto
          -15 -190 rmoveto
          40 19 -37 -43 -49 -23 -36 -44 hvcurveto
          hintmask 11101100
          -41 -17 35 45 44 22 41 44 hvcurveto
          endchar
        </CharString>
        <CharString name="slash">
          -263 -42 -21 844 -20 hstem
          71 -63 rmoveto
          300 844 rlineto
          -72 hlineto
          -299 -844 rlineto
          endchar
        </CharString>
        <CharString name="space">
          endchar
        </CharString>
        <CharString name="sterling">
          -38 21 -21 302 63 311 56 hstemhm
          99 106 -58 83 214 98 hintmask 11110100
          341 676 rmoveto
          9 callsubr
          92 -99 45 -103 -171 -70 -95 -126 -45 15 -50 13 -51 vhcurveto
          -74 hlineto
          -26 callsubr
          112 hlineto
          hintmask 11101100
          3 -19 2 -18 -18 vvcurveto
          -71 -43 -83 -73 -50 vhcurveto
          25 -43 rlineto
          466 hlineto
          26 21 8 39 31 vvcurveto
          -397 hlineto
          49 64 22 76 71 vvcurveto
          188 hlineto
          -9 callsubr
          -217 hlineto
          hintmask 11110100
          -8 44 -11 43 44 vvcurveto
          155 72 25 64 vhcurveto
          endchar
        </CharString>
        <CharString name="summation">
          -114 -100 78 771 63 hstem
          20 -39 rmoveto
          63 -61 rlineto
          438 78 -385 hlineto
          262 378 -248 393 rlineto
          370 63 -481 -39 hlineto
          260 -411 rlineto
          endchar
        </CharString>
        <CharString name="t">
          -293 -14 69 379 63 135 -20 hstem
          99 91 vstem
          190 632 rmoveto
          -39 -4 -3 -21 -4 hvcurveto
          -11 -56 -19 -51 -78 -20 rrcurveto
          -21 -5 -3 -6 -37 callsubr
          hlineto
          endchar
        </CharString>
        <CharString name="thorn">
          -39 -19 callsubr
          272 -20 hstemhm
          103 90 251 106 hintmask 11011110
          193 736 rmoveto
          -52 callsubr
          -771 vlineto
          -58 callsubr
          560 vlineto
          27 35 35 12 42 hhcurveto
          82 26 callsubr
          -80 hvcurveto
          hintmask 10111110
          -36 callgsubr
        </CharString>
        <CharString name="three">
          -38 -14 63 628 55 hstemhm
          57 98 -79 98 237 109 -88 109 hintmask 11100100
          289 -14 rmoveto
          152 100 70 128 90 -56 77 -113 25 hvcurveto
          hintmask 11011000
          92 35 56 59 89 vvcurveto
          116 -119 57 -114 -108 -103 -50 -101 -63 46 -43 61 14 7 3 9 vhcurveto
          9 -30 24 53 vvcurveto
          69 54 35 57 62 64 -41 -83 -55 -19 -84 -171 -32 vhcurveto
          -52 -10 -3 -7 -16 vvcurveto
          -10 4 -8 10 vhcurveto
          8 25 10 48 hhcurveto
          hintmask 11100100
          149 22 -97 -54 -97 -74 -44 -72 -7 callsubr
          vhcurveto
          endchar
        </CharString>
        <CharString name="threeinferior">
          -246 -14 9 callgsubr
          -14 5 callgsubr
          hintmask 11011000
          -85 callgsubr
          hintmask 11100100
          -61 callgsubr
        </CharString>
        <CharString name="threequarters">
          384 21 -21 95 51 135 50 105 -20 270 46 -14 -20 hstemhm
          71 91 -79 79 118 86 -74 86 402 80 hintmask 1000010000000000
          395 -48 callgsubr
          hintmask 1101000000100000
          571 -86 callsubr
          hintmask 0010101001000000
          -643 186 5 callgsubr
          hintmask 0010100110000000
          -85 callgsubr
          hintmask 0010101001000000
          -61 callgsubr
        </CharString>
        <CharString name="threesuperior">
          -246 281 9 callgsubr
          281 5 callgsubr
          hintmask 11011000
          -85 callgsubr
          hintmask 11100100
          -61 callgsubr
        </CharString>
        <CharString name="tilde">
          -226 612 -10 callgsubr
          hintmask 11010000
          332 723 -23 callsubr
          hintmask 11100000
          -93 callgsubr
        </CharString>
        <CharString name="tilde.case">
          833 -21 39 54 39 -20 hstem
          266 944 rmoveto
          -28 -29 -22 -11 -17 -93 callgsubr
        </CharString>
        <CharString name="trademark">
          448 305 -21 393 41 16 -20 hstemhm
          243 71 216 53 280 71 hintmask 10111100
          417 604 rmoveto
          14 17 4 12 7 hvcurveto
          103 vlineto
          -12 11 rlineto
          hintmask 11011100
          -13 -27 -15 -3 -23 hhcurveto
          -200 hlineto
          hintmask 10111100
          -25 -11 2 14 -29 hvcurveto
          -13 -11 rlineto
          -103 vlineto
          -12 7 19 -4 13 hhcurveto
          hintmask 11011100
          15 73 rlineto
          89 -335 hlineto
          -10 -1 -4 -9 -3 vhcurveto
          -45 -14 rlineto
          -27 171 vlineto
          10 9 4 15 12 vvcurveto
          -59 13 rlineto
          344 88 vlineto
          564 -393 rmoveto
          11 8 5 15 13 vvcurveto
          -48 13 rlineto
          325 vlineto
          9 4 7 6 2 vhcurveto
          38 14 rlineto
          28 -118 vlineto
          -45 -97 -43 -99 -45 -97 -129 293 rcurveline
          -104 hlineto
          -11 -8 -5 -15 -12 vvcurveto
          48 -14 rlineto
          -327 vlineto
          -10 -4 -5 -6 -2 vhcurveto
          -39 -14 rlineto
          -27 139 vlineto
          11 8 5 15 13 vvcurveto
          -53 13 rlineto
          258 vlineto
          120 -264 rlineto
          39 hlineto
          121 267 rlineto
          -252 vlineto
          -9 -2 -6 -7 -2 vhcurveto
          -39 -14 rlineto
          -27 vlineto
          endchar
        </CharString>
        <CharString name="two">
          -38 21 -21 676 56 hstem
          61 98 263 115 vstem
          522 hmoveto
          26 21 8 39 31 vvcurveto
          -379 hlineto
          189 153 171 158 143 vvcurveto
          121 -97 66 -147 -118 -114 -58 -117 -63 46 -43 61 14 7 0 12 vhcurveto
          9 -30 24 53 vvcurveto
          84 66 43 67 65 65 -42 -88 -122 -59 -106 -326 -267 vhcurveto
          27 -51 rlineto
          endchar
        </CharString>
        <CharString name="twoinferior">
          -246 0 25 callsubr
          hmoveto
          -77 callsubr
          endchar
        </CharString>
        <CharString name="twosuperior">
          -246 288 25 callsubr
          288 rmoveto
          -77 callsubr
          endchar
        </CharString>
        <CharString name="u">
          -2 -14 67 457 -20 hstem
          103 91 238 83 vstem
          -100 callsubr
          endchar
        </CharString>
        <CharString name="uacute">
          -20 -14 67 457 -20 100 -21 191 -20 hstemhm
          103 91 238 83 hintmask 11001100
          -100 callsubr
          hintmask 00110000
          -279 516 -101 callsubr
          endchar
        </CharString>
        <CharString name="ucircumflex">
          -20 -14 67 457 -20 100 43 callgsubr
          hstemhm
          103 91 238 83 hintmask 11001100
          -100 callsubr
          hintmask 00110000
          -221 667 -97 callsubr
        </CharString>
        <CharString name="udieresis">
          -20 -14 67 457 -20 124 17 callsubr
          103 91 238 83 hintmask 11001100
          -100 callsubr
          hintmask 00110000
          -365 570 -105 callgsubr
        </CharString>
        <CharString name="ugrave">
          -20 -14 67 457 -20 100 -21 191 -20 hstemhm
          103 91 238 83 hintmask 11001100
          -100 callsubr
          hintmask 00110000
          -274 672 -92 callgsubr
        </CharString>
        <CharString name="underscore">
          -279 -84 70 hstem
          355 -84 rmoveto
          20 15 6 31 24 vvcurveto
          -381 hlineto
          12 callsubr
        </CharString>
        <CharString name="uni0401">
          -56 callsubr
          103 -21 131 -32 callsubr
          hintmask 11111001
          -107 callsubr
          hintmask 00000110
          -64 543 -105 callgsubr
        </CharString>
        <CharString name="uni0402">
          155 -14 64 -64 80 318 73 204 57 34 -20 hstemhm
          248 99 272 90 hintmask 10111110
          709 299 rmoveto
          -74 callgsubr
          182 vlineto
          32 callgsubr
          -134 -15 callsubr
          endchar
        </CharString>
        <CharString name="uni0403">
          36 callgsubr
          34 -20 79 -21 191 -20 hstemhm
          103 99 hintmask 11100100
          58 718 rmoveto
          -69 callsubr
          55 -99 callsubr
          hintmask 00011000
          -136 107 -101 callsubr
          endchar
        </CharString>
        <CharString name="uni0404">
          -17 -14 69 267 63 291 56 hstem
          35 113 337 98 vstem
          358 732 rmoveto
          17 callgsubr
          -205 104 -167 216 106 75 50 77 52 hvcurveto
          2 3 1 3 2 vvcurveto
          13 -20 15 -12 -3 -2 -1 -3 -2 vhcurveto
          -55 -38 -62 -35 -88 hhcurveto
          -124 -80 117 150 -11 hvcurveto
          289 hlineto
          -9 callsubr
          -313 hlineto
          142 6 56 149 148 hhcurveto
          -83 callgsubr
          vhcurveto
          endchar
        </CharString>
        <CharString name="uni0405">
          -79 callsubr
        </CharString>
        <CharString name="uni0406">
          16 callsubr
          hstem
          127 99 vstem
          297 hmoveto
          11 32 -21 6 rlineto
          -48 14 -13 15 59 vvcurveto
          391 -104 callgsubr
          endchar
        </CharString>
        <CharString name="uni0407">
          16 callsubr
          137 -21 131 -32 callsubr
          hintmask 11001000
          297 hmoveto
          11 32 -21 6 rlineto
          -48 14 -13 15 59 vvcurveto
          391 -104 callgsubr
          hintmask 00110000
          -32 879 -105 callgsubr
        </CharString>
        <CharString name="uni0408">
          -66 callgsubr
        </CharString>
        <CharString name="uni0409">
          346 0 52 -45 -21 383 50 242 57 hstemhm
          187 75 209 99 261 104 hintmask 01111110
          570 -67 callsubr
          -484 26 callgsubr
          6 -7 -66 vvcurveto
          -273 -16 -247 -72 -26 -12 27 26 -6 vhcurveto
          23 -5 -3 23 -16 hhcurveto
          -31 -21 -44 -44 -66 48 -34 55 73 107 31 604 34 26 6 36 hvcurveto
          83 hlineto
          52 12 24 callgsubr
          rlineto
          hintmask 10111110
          -43 callgsubr
        </CharString>
        <CharString name="uni040A">
          428 0 52 282 61 -26 50 299 -32 callsubr
          327 99 261 104 hintmask 11011110
          652 -18 callsubr
          -190 -327 122 -104 callgsubr
          245 hlineto
          11 32 -21 6 rlineto
          -48 14 -13 15 59 vvcurveto
          208 327 -201 28 callsubr
          279 hlineto
          190 70 88 122 hvcurveto
          hintmask 10111110
          112 -93 97 -153 -49 -48 -9 -26 -12 4 -10 10 vhcurveto
          11 14 7 41 hhcurveto
          96 63 -68 -86 -95 -54 -68 -96 -20 callgsubr
          endchar
        </CharString>
        <CharString name="uni040B">
          155 6 -21 399 73 204 35 callsubr
          272 90 vstem
          347 315 rmoveto
          32 callgsubr
          -288 vlineto
          120 14 13 17 -13 17 rlineto
          -24 31 -6 29 81 vvcurveto
          125 vlineto
          -74 callgsubr
          endchar
        </CharString>
        <CharString name="uni040C">
          34 811 -2 callgsubr
          275 825 -101 callsubr
          endchar
        </CharString>
        <CharString name="uni040E">
          -9 38 callsubr
          103 43 121 -20 hstemhm
          53 92 21 84 180 83 hintmask 11001000
          -80 callsubr
          hintmask 00110110
          -281 117 -85 callsubr
        </CharString>
        <CharString name="uni040F">
          115 -155 -21 176 -11 callsubr
          297 99 vstem
          183 hmoveto
          134 35 -17 -136 35 -44 callgsubr
          164 266 vlineto
          11 32 -21 6 rlineto
          -48 14 -13 15 59 vvcurveto
          391 -64 callgsubr
          -23 -6 12 -34 rlineto
          endchar
        </CharString>
        <CharString name="uni0410">
          -5 callsubr
          hstemhm
          hintmask 11100000
          -106 callgsubr
          endchar
        </CharString>
        <CharString name="uni0411">
          17 0 52 317 50 242 57 34 -20 hstem
          132 99 261 104 vstem
          342 52 rmoveto
          -20 callgsubr
          402 vlineto
          -96 callgsubr
          -306 -59 callsubr
          -384 vlineto
          -62 -14 -16 -50 -15 vhcurveto
          -23 -6 -35 callgsubr
          hvcurveto
          endchar
        </CharString>
        <CharString name="uni0412">
          17 0 52 289 46 288 56 -55 39 callgsubr
          hintmask 11101100
          559 535 rmoveto
          hintmask 11011010
          -34 callgsubr
          27 callsubr
          hintmask 11101100
          40 callsubr
          hintmask 11011100
          -27 callsubr
          hintmask 11101010
          19 callgsubr
        </CharString>
        <CharString name="uni0413">
          36 callgsubr
          34 -20 hstem
          103 99 vstem
          58 718 rmoveto
          -69 callsubr
          55 -99 callsubr
          endchar
        </CharString>
        <CharString name="uni0414">
          69 -172 -21 193 57 604 57 hstem
          177 79 221 99 vstem
          576 -67 callsubr
          -519 26 callgsubr
          25 -17 -56 vvcurveto
          -326 -13 -202 -142 -24 vhcurveto
          -224 vlineto
          34 -12 6 23 rlineto
          106 28 31 64 90 hhcurveto
          285 2 callsubr
          -416 -48 rmoveto
          65 56 31 183 325 vvcurveto
          34 26 6 36 vhcurveto
          95 20 callsubr
          -62 -12 -14 -52 vhcurveto
          endchar
        </CharString>
        <CharString name="uni0415">
          -56 callsubr
          hstemhm
          127 99 vstemhm
          hintmask 11111100
          -107 callsubr
          endchar
        </CharString>
        <CharString name="uni0416">
          316 -14 55 677 -20 hstem
          425 99 vstem
          595 hmoveto
          11 32 -21 6 rlineto
          -48 14 -13 15 59 vvcurveto
          391 -104 callgsubr
          -129 583 rmoveto
          -18 28 -3 12 16 vvcurveto
          16 8 18 5 11 vhcurveto
          9 18 -19 16 rlineto
          -181 -93 callsubr
          29 -8 25 -11 24 -35 rlinecurve
          179 -260 -25 -12 -25 -20 -18 -33 rlinecurve
          -128 -227 rlineto
          -18 -10 -10 -13 -18 hhcurveto
          -13 -12 4 10 -14 hvcurveto
          -17 -29 rlineto
          -28 29 32 -12 31 hhcurveto
          63 37 36 61 34 hvcurveto
          119 218 15 26 11 8 25 11 rlinecurve
          4 2 1 4 5 vvcurveto
          9 -3 15 -17 -8 -8 0 -1 -9 vhcurveto
          372 -81 rmoveto
          -19 33 -24 20 -26 12 180 260 rcurveline
          24 35 25 11 29 8 23 6 rcurveline
          -12 34 rlineto
          -181 hlineto
          -19 -16 9 -18 rlineto
          5 -11 8 -18 -16 vvcurveto
          -16 -3 -12 -18 -28 vhcurveto
          -136 -203 rlineto
          1 -8 -8 0 -8 hhcurveto
          -17 -3 -15 -9 -5 1 -4 4 -2 hvcurveto
          25 -11 11 -8 15 -26 119 -218 rcurveline
          -61 34 37 -36 63 hhcurveto
          31 32 12 28 29 hvcurveto
          -17 29 rlineto
          -10 -14 -12 -4 -13 hhcurveto
          -18 -10 13 18 -10 hvcurveto
          endchar
        </CharString>
        <CharString name="uni0417">
          -50 -14 58 631 43 -43 57 10 -20 hstemhm
          45 98 256 109 -79 109 hintmask 11101100
          90 742 rmoveto
          -16 -13 rlineto
          -198 vlineto
          34 -12 6 23 rlineto
          109 28 51 24 63 hhcurveto
          71 72 -41 -83 -55 -18 -72 -122 -30 hvcurveto
          -41 -10 -17 -5 -20 vvcurveto
          -13 4 -7 8 vhcurveto
          10 17 6 31 hhcurveto
          hintmask 11011010
          135 23 -100 -55 -100 -79 -46 -76 -8 callsubr
          157 104 70 128 90 -59 77 -119 25 vhcurveto
          hintmask 10101100
          92 35 56 57 89 vvcurveto
          117 -117 58 -113 vhcurveto
          hintmask 11011100
          34 callgsubr
          endchar
        </CharString>
        <CharString name="uni0418">
          155 -25 callgsubr
          127 99 337 99 vstem
          -81 callgsubr
          endchar
        </CharString>
        <CharString name="uni0419">
          155 -46 callsubr
          103 43 121 -32 callsubr
          12 84 180 83 -22 99 hintmask 11001001
          -81 callgsubr
          hintmask 00110110
          -152 260 -85 callsubr
        </CharString>
        <CharString name="uni041A">
          -90 callgsubr
        </CharString>
        <CharString name="uni041B">
          63 7 -21 675 57 hstem
          187 75 209 99 vstem
          628 702 rmoveto
          -56 callgsubr
          -484 26 callgsubr
          6 -7 -66 vvcurveto
          -273 -16 -247 -72 -26 -12 27 26 -6 vhcurveto
          23 -5 -3 23 -16 hhcurveto
          -31 -21 -44 -44 -66 48 -34 55 73 107 31 604 34 26 6 36 hvcurveto
          83 20 callsubr
          -72 callsubr
          endchar
        </CharString>
        <CharString name="uni041C">
          -89 callsubr
        </CharString>
        <CharString name="uni041D">
          145 21 -21 334 61 323 -32 callsubr
          327 99 vstemhm
          hintmask 11111000
          -81 callsubr
        </CharString>
        <CharString name="uni041E">
          99 -14 59 629 57 -56 57 -10 callsubr
          hintmask 11011000
          hintmask 10111000
          -102 callsubr
          endchar
        </CharString>
        <CharString name="uni041F">
          91 21 -21 661 57 hstem
          103 99 297 99 vstem
          435 661 rmoveto
          37 callsubr
          -452 vlineto
          -72 callsubr
          13 18 -13 16 rlineto
          -585 hlineto
          -69 callsubr
          endchar
        </CharString>
        <CharString name="uni0420">
          -38 21 -21 261 52 362 56 -55 56 -20 callsubr
          246 104 hintmask 11101100
          hintmask 11011100
          -69 callgsubr
        </CharString>
        <CharString name="uni0421">
          -17 -14 69 620 56 -55 56 hstemhm
          35 113 337 98 hintmask 11011000
          hintmask 10111000
          358 732 rmoveto
          17 callgsubr
          -205 104 -167 216 -84 callsubr
          vhcurveto
          endchar
        </CharString>
        <CharString name="uni0422">
          -39 21 -21 661 57 34 -20 hstemhm
          248 99 vstemhm
          hintmask 11110000
          -74 callsubr
        </CharString>
        <CharString name="uni0423">
          -9 38 callsubr
          hstem
          53 92 vstem
          -80 callsubr
          endchar
        </CharString>
        <CharString name="uni0424">
          245 -19 -21 660 69 124 -20 hstem
          25 113 252 99 252 113 cntrmask 00011100
          138 386 rmoveto
          154 95 80 128 23 6 -17 -18 vhcurveto
          -492 vlineto
          -70 callsubr
          499 vlineto
          18 6 17 23 128 95 -78 -151 -136 -68 -92 -145 -21 vhcurveto
          -13 -2 -2 -8 -8 vvcurveto
          -21 16 -8 23 125 177 82 206 180 -135 111 -224 15 vhcurveto
          7 30 12 30 20 30 13 18 rcurveline
          -13 16 rlineto
          -189 -86 callgsubr
          -7 29 -9 4 -33 1 -40 rlinecurve
          -217 -13 -148 -112 -185 vvcurveto
          -203 177 -82 125 23 16 8 21 8 -2 8 -13 2 vhcurveto
          -145 21 -68 92 131 vvcurveto
          endchar
        </CharString>
        <CharString name="uni0425">
          46 -46 callsubr
          hstemhm
          hintmask 11000000
          -88 callgsubr
        </CharString>
        <CharString name="uni0426">
          115 -172 -21 193 -11 callsubr
          297 99 vstem
          40 34 rmoveto
          12 -34 rlineto
          490 hlineto
          91 23 -55 -115 34 hvcurveto
          7 -15 callgsubr
          223 vlineto
          -54 -55 19 44 hvcurveto
          412 -64 callgsubr
          endchar
        </CharString>
        <CharString name="uni0427">
          27 21 -21 261 73 399 -20 hstem
          63 100 272 99 vstem
          360 hmoveto
          245 hlineto
          -53 callgsubr
          rlineto
          50 -15 14 -16 -62 vvcurveto
          -182 vlineto
          -34 -35 -39 -35 -81 hhcurveto
          -78 -39 32 79 hvcurveto
          288 vlineto
          -130 -14 -13 -17 13 -17 rlineto
          24 -31 6 -29 -81 vvcurveto
          -125 vlineto
          -106 65 -52 112 88 52 32 39 55 vhcurveto
          -199 41 callsubr
          endchar
        </CharString>
        <CharString name="uni0428">
          425 0 -11 callsubr
          256 95 256 99 cntrmask 00111000
          1003 hmoveto
          11 32 -21 6 rlineto
          -48 14 -13 15 59 vvcurveto
          391 -82 callsubr
          -23 -6 12 -34 rlineto
          endchar
        </CharString>
        <CharString name="uni0429">
          425 -172 -21 193 -11 callsubr
          256 95 256 99 cntrmask 00011100
          40 34 rmoveto
          12 -34 rlineto
          800 2 callsubr
          412 -82 callsubr
          endchar
        </CharString>
        <CharString name="uni042A">
          123 0 52 317 50 242 35 callsubr
          261 104 vstem
          452 hmoveto
          -72 callgsubr
          -20 callgsubr
          334 vlineto
          81 12 41 33 45 vhcurveto
          13 18 -56 callgsubr
          -224 -71 callsubr
          25 hlineto
          28 26 24 callgsubr
          12 -34 rlineto
          endchar
        </CharString>
        <CharString name="uni042B">
          302 0 52 -31 -21 369 50 299 -32 callsubr
          247 104 133 99 hintmask 10111100
          226 -18 callsubr
          -452 28 callsubr
          279 hlineto
          176 70 88 122 112 -93 97 -139 -49 -48 -9 -26 -12 4 -10 10 hvcurveto
          11 14 7 41 hhcurveto
          82 63 -68 -86 -95 -54 -68 -82 -20 callgsubr
          hintmask 01010010
          654 -183 rmoveto
          11 32 -21 6 rlineto
          -48 14 -13 15 59 vvcurveto
          391 -104 callgsubr
          endchar
        </CharString>
        <CharString name="uni042C">
          2 0 52 317 50 299 38 callgsubr
          261 104 vstem
          226 -18 callsubr
          -452 vlineto
          -61 -14 -19 -50 -13 vhcurveto
          -23 -6 -43 callgsubr
        </CharString>
        <CharString name="uni042D">
          -23 -14 58 288 63 280 43 -43 57 10 -20 hstemhm
          30 98 334 114 hintmask 11010110
          263 732 rmoveto
          hintmask 11101110
          -60 -40 -14 -32 hhcurveto
          -14 -12 2 9 -12 -47 callgsubr
          6 23 rlineto
          83 22 57 30 63 hhcurveto
          152 60 -141 -139 9 hvcurveto
          -289 hlineto
          -26 callsubr
          312 hlineto
          -160 -7 -76 -128 -120 hhcurveto
          -8 callsubr
          212 102 167 205 vhcurveto
          hintmask 11010110
          207 -101 167 -212 vhcurveto
          endchar
        </CharString>
        <CharString name="uni042E">
          408 -14 59 289 61 279 57 -16 callsubr
          149 107 416 109 22 callsubr
          208 148 vlineto
          -195 8 102 -153 206 hhcurveto
          213 104 166 206 206 -104 167 -213 -201 -103 -148 -188 -11 hvcurveto
          -149 122 hlineto
          -105 callsubr
          846 355 rmoveto
          -172 -77 -138 -135 -135 -69 135 170 177 76 147 137 158 45 -194 -125 vhcurveto
          endchar
        </CharString>
        <CharString name="uni042F">
          22 -14 55 634 56 hstem
          83 104 238 99 vstem
          -6 26 rmoveto
          -28 29 32 -12 31 hhcurveto
          70 27 45 72 41 hvcurveto
          92 161 15 26 15 10 38 14 rlinecurve
          16 6 3 9 8 vvcurveto
          12 -5 12 -11 vhcurveto
          -8 -11 -7 -30 hhcurveto
          -97 -54 63 93 93 55 72 107 68 8 -28 -18 hvcurveto
          -428 vlineto
          -82 -13 -41 -32 -91 callsubr
          13 -14 19 61 vvcurveto
          493 vlineto
          18 7 6 15 vhcurveto
          58 hlineto
          12 37 rlineto
          20 -51 -104 24 -94 hhcurveto
          -202 -82 -98 -120 -94 48 -83 106 -26 hvcurveto
          -18 -12 -10 -16 -12 -21 -109 -189 rcurveline
          -16 -9 -11 -15 -18 hhcurveto
          -13 -11 4 10 -15 hvcurveto
          endchar
        </CharString>
        <CharString name="uni0430">
          -26 callgsubr
          hstem
          -3 callgsubr
          vstem
          -106 callsubr
          endchar
        </CharString>
        <CharString name="uni0431">
          -52 -14 54 406 52 173 55 61 -20 hstem
          35 104 289 105 vstem
          133 411 rmoveto
          16 124 28 90 49 33 rrcurveto
          10 14 15 3 16 49 60 -33 64 hhcurveto
          57 41 26 63 27 -17 33 -11 -14 0 -33 -18 -27 hvcurveto
          -8 -12 -20 -2 -24 -23 -27 2 -28 hhcurveto
          -52 -58 -6 -33 -50 hvcurveto
          -81 -53 -63 -125 -203 vvcurveto
          -198 101 -124 158 152 87 114 149 167 -113 82 -114 -70 -58 -31 -56 -37 vhcurveto
          137 -371 rmoveto
          -92 -47 91 116 125 54 74 86 107 42 -113 -89 -110 -56 -94 -94 hvcurveto
          endchar
        </CharString>
        <CharString name="uni0432">
          -19 0 49 180 42 164 75 -52 52 hstemhm
          120 90 208 97 -69 104 hintmask 11011010
          hintmask 11101100
          322 hmoveto
          147 81 42 98 59 -38 40 -66 19 hvcurveto
          44 25 25 40 49 vvcurveto
          85 -71 53 -167 -90 -102 -22 -19 -50 vhcurveto
          hintmask 11101010
          11 -34 rlineto
          54 hlineto
          13 7 -5 -17 hvcurveto
          -290 11 callsubr
          -32 rlineto
          277 229 rmoveto
          71 -3 47 -28 -54 vvcurveto
          -68 -63 -27 -59 -40 -74 5 115 vhcurveto
          247 vlineto
          16 9 26 68 90 41 -37 -56 -58 -42 -36 -72 vhcurveto
          -28 -11 7 -7 hhcurveto
          hintmask 11101100
          -9 -4 -8 -9 -20 34 -12 40 hvcurveto
          endchar
        </CharString>
        <CharString name="uni0433">
          -214 21 -21 439 53 31 -48 callsubr
          11 hlineto
          65 18 -16 -66 17 hvcurveto
          6 -21 15 callsubr
          endchar
        </CharString>
        <CharString name="uni0434">
          -63 -159 -21 180 52 390 55 hstem
          142 73 165 91 vstem
          471 312 rmoveto
          34 callsubr
          -421 -39 callgsubr
          36 -9 5 -6 -61 vvcurveto
          -204 -12 -126 -130 -15 vhcurveto
          -207 vlineto
          31 -11 6 21 rlineto
          107 30 24 51 83 hhcurveto
          213 hlineto
          83 29 -22 callsubr
          41 hvcurveto
          -344 -45 rmoveto
          60 36 28 112 205 vvcurveto
          31 24 6 33 vhcurveto
          49 hlineto
          48 11 -13 -57 hvcurveto
          -250 vlineto
          -57 -11 -13 -48 vhcurveto
          endchar
        </CharString>
        <CharString name="uni0435">
          -107 -33 callsubr
          hstem
          35 103 246 95 vstem
          478 8 callsubr
          -42 -53 -18 -58 hhcurveto
          -102 -54 73 117 141 66 77 85 63 32 -47 -49 -57 -42 -57 -85 hvcurveto
          -41 -13 13 -10 hhcurveto
          -8 -7 -11 -11 -35 82 -12 28 125 66 87 82 75 -55 72 -115 -160 -114 -107 -161 -154 93 -102 145 82 71 31 58 52 hvcurveto
          endchar
        </CharString>
        <CharString name="uni0436">
          164 -14 51 460 -20 hstem
          354 90 vstem
          490 hmoveto
          6 callsubr
          -31 10 -6 15 56 vvcurveto
          196 vlineto
          76 12 37 29 41 vhcurveto
          12 17 -12 14 rlineto
          -200 -92 callsubr
          349 190 rmoveto
          -17 31 -22 19 -24 11 106 159 rcurveline
          21 32 24 11 27 7 21 5 rcurveline
          -11 32 rlineto
          -162 hlineto
          -17 -15 8 -17 rlineto
          5 -10 7 -16 -15 vvcurveto
          -15 -2 -12 -17 -24 vhcurveto
          -75 -108 rlineto
          1 -7 -6 0 -6 hhcurveto
          -15 -3 -10 -7 -27 47 6 26 -50 hvcurveto
          38 -74 rlineto
          -84 42 23 -34 58 hhcurveto
          29 29 11 26 27 hvcurveto
          -16 27 rlineto
          -9 -13 -11 -4 -12 hhcurveto
          -16 -10 11 17 -9 hvcurveto
          -484 308 rmoveto
          -17 24 -2 12 15 vvcurveto
          15 7 16 5 10 vhcurveto
          8 17 -17 15 rlineto
          -162 hlineto
          -11 -32 21 -5 27 -7 24 -11 21 -32 rlinecurve
          106 -159 -24 -11 -22 -19 -17 -31 rlinecurve
          -67 -125 rlineto
          -17 -9 -10 -11 16 callgsubr
          58 23 34 84 42 hvcurveto
          38 74 rlineto
          26 50 47 -6 27 vvcurveto
          7 -3 10 -15 -6 -7 0 -1 -6 vhcurveto
          endchar
        </CharString>
        <CharString name="uni0437">
          -132 -14 54 417 40 -40 53 9 -20 hstemhm
          55 86 203 97 -76 76 -76 97 hintmask 11011001
          247 40 rmoveto
          -57 -49 -2 callsubr
          72 75 74 53 -37 52 -73 25 vhcurveto
          hintmask 10101100
          54 23 35 41 58 vvcurveto
          76 -57 47 -132 vhcurveto
          hintmask 11011100
          -46 -31 -13 -25 hhcurveto
          -13 -11 2 8 -11 -33 callgsubr
          77 22 49 27 59 hhcurveto
          64 29 -36 -41 -49 -39 -32 -51 -12 hvcurveto
          -35 -8 -18 -4 -16 vvcurveto
          -9 3 -8 18 vhcurveto
          9 hlineto
          hintmask 11011010
          81 -2 53 -33 -63 vvcurveto
          -74 -63 -30 -55 vhcurveto
          endchar
        </CharString>
        <CharString name="uni0438">
          29 21 -21 497 -20 hstem
          115 91 246 91 vstem
          -82 callgsubr
          endchar
        </CharString>
        <CharString name="uni0439">
          29 21 -21 497 -20 93 43 121 -20 hstemhm
          115 91 -35 76 162 75 -32 91 hintmask 11001001
          -82 callgsubr
          hintmask 00110110
          -125 225 rmoveto
          95 62 32 61 44 -34 27 -37 -11 -8 -5 -8 hvcurveto
          -10 15 -10 -36 vvcurveto
          -29 -23 -23 -59 -62 -18 25 30 vhcurveto
          34 14 9 10 vvcurveto
          8 -8 5 -11 -37 -34 -27 -44 -61 61 -32 95 vhcurveto
          endchar
        </CharString>
        <CharString name="uni043A">
          -70 -14 51 460 -20 hstem
          110 90 vstem
          -89 callgsubr
          endchar
        </CharString>
        <CharString name="uni043B">
          -53 7 -21 458 53 hstem
          149 67 155 91 vstem
          515 482 rmoveto
          -12 15 rlineto
          -49 callsubr
          -251 vlineto
          -58 -13 -14 -46 -14 41 callgsubr
          30 -19 5 rlineto
          -44 13 -12 14 54 vvcurveto
          196 vlineto
          74 11 39 30 40 vhcurveto
          endchar
        </CharString>
        <CharString name="uni043C">
          109 21 -21 497 -20 hstem
          113 60 358 86 vstem
          622 267 rmoveto
          -1 14 -4 58 11 vvcurveto
          52 10 31 23 33 vhcurveto
          11 17 -14 14 rlineto
          -132 hlineto
          -145 -306 -143 306 rlineto
          -167 hlineto
          -10 -31 21 -6 rlineto
          40 -10 13 -13 -43 vvcurveto
          -14 -3 -49 -1 -8 vhcurveto
          -13 -201 -4 -57 -14 -15 -47 -13 rlinecurve
          -22 -6 11 -31 rlineto
          173 hlineto
          13 14 -11 17 rlineto
          -23 33 -10 31 52 vvcurveto
          11 4 47 2 32 vhcurveto
          10 149 152 -320 rlineto
          30 hlineto
          151 320 18 -249 rlineto
          1 -10 1 -16 -8 vvcurveto
          -38 -13 -17 -40 -11 -44 callsubr
          202 hlineto
          12 14 -42 42 -16 48 -6 74 rlinecurve
          endchar
        </CharString>
        <CharString name="uni043D">
          21 21 -21 221 57 219 -20 hstem
          115 90 240 90 vstem
          600 hmoveto
          -41 callsubr
          196 vlineto
          75 11 39 30 40 3 callsubr
          -97 -240 34 vlineto
          75 11 39 30 40 vhcurveto
          12 17 -12 14 rlineto
          -200 -92 callsubr
          224 hlineto
          -41 callsubr
          105 240 -99 vlineto
          -57 -13 -15 -46 -30 callgsubr
          endchar
        </CharString>
        <CharString name="uni043E">
          -46 -14 54 418 52 hstem
          35 104 309 105 vstem
          448 245 rmoveto
          -123 -65 -82 -92 -93 -59 81 126 125 64 86 94 118 33 -132 -81 vhcurveto
          -413 3 rmoveto
          -160 100 -102 159 158 101 102 160 161 -101 101 -158 -159 -100 -101 -161 vhcurveto
          endchar
        </CharString>
        <CharString name="uni043F">
          27 21 -21 442 55 hstem
          108 90 246 90 vstem
          380 442 rmoveto
          37 callsubr
          -233 vlineto
          -62 -14 -16 -50 -15 1 callgsubr
          236 hlineto
          -80 callgsubr
          170 vlineto
          -83 callsubr
          -516 -59 callsubr
          -95 vlineto
          -81 -12 -42 -33 -44 vhcurveto
          -13 -18 13 -16 rlineto
          210 hlineto
          12 34 -23 6 rlineto
          -50 15 -14 16 62 vvcurveto
          233 vlineto
          -32 callgsubr
          endchar
        </CharString>
        <CharString name="uni0440">
          -39 -19 callsubr
          hstemhm
          103 90 261 106 hintmask 11011100
          193 452 rmoveto
          -52 callsubr
          -487 vlineto
          -58 callsubr
          560 vlineto
          27 35 35 12 42 hhcurveto
          92 26 callsubr
          -90 hvcurveto
          hintmask 10111100
          -45 -15 16 -11 hhcurveto
          -11 -4 -13 -12 -7 3 -7 6 -4 hvcurveto
          -18 27 35 -9 38 hhcurveto
          147 83 120 162 142 -78 100 -145 -53 -49 -22 -41 -42 hvcurveto
          endchar
        </CharString>
        <CharString name="uni0441">
          -125 -14 67 405 52 hstem
          35 104 231 93 31 callsubr
          -98 -61 78 124 121 54 82 79 60 38 -34 -53 hvcurveto
          -55 callsubr
          57 41 40 58 79 -73 55 -105 -152 -98 -103 -160 -151 104 -110 143 71 66 29 54 47 vhcurveto
          -51 callgsubr
          endchar
        </CharString>
        <CharString name="uni0442">
          -144 21 -21 439 53 31 -20 hstem
          200 90 vstem
          439 336 rmoveto
          15 callsubr
          -178 hlineto
          -53 -33 5 14 -19 -33 callgsubr
          66 17 18 16 65 hhcurveto
          12 hlineto
          25 6 -13 -57 hvcurveto
          -184 vlineto
          -75 -11 -38 -30 -41 vhcurveto
          -12 -16 12 -15 rlineto
          200 hlineto
          11 31 -21 6 rlineto
          -46 14 -13 14 57 vvcurveto
          247 vlineto
          57 6 13 25 vhcurveto
          12 hlineto
          65 18 -16 -66 17 hvcurveto
          endchar
        </CharString>
        <CharString name="uni0443">
          -12 -278 52 241 67 429 -20 hstemhm
          103 91 -74 97 225 83 hintmask 11110100
          303 -278 rmoveto
          135 87 90 166 hvcurveto
          533 vlineto
          -122 -13 -12 -15 12 -16 rlineto
          36 -47 3 -50 -98 vvcurveto
          -119 -53 -71 -89 -69 -37 42 80 vhcurveto
          275 -51 callsubr
          14 6 -6 -16 hvcurveto
          -222 vlineto
          -105 60 -61 103 74 65 37 58 31 vhcurveto
          -148 vlineto
          -108 -34 -80 -86 vhcurveto
          hintmask 11101100
          -63 -36 42 51 hvcurveto
          -75 callgsubr
          59 -73 124 vhcurveto
          endchar
        </CharString>
        <CharString name="uni0444">
          204 -19 callsubr
          272 -20 hstemhm
          35 106 233 90 233 106 cntrmask 00000111
          hintmask 11011111
          374 -106 rmoveto
          -58 callsubr
          564 vlineto
          24 30 30 11 36 hhcurveto
          77 60 -77 -142 -118 -58 -67 -60 hvcurveto
          hintmask 10111111
          -51 -14 16 -9 hhcurveto
          -10 -3 -13 -12 -7 3 -7 6 -4 hvcurveto
          -18 28 37 -9 41 hhcurveto
          119 77 97 164 170 -90 93 -120 -48 -43 -20 -39 -38 hvcurveto
          285 vlineto
          -52 callsubr
          -214 vlineto
          39 -38 -44 20 -47 hhcurveto
          -120 -90 -93 -170 -164 77 -97 119 41 37 9 18 28 hvcurveto
          6 4 3 7 7 vvcurveto
          12 -3 13 -10 vhcurveto
          hintmask 11011111
          -9 -14 -16 -51 hhcurveto
          -60 -58 67 118 142 60 77 77 35 30 -11 -24 31 hvcurveto
          endchar
        </CharString>
        <CharString name="uni0445">
          -87 callgsubr
        </CharString>
        <CharString name="uni0446">
          -3 -159 -21 180 52 445 -20 hstem
          115 90 236 90 vstem
          531 312 rmoveto
          34 callsubr
          -200 -73 callsubr
          -11 -13 -48 vhcurveto
          -118 hlineto
          -48 -11 13 57 hvcurveto
          190 vlineto
          34 callsubr
          -200 -73 callsubr
          -12 -18 -47 -11 vhcurveto
          -21 -5 11 -31 rlineto
          400 hlineto
          83 30 -22 callsubr
          41 hvcurveto
          endchar
        </CharString>
        <CharString name="uni0447">
          -62 21 -21 164 68 279 -20 hstem
          59 92 210 91 vstem
          527 30 rmoveto
          -19 5 rlineto
          -44 13 -12 14 54 vvcurveto
          196 vlineto
          74 11 39 -23 callgsubr
          -201 -65 callgsubr
          -14 13 -14 -57 vvcurveto
          -103 vlineto
          -26 -33 -39 -14 -44 hhcurveto
          -58 -36 24 69 hvcurveto
          186 vlineto
          -120 -13 -11 -16 12 -15 rlineto
          24 -33 3 -5 -92 vvcurveto
          -25 vlineto
          -99 52 -49 101 67 45 22 28 37 vhcurveto
          -91 11 callsubr
          -32 rlineto
          225 hlineto
          endchar
        </CharString>
        <CharString name="uni0448">
          306 0 23 callgsubr
          885 hmoveto
          10 29 -20 6 rlineto
          -44 13 -12 13 55 vvcurveto
          196 vlineto
          75 11 39 31 40 -50 callsubr
          -202 -73 callsubr
          -11 -13 -48 vhcurveto
          -102 hlineto
          -46 -10 9 55 hvcurveto
          196 vlineto
          75 11 39 30 40 -50 callsubr
          -197 -73 callsubr
          -15 -13 -48 vhcurveto
          -96 hlineto
          -47 -12 13 57 hvcurveto
          190 vlineto
          75 12 39 30 40 -50 callsubr
          -202 hlineto
          -11 -31 22 -6 rlineto
          46 -13 12 7 callgsubr
          -253 vlineto
          -57 -12 42 callsubr
          -22 -6 11 -31 rlineto
          endchar
        </CharString>
        <CharString name="uni0449">
          285 -159 -21 180 23 callgsubr
          819 312 rmoveto
          75 11 38 31 -13 callsubr
          -202 -73 callsubr
          -11 -13 -48 vhcurveto
          -102 hlineto
          -46 -10 9 55 hvcurveto
          196 vlineto
          34 callsubr
          -197 -73 callsubr
          -15 -13 -48 vhcurveto
          -96 hlineto
          -47 -12 13 57 hvcurveto
          190 vlineto
          75 12 38 -23 callgsubr
          -202 hlineto
          -11 -31 22 -6 rlineto
          46 -13 12 7 callgsubr
          -253 vlineto
          -57 -11 -18 -47 -11 vhcurveto
          -22 -5 11 -31 rlineto
          688 hlineto
          83 30 -22 callsubr
          40 hvcurveto
          endchar
        </CharString>
        <CharString name="uni044A">
          7 0 48 201 46 144 53 31 -20 hstem
          192 90 225 104 vstem
          282 307 rmoveto
          75 12 38 30 41 -50 callsubr
          -168 hlineto
          -53 -33 5 14 -19 -33 callgsubr
          66 17 18 16 65 hhcurveto
          4 hlineto
          25 6 -13 -24 hvcurveto
          -280 vlineto
          -56 -14 -16 -45 -13 vhcurveto
          -21 -6 -67 callgsubr
          endchar
        </CharString>
        <CharString name="uni044B">
          208 28 callgsubr
          215 104 108 90 vstem
          205 -17 callsubr
          -253 vlineto
          -56 -14 -16 -45 -30 callgsubr
          257 hlineto
          159 62 62 86 79 -70 68 -130 -9 callgsubr
          hvcurveto
          12 10 9 45 hhcurveto
          65 47 -43 -54 -61 -43 -43 -59 -47 -66 5 132 hvcurveto
          582 -185 rmoveto
          -41 callsubr
          196 vlineto
          75 11 39 30 40 vhcurveto
          12 17 -12 14 rlineto
          -200 -92 callsubr
          endchar
        </CharString>
        <CharString name="uni044C">
          -70 28 callgsubr
          225 104 vstem
          205 -17 callsubr
          -253 vlineto
          -56 -14 -16 -45 -13 vhcurveto
          -21 -6 -67 callgsubr
          endchar
        </CharString>
        <CharString name="uni044D">
          -110 -14 54 185 57 175 40 -40 53 9 -20 hstemhm
          50 86 248 105 hintmask 11010110
          235 40 rmoveto
          -53 -46 -2 callsubr
          104 110 151 160 -98 103 -152 vhcurveto
          hintmask 11101110
          -46 -31 -13 -25 hhcurveto
          -13 -11 2 8 -11 -33 callgsubr
          77 22 49 27 59 hhcurveto
          80 57 -70 -105 9 hvcurveto
          -191 hlineto
          -17 -11 -5 -26 -20 vvcurveto
          213 hlineto
          -115 -8 -56 -70 -85 hhcurveto
          endchar
        </CharString>
        <CharString name="uni044E">
          209 -14 54 181 57 180 52 hstem
          115 90 121 103 264 105 vstem
          556 40 rmoveto
          -84 -43 81 126 125 48 86 85 101 30 -132 -81 -123 -59 -82 -78 hvcurveto
          -351 238 rmoveto
          34 vlineto
          75 11 39 30 40 vhcurveto
          12 17 -12 14 rlineto
          -200 -92 callsubr
          224 hlineto
          -41 callsubr
          105 121 vlineto
          -144 9 83 -91 141 hhcurveto
          144 95 102 160 161 -95 101 -144 -140 -83 -89 -143 -10 hvcurveto
          endchar
        </CharString>
        <CharString name="uni044F">
          -69 -14 51 398 75 -52 52 hstemhm
          50 97 208 90 hintmask 10111000
          69 65 rmoveto
          -18 -10 -9 -10 16 callgsubr
          51 18 18 52 29 hvcurveto
          69 126 8 15 8 10 12 8 rlinecurve
          29 4 22 11 16 vvcurveto
          9 -4 8 -9 vhcurveto
          -7 -11 -7 -28 hhcurveto
          -68 -39 37 60 63 41 42 90 68 9 -26 -16 hvcurveto
          -231 vlineto
          -75 -11 -39 -30 -40 vhcurveto
          -12 -17 12 -14 rlineto
          200 hlineto
          11 31 -21 6 rlineto
          -46 13 -13 16 57 vvcurveto
          290 vlineto
          hintmask 11011000
          17 7 5 13 vhcurveto
          54 hlineto
          11 34 rlineto
          19 -50 -102 22 -90 hhcurveto
          -167 -71 -58 -92 -71 47 -52 81 -17 hvcurveto
          -22 -12 -16 -20 -15 -26 rrcurveto
          endchar
        </CharString>
        <CharString name="uni0451">
          -105 -33 callsubr
          104 17 callsubr
          45 103 231 95 hintmask 11100110
          -103 callsubr
          hintmask 00011000
          -345 583 -105 callgsubr
        </CharString>
        <CharString name="uni0452">
          -34 -228 64 -64 80 521 78 93 63 175 -20 hstemhm
          108 91 231 90 hintmask 10111110
          -54 callsubr
          6 vlineto
          79 3 58 128 84 hhcurveto
          64 22 -36 -68 hvcurveto
          -344 -15 callsubr
          324 -16 callgsubr
        </CharString>
        <CharString name="uni0454">
          -125 -14 67 159 63 183 52 hstem
          35 104 234 90 31 callsubr
          -86 -58 60 99 -12 hvcurveto
          176 hlineto
          -9 callsubr
          -202 hlineto
          110 6 52 73 75 hhcurveto
          60 41 -34 -43 hvcurveto
          -42 -10 -7 -9 vvcurveto
          -8 6 -2 10 47 37 28 47 69 -73 53 -105 -152 -98 -103 -160 -151 104 -110 143 71 66 29 54 47 vhcurveto
          -51 callgsubr
          endchar
        </CharString>
        <CharString name="uni0455">
          -79 callgsubr
        </CharString>
        <CharString name="uni0456">
          -68 callsubr
        </CharString>
        <CharString name="uni0457">
          -30 callsubr
          124 17 callsubr
          108 90 hintmask 11001000
          199 478 rmoveto
          -101 callgsubr
          -310 vlineto
          -99 callgsubr
          hintmask 00110000
          -198 570 -105 callgsubr
        </CharString>
        <CharString name="uni0458">
          -73 callgsubr
        </CharString>
        <CharString name="uni0459">
          186 0 48 -41 -21 263 46 149 53 hstemhm
          149 67 155 90 225 104 hintmask 01111110
          503 497 rmoveto
          -49 callsubr
          -252 vlineto
          -56 -14 -16 -45 -13 -8 callgsubr
          rlineto
          hintmask 10111110
          -67 callgsubr
          127 vlineto
          75 12 38 30 41 18 callgsubr
          rlineto
          endchar
        </CharString>
        <CharString name="uni045A">
          260 0 48 173 57 -29 46 202 -20 hstemhm
          115 90 240 90 225 104 hintmask 11011110
          535 -17 callsubr
          -97 -240 34 vlineto
          75 11 39 30 40 vhcurveto
          12 17 -12 14 rlineto
          -200 -92 callsubr
          224 hlineto
          -41 callsubr
          105 240 -99 vlineto
          -56 -14 -16 -45 -30 callgsubr
          257 hlineto
          169 62 62 86 hvcurveto
          hintmask 10111110
          79 -69 68 -141 -9 callgsubr
          vhcurveto
          12 10 9 45 hhcurveto
          74 48 -43 -54 -61 -44 -43 -68 -48 -65 5 132 hvcurveto
          endchar
        </CharString>
        <CharString name="uni045B">
          5 -14 68 319 78 93 63 175 -20 hstem
          108 91 231 90 vstem
          -54 callsubr
          79 59 134 86 64 22 -36 -68 vhcurveto
          -177 vlineto
          -99 callgsubr
          181 -16 callgsubr
        </CharString>
        <CharString name="uni045C">
          -70 -14 51 460 -20 113 -21 191 -20 hstemhm
          110 90 hintmask 11001000
          -89 callgsubr
          hintmask 00110000
          -264 539 -101 callsubr
          endchar
        </CharString>
        <CharString name="uni045E">
          -24 callsubr
          89 43 121 -20 hstemhm
          103 91 -74 97 -83 84 180 83 -51 83 hintmask 1111001000100000
          -97 callgsubr
          hintmask 1111000100100000
          -55 -32 42 51 hvcurveto
          -75 callgsubr
          55 -73 116 vhcurveto
          hintmask 0000110011000000
          16 858 -85 callsubr
        </CharString>
        <CharString name="uni045F">
          18 -141 -21 162 52 446 -20 hstem
          115 90 237 90 vstem
          147 hmoveto
          123 33 -16 -125 32 hvcurveto
          5 -21 32 11 rlineto
          151 225 vlineto
          -41 callsubr
          197 -22 callgsubr
          -11 -13 -48 vhcurveto
          -119 hlineto
          -48 -11 13 57 hvcurveto
          191 -22 callgsubr
          -13 -15 -46 -14 vhcurveto
          -21 -5 11 -31 rlineto
          endchar
        </CharString>
        <CharString name="uni0490">
          36 callgsubr
          178 -20 hstem
          103 99 vstem
          58 718 rmoveto
          -13 -16 13 -18 rlineto
          33 -45 12 -41 -81 vvcurveto
          -316 vlineto
          -82 -13 -41 -32 -91 callsubr
          13 -14 19 61 vvcurveto
          452 vlineto
          -32 callgsubr
          56 hlineto
          58 36 -6 -15 20 hvcurveto
          18 -13 16 13 rlineto
          244 vlineto
          -34 12 -6 -23 rlineto
          -106 -28 -30 -49 -91 hhcurveto
          endchar
        </CharString>
        <CharString name="uni0491">
          -214 21 -21 439 53 170 -48 callsubr
          37 hlineto
          25 29 -3 -17 25 hvcurveto
          17 -12 15 12 rlineto
          232 vlineto
          -32 11 -6 -22 rlineto
          -100 -27 -28 -48 -87 hhcurveto
          endchar
        </CharString>
        <CharString name="uni2116">
          456 21 -21 272 63 52 47 253 45 -14 -20 hstemhm
          121 70 398 70 81 85 159 86 hintmask 0111000110000000
          1037 272 rmoveto
          -9 callsubr
          -287 hlineto
          -26 callsubr
          75 288 rmoveto
          78 29 49 45 50 35 -55 -78 -74 -29 -46 -46 -49 -35 50 76 vhcurveto
          -85 -1 rmoveto
          -104 63 -68 102 101 64 68 104 106 -64 67 -101 -102 -63 -67 -106 vhcurveto
          hintmask 1000111000000000
          -168 -559 rmoveto
          -91 callgsubr
          endchar
        </CharString>
        <CharString name="uniF6D1">
          -255 580 43 121 -20 hstem
          17 84 180 83 vstem
          190 580 -85 callsubr
        </CharString>
        <CharString name="v">
          -81 -14 65 459 -20 hstem
          406 82 vstem
          279 51 rmoveto
          -44 -20 33 82 -12 -53 callsubr
          -152 22 40 -52 102 hhcurveto
          115 105 40 callgsubr
          -119 -14 -5 callgsubr
          -39 -120 -88 vhcurveto
          endchar
        </CharString>
        <CharString name="w">
          179 -14 65 459 -20 hstem
          388 80 205 80 vstem
          279 51 rmoveto
          -44 -20 33 82 -12 -53 callsubr
          -152 22 40 -52 102 hhcurveto
          57 54 42 84 37 hvcurveto
          -92 24 40 -34 77 hhcurveto
          102 94 40 callgsubr
          -117 -13 -5 callgsubr
          -42 -121 -67 -47 -21 33 82 -12 vhcurveto
          -21 140 rlineto
          3 31 2 32 35 vvcurveto
          33 -2 36 -3 37 vhcurveto
          -117 -13 -5 callgsubr
          -42 -121 -67 vhcurveto
          endchar
        </CharString>
        <CharString name="x">
          -87 callgsubr
        </CharString>
        <CharString name="y">
          -24 callsubr
          hstemhm
          103 91 -74 97 213 83 hintmask 11111010
          -97 callgsubr
          hintmask 11110110
          -55 -32 42 51 hvcurveto
          -75 callgsubr
          55 -73 116 vhcurveto
          endchar
        </CharString>
        <CharString name="y.calt">
          -24 -278 58 227 -21 29 64 431 -20 hstem
          85 97 257 76 vstem
          289 79 rmoveto
          -44 -23 24 63 -9 -53 callsubr
          -131 19 43 -44 85 hhcurveto
          73 66 41 85 39 hvcurveto
          -230 -62 -131 -108 -55 -32 36 -21 callgsubr
          55 -73 116 183 76 208 287 91 -8 99 -14 103 vhcurveto
          -113 -13 -12 -13 10 -16 rlineto
          32 -51 21 -60 -62 vvcurveto
          -109 -54 -107 -88 vhcurveto
          endchar
        </CharString>
        <CharString name="yacute">
          -24 callsubr
          99 -21 191 -20 hstemhm
          103 91 -74 97 213 83 hintmask 1111001010000000
          -97 callgsubr
          hintmask 1111000110000000
          -55 -32 42 51 hvcurveto
          -75 callgsubr
          55 -73 116 vhcurveto
          hintmask 0000110000000000
          -55 882 -101 callsubr
          endchar
        </CharString>
        <CharString name="ydieresis">
          -24 callsubr
          123 17 callsubr
          103 91 -74 97 213 83 hintmask 1111001010000000
          -97 callgsubr
          hintmask 1111000110000000
          -55 -32 42 51 hvcurveto
          -75 callgsubr
          55 -73 116 vhcurveto
          hintmask 0000110000000000
          -143 936 -105 callgsubr
        </CharString>
        <CharString name="yen">
          -8 21 -21 233 63 99 63 260 -20 hstem
          227 -68 callgsubr
          67 -118 rlineto
          -92 hlineto
          -26 callsubr
          151 hlineto
          56 -99 rlineto
          -184 hlineto
          -26 callsubr
          208 -32 hlineto
          -57 callgsubr
          100 186 vlineto
          30 callsubr
          -210 7 hlineto
          52 92 rlineto
          134 hlineto
          30 callsubr
          -123 hlineto
          68 120 19 34 26 41 26 31 rlinecurve
          15 -24 callgsubr
          21 -6 21 -18 -29 vvcurveto
          -12 -4 -14 -8 -15 vhcurveto
          -113 -202 rlineto
          endchar
        </CharString>
        <CharString name="z">
          -155 4 callsubr
          hstem
          22 93 249 104 vstem
          -64 callsubr
          endchar
        </CharString>
        <CharString name="z.alt">
          -148 4 callsubr
          hstem
          20 93 249 104 vstem
          412 438 rmoveto
          27 16 rlineto
          18 -6 13 -14 12 vhcurveto
          -244 hlineto
          -61 -29 5 19 -29 hvcurveto
          -12 -12 rlineto
          -154 vlineto
          31 -11 12 53 rlineto
          34 8 17 8 50 hhcurveto
          145 hlineto
          -184 -292 8 -20 rlineto
          5 18 18 2 15 hhcurveto
          125 55 -83 -82 -77 -53 -76 -92 -64 -40 43 61 hvcurveto
          76 53 24 12 vvcurveto
          4 0 7 -19 -83 -44 -59 -62 -80 59 -84 125 170 92 116 108 98 -70 91 -151 vhcurveto
          endchar
        </CharString>
        <CharString name="zcaron">
          -155 4 callsubr
          98 43 callgsubr
          hstemhm
          22 93 249 104 hintmask 11110011
          -64 callsubr
          hintmask 00001100
          103 520 -84 callgsubr
        </CharString>
        <CharString name="zero">
          59 -14 57 632 57 hstem
          60 106 360 107 vstem
          60 360 rmoveto
          -177 69 -197 205 190 109 180 214 197 -93 155 -181 -186 -113 -167 -205 vhcurveto
          106 -2 rmoveto
          174 57 143 123 120 60 -143 -174 -174 -60 -141 -120 -123 -57 141 174 vhcurveto
          endchar
        </CharString>
        <CharString name="zeroinferior">
          -188 -14 47 358 47 hstem
          42 84 190 85 vstem
          42 213 -95 callsubr
          endchar
        </CharString>
      <CharString index="0">
        -26 38 -39 23 25 38 39 26 26 -38 40 -25 -24 -37 -40 -26 vhcurveto
        return
      </CharString>
      <CharString index="1">
        682 hmoveto
        13 16 -43 33 -24 23 -23 66 rlinecurve
        -201 580 rlineto
        -193 -93 callsubr
        rlineto
        31 -8 14 -11 -25 vvcurveto
        -13 -4 -15 -7 -21 vhcurveto
        -157 -452 -21 -62 -18 -16 -53 -15 rlinecurve
        -87 callsubr
        184 hlineto
        19 16 -9 18 rlineto
        -10 19 -4 20 22 vvcurveto
        28 8 32 15 45 vhcurveto
        24 73 rlineto
        231 hlineto
        48 -140 rlineto
        7 -21 4 -15 -13 vvcurveto
        -25 -14 -11 -31 -8 1 callgsubr
        -120 615 rmoveto
        96 -280 21 callsubr
        return
      </CharString>
      <CharString index="2">
        -104 callsubr
        189 hmoveto
        -98 callgsubr
      </CharString>
      <CharString index="3">
        vlineto
        -105 callsubr
        return
      </CharString>
      <CharString index="4">
        -62 callgsubr
        -23 -6 12 -34 rlineto
        return
      </CharString>
      <CharString index="5">
        -56 callgsubr
        -219 -103 callgsubr
        return
      </CharString>
      <CharString index="6">
        19 -13 13 -19 -38 -55 -25 -35 -39 vhcurveto
        9 -26 rlineto
        44 hlineto
        14 6 -6 -16 hvcurveto
        return
      </CharString>
      <CharString index="7">
        210 -67 callsubr
        -219 -46 callgsubr
        -165 116 -69 146 144 115 69 165 vhcurveto
        297 vlineto
        81 12 42 33 44 vhcurveto
        13 18 -13 16 rlineto
        -190 -46 callgsubr
        -109 -78 -62 -98 -98 -78 62 109 vhcurveto
        return
      </CharString>
      <CharString index="8">
        -75 22 -31 55 34 43 24 39 35 vhcurveto
        -19 26 rlineto
        -14 -17 -18 7 callsubr
        -20 -10 12 22 hvcurveto
        return
      </CharString>
      <CharString index="9">
        -107 callgsubr
        endchar
      </CharString>
      <CharString index="10">
        291 -278 rmoveto
        135 87 90 166 hvcurveto
        533 vlineto
        -122 -13 -12 -15 12 -16 rlineto
        36 -47 3 -50 -98 vvcurveto
        -119 -53 -71 -89 -61 -33 42 80 vhcurveto
        275 -51 callsubr
        14 6 -6 -16 hvcurveto
        -222 vlineto
        -105 56 -61 95 74 65 37 58 31 vhcurveto
        -148 vlineto
        -108 -34 -80 -86 vhcurveto
        return
      </CharString>
      <CharString index="11">
        -32 callgsubr
        97 -99 callsubr
        return
      </CharString>
      <CharString index="12">
        rmoveto
        5 -24 18 -12 rlineto
        15 -11 8 -11 -15 vvcurveto
        -11 -4 -14 -8 -16 vhcurveto
        -46 -90 29 -19 39 42 rlineto
        47 50 35 42 41 vvcurveto
        49 -29 18 -36 -18 -20 -5 -7 -18 vhcurveto
        return
      </CharString>
      <CharString index="13">
        218 -68 callgsubr
        160 -281 rlineto
        -94 vlineto
        -57 callgsubr
        170 vlineto
        155 275 19 34 26 41 26 31 rlinecurve
        15 -24 callgsubr
        21 -6 21 -18 -29 vvcurveto
        -12 -4 -14 -8 -15 vhcurveto
        -113 -202 rlineto
        return
      </CharString>
      <CharString index="14">
        -32 -19 35 -43 hhcurveto
        -39 -47 -38 -59 -43 hvcurveto
        35 -31 rlineto
        27 27 24 12 16 32 18 -35 45 hhcurveto
        38 48 38 59 42 hvcurveto
        endchar
      </CharString>
      <CharString index="15">
        rmoveto
        -25 -12 -17 -22 -29 vvcurveto
        -29 15 -23 41 -20 vhcurveto
        113 -56 29 35 rlineto
        endchar
      </CharString>
      <CharString index="16">
        101 hlineto
        13 16 -13 18 rlineto
        -10 14 -4 14 26 vvcurveto
        429 vlineto
        81 12 42 33 44 vhcurveto
        13 18 -13 16 rlineto
        -190 -78 callsubr
        -434 vlineto
        -382 567 rlineto
        -161 -103 callgsubr
        190 -38 callsubr
        42 81 vvcurveto
        364 vlineto
        return
      </CharString>
      <CharString index="17">
        34 -14 55 -20 -21 718 -32 callsubr
        hintmask 01110000
        297 hmoveto
        11 32 -21 6 rlineto
        -48 14 -13 15 59 vvcurveto
        391 -104 callgsubr
        377 299 rmoveto
        -19 33 -24 20 -26 12 180 260 rcurveline
        24 35 25 11 29 8 23 6 rcurveline
        -12 34 rlineto
        -181 hlineto
        -19 -16 9 -18 rlineto
        5 -11 8 -18 -16 vvcurveto
        -16 -3 -12 -18 -28 vhcurveto
        -136 -203 rlineto
        1 -8 -8 0 -8 hhcurveto
        -17 -3 -15 -9 -5 1 -4 4 -2 hvcurveto
        25 -11 11 -8 15 -26 119 -218 rcurveline
        hintmask 10110000
        -61 34 37 -36 63 hhcurveto
        31 32 12 28 29 hvcurveto
        -17 29 rlineto
        -10 -14 -12 -4 -13 hhcurveto
        -18 -10 13 18 -10 hvcurveto
        endchar
      </CharString>
      <CharString index="18">
        265 hmoveto
        0 callsubr
        14 -12 11 56 vvcurveto
        196 vlineto
        76 12 37 29 41 vhcurveto
        12 17 -12 14 rlineto
        -200 -92 callsubr
        349 190 rmoveto
        -15 32 -22 19 -24 11 114 158 rcurveline
        22 30 23 13 27 7 21 5 rcurveline
        -11 32 rlineto
        -162 hlineto
        -17 -15 8 -17 rlineto
        5 -11 3 -11 -12 vvcurveto
        -19 -8 -19 -14 -20 vhcurveto
        -78 -108 rlineto
        1 -7 -6 0 -6 hhcurveto
        -15 -3 -14 -8 -5 1 -4 4 -2 hvcurveto
        23 -10 10 -7 14 -24 69 -116 rcurveline
        -56 33 32 -34 58 hhcurveto
        29 29 11 26 27 hvcurveto
        -16 27 rlineto
        -9 -13 -11 -4 -12 hhcurveto
        -16 -9 12 16 -10 hvcurveto
        return
      </CharString>
      <CharString index="19">
        250 576 rmoveto
        -10 15 -12 23 21 vvcurveto
        19 10 16 29 8 vhcurveto
        23 6 -12 34 rlineto
        -237 hlineto
        -13 -16 35 -30 31 -41 25 -35 rlinecurve
        171 -243 -179 -259 -24 -35 -25 -11 -29 -8 rlinecurve
        -87 callsubr
        184 hlineto
        19 16 -9 18 rlineto
        -5 11 -8 18 16 vvcurveto
        16 3 12 18 28 vhcurveto
        106 160 109 -153 rlineto
        10 -15 12 -23 -21 vvcurveto
        -19 -10 -16 -29 -8 1 callgsubr
        237 hlineto
        13 16 -39 32 -21 30 -27 38 rlinecurve
        -180 255 175 253 24 35 25 11 29 8 rlinecurve
        23 6 -12 34 rlineto
        -184 hlineto
        -19 -16 9 -18 rlineto
        5 -11 8 -18 -16 vvcurveto
        -16 -3 -12 -18 -28 vhcurveto
        -103 -154 rlineto
        endchar
      </CharString>
      <CharString index="20">
        -81 -14 63 -28 -21 447 63 -13 -20 hstemhm
        hintmask 10010000
        515 497 rmoveto
        -155 hlineto
        -12 -15 19 -16 rlineto
        11 -9 8 -9 -14 vvcurveto
        -22 -37 -50 -51 -58 vhcurveto
        -78 136 rlineto
        hintmask 01100000
        47 -27 -36 23 -44 hhcurveto
        -32 -30 -13 -33 -31 hvcurveto
        22 -30 rlineto
        8 12 14 5 12 hhcurveto
        17 12 -6 -22 13 hvcurveto
        109 -188 -78 -82 -86 -85 -43 -43 rlinecurve
        11 -21 rlineto
        155 hlineto
        12 15 -19 16 rlineto
        -11 9 -8 9 14 vvcurveto
        22 37 50 51 59 vhcurveto
        81 -138 rlineto
        hintmask 10010000
        -47 27 36 -23 44 hhcurveto
        32 30 13 33 31 hvcurveto
        -22 30 rlineto
        -8 -12 -14 -5 -12 hhcurveto
        -17 -12 6 22 -13 hvcurveto
        -111 190 77 82 86 83 43 44 rlinecurve
        endchar
      </CharString>
      <CharString index="21">
        hlineto
        -12 -34 23 return
      </CharString>
      <CharString index="22">
        46 22 30 34 48 vvcurveto
        74 -76 35 -73 -69 -65 -31 -65 -40 31 -28 43 14 8 3 10 1 -4 7 -2 3 vhcurveto
        -4 7 -7 14 19 vvcurveto
        36 27 18 27 32 32 -22 -43 -31 -11 -45 -92 -18 vhcurveto
        -40 -7 -1 -5 -14 vvcurveto
        -10 5 -7 14 2 5 0 1 2 vhcurveto
        2 8 15 3 16 hhcurveto
        return
      </CharString>
      <CharString index="23">
        rmoveto
        22 13 57 67 44 78 -32 28 rcurveline
        -105 -84 -104 84 -33 -28 44 -76 54 -67 26 -15 rlinecurve
        endchar
      </CharString>
      <CharString index="24">
        76 51 -43 -62 hvcurveto
        -56 -30 -25 -10 vvcurveto
        -8 6 -4 15 61 46 48 69 87 -93 60 -132 return
      </CharString>
      <CharString index="25">
        452 122 rmoveto
        10 callgsubr
        rlineto
        -44 14 -12 11 56 vvcurveto
        196 8 callgsubr
        29 -9 16 -9 8 -21 rlinecurve
        -240 -271 rlineto
        162 vlineto
        77 11 35 30 42 vhcurveto
        12 17 -12 14 rlineto
        -201 -92 callsubr
        225 hlineto
        10 29 -19 6 -30 9 -15 8 -7 22 rlinecurve
        242 271 rlineto
        return
      </CharString>
      <CharString index="26">
        563 133 rmoveto
        -72 callsubr
        13 18 -13 16 rlineto
        -219 -86 callgsubr
        -6 29 -9 17 -9 9 -18 rlinecurve
        -328 -453 rlineto
        328 -104 callgsubr
        245 hlineto
        11 32 -21 6 -33 9 -17 10 -7 25 rlinecurve
        333 459 rlineto
        return
      </CharString>
      <CharString index="27">
        11 32 -21 6 rlineto
        -48 14 -13 15 59 vvcurveto
        return
      </CharString>
      <CharString index="28">
        -153 -14 49 427 48 39 callsubr
        hintmask 11100100
        241 35 rmoveto
        -42 -53 25 61 hvcurveto
        33 12 15 8 vvcurveto
        9 -11 3 -10 -49 -34 -33 -45 -77 75 -48 99 120 78 59 91 81 -83 36 -73 30 vhcurveto
        -61 25 -56 26 55 vvcurveto
        42 32 31 56 vhcurveto
        hintmask 11011000
        37 45 -20 -53 hvcurveto
        -31 -15 -14 -11 vvcurveto
        -8 6 -5 15 49 35 37 50 64 -72 39 -93 -104 -78 -54 -81 -96 87 -38 73 -30 vhcurveto
        hintmask 11100100
        56 -24 53 -24 -47 vvcurveto
        -48 -39 -33 -55 vhcurveto
        endchar
      </CharString>
      <CharString index="29">
        2 2 2 3 4 vvcurveto
        13 -15 16 -11 -5 -2 -2 -2 -2 vhcurveto
        return
      </CharString>
      <CharString index="30">
        rmoveto
        32 15 26 27 29 15 -26 -32 -32 -15 -26 -29 -27 -15 26 32 vhcurveto
        -70 hmoveto
        -60 38 -46 74 77 38 46 60 60 -38 47 -77 -74 -38 -47 -60 vhcurveto
        endchar
      </CharString>
      <CharString index="31">
        -50 -8 -17 -34 -8 vhcurveto
        -21 -5 11 -31 rlineto
        175 hlineto
        12 15 -12 16 rlineto
        -24 return
      </CharString>
      <CharString index="32">
        73 49 22 13 vvcurveto
        5 -5 6 -14 -83 -44 -59 -62 -70 return
      </CharString>
      <CharString index="33">
        106 -59 52 -108 -88 -52 -32 -39 -55 vhcurveto
        199 vlineto
        62 6 14 28 vhcurveto
        45 -99 callsubr
        -259 -71 callsubr
        45 hlineto
        28 6 -14 -62 hvcurveto
        -384 vlineto
        -81 -12 -42 -33 -91 callsubr
        15 -14 16 62 vvcurveto
        return
      </CharString>
      <CharString index="34">
        -343 -278 43 745 -20 234 -20 hstem
        -111 89 125 91 vstem
        87 -60 callgsubr
        16 -788 rmoveto
        -96 callsubr
        123 58 21 callgsubr
        531 vlineto
        -101 callgsubr
        endchar
      </CharString>
      <CharString index="35">
        190 70 88 122 112 -93 97 -153 -49 -48 -9 -26 -12 4 -10 10 hvcurveto
        11 14 7 41 hhcurveto
        96 63 -68 -86 -95 -54 -68 -96 return
      </CharString>
      <CharString index="36">
        vlineto
        -83 callsubr
        -219 -78 callsubr
        -49 callgsubr
        -12 -14 -52 vhcurveto
        return
      </CharString>
      <CharString index="37">
        -66 callsubr
        34 -8 32 63 vvcurveto
        return
      </CharString>
      <CharString index="38">
        226 630 rmoveto
        18 8 28 68 112 58 -81 -104 -107 -57 -71 -102 vhcurveto
        -30 -11 7 -8 hhcurveto
        -11 -5 -12 -12 -24 43 -11 45 166 74 108 125 130 -84 108 -208 -94 -104 -24 -20 -51 33 callsubr
        -494 vlineto
        -61 -14 -19 -50 29 callsubr
        -13 18 rlineto
        -33 44 -12 41 82 vvcurveto
        endchar
      </CharString>
      <CharString index="39">
        571 rmoveto
        -11 19 -20 31 -76 callsubr
        23 -33 34 -60 rlinecurve
        return
      </CharString>
      <CharString index="40">
        11 -31 rlineto
        257 hlineto
        169 62 62 86 79 -69 68 -141 -9 callgsubr
        hvcurveto
        12 10 9 45 hhcurveto
        74 48 -43 -54 -61 -44 -43 -68 -48 -65 5 132 hvcurveto
        return
      </CharString>
      <CharString index="41">
        -165 -14 52 680 -20 hstem
        -20 97 195 99 vstem
        272 175 rmoveto
        -110 -49 -27 -54 -59 -33 42 -21 callgsubr
        59 -73 123 123 86 69 181 vhcurveto
        281 vlineto
        -83 callsubr
        -219 -78 callsubr
        endchar
      </CharString>
      <CharString index="42">
        -39 callgsubr
        46 return
      </CharString>
      <CharString index="43">
        -71 callgsubr
        -169 -37 callgsubr
        return
      </CharString>
      <CharString index="44">
        -21 37 -63 68 -53 56 53 56 63 67 21 38 -30 38 -30 6 -26 2 rrcurveto
        -84 -136 -27 -47 -24 vvcurveto
        -26 31 -51 80 -130 vhcurveto
        26 2 30 5 30 39 rrcurveto
        return
      </CharString>
      <CharString index="45">
        -78 callsubr
        -49 callgsubr
        -14 -16 -50 -15 vhcurveto
        return
      </CharString>
      <CharString index="46">
        77 12 -53 -29 -52 -37 -25 -38 -34 -32 21 36 20 8 12 3 7 hvcurveto
        3 1 4 8 1 hhcurveto
        14 -6 0 -17 -41 -33 -28 -41 -68 73 -34 74 vhcurveto
        endchar
      </CharString>
      <CharString index="47">
        658 -104 callsubr
        return
      </CharString>
      <CharString index="48">
        584 rmoveto
        12 37 17 32 26 31 15 18 rcurveline
        -56 callgsubr
        -190 -93 callsubr
        30 -8 14 -23 1 -36 rlinecurve
        -24 -7 -31 -12 -38 vhcurveto
        -140 -435 -163 502 rlineto
        -7 21 -4 15 -76 callsubr
        25 -23 22 -66 rlinecurve
        return
      </CharString>
      <CharString index="49">
        rmoveto
        145 118 118 145 145 118 -118 -145 -145 -118 -118 -145 -145 -118 118 145 vhcurveto
        -26 hmoveto
        -159 130 -130 159 159 130 130 159 159 -130 130 -159 -159 -130 -130 -159 vhcurveto
        endchar
      </CharString>
      <CharString index="50">
        -82 -15 -41 -32 -91 callsubr
        13 -16 19 61 vvcurveto
        return
      </CharString>
      <CharString index="51">
        -13 16 rlineto
        return
      </CharString>
      <CharString index="52">
        -62 -14 -16 -50 -15 1 callgsubr
        -13 callgsubr
        return
      </CharString>
      <CharString index="53">
        12 vhcurveto
        12 18 -11 13 rlineto
        5 -68 return
      </CharString>
      <CharString index="54">
        -43 callsubr
        -219 -93 callsubr
        return
      </CharString>
      <CharString index="55">
        204 160 rmoveto
        162 59 110 86 57 29 -34 -68 vhcurveto
        -238 vlineto
        -75 22 -31 55 34 43 24 39 35 vhcurveto
        -19 26 rlineto
        -14 -18 -17 -6 callsubr
        -41 55 -93 14 callsubr
        107 vlineto
        return
      </CharString>
      <CharString index="56">
        2 2 1 3 4 vvcurveto
        13 -14 15 -11 -5 -3 -2 -1 -1 vhcurveto
        return
      </CharString>
      <CharString index="57">
        hlineto
        -52 -12 14 62 hvcurveto
        return
      </CharString>
      <CharString index="58">
        -25 callsubr
        -62 return
      </CharString>
      <CharString index="59">
        hmoveto
        300 718 rlineto
        -72 hlineto
        -299 -718 rlineto
        return
      </CharString>
      <CharString index="60">
        hvcurveto
        -18 13 -16 -13 rlineto
        -178 vlineto
        34 -12 return
      </CharString>
      <CharString index="61">
        -78 callsubr
        -365 vlineto
        return
      </CharString>
      <CharString index="62">
        rmoveto
        -101 callgsubr
        -310 vlineto
        -99 callgsubr
        endchar
      </CharString>
      <CharString index="63">
        hvcurveto
        6 -15 callgsubr
        return
      </CharString>
      <CharString index="64">
        -35 callgsubr
        -20 callgsubr
        endchar
      </CharString>
      <CharString index="65">
        -76 callgsubr
        34 -8 32 63 vvcurveto
        return
      </CharString>
      <CharString index="66">
        30 callgsubr
        400 hlineto
        21 13 -4 -10 8 hvcurveto
        8 -11 20 11 rlineto
        171 vlineto
        -34 12 -6 -23 rlineto
        -71 -19 -19 -18 -71 hhcurveto
        -87 -50 callgsubr
        return
      </CharString>
      <CharString index="67">
        -56 callgsubr
        -190 -93 callsubr
        rlineto
        return
      </CharString>
      <CharString index="68">
        -60 callsubr
        rlineto
        return
      </CharString>
      <CharString index="69">
        -34 -41 -42 -16 -49 hhcurveto
        -95 -59 78 124 121 51 82 76 57 37 -34 -53 hvcurveto
        -55 callsubr
        57 41 40 58 79 -73 55 -103 -147 -95 -103 -160 return
      </CharString>
      <CharString index="70">
        -50 callgsubr
        384 -27 callgsubr
        return
      </CharString>
      <CharString index="71">
        -45 -15 16 -11 hhcurveto
        -11 -4 -13 -12 -7 3 -7 6 -4 hvcurveto
        -18 27 35 -9 38 hhcurveto
        127 93 120 162 142 -88 100 -125 -53 -49 -22 -41 -42 hvcurveto
        endchar
      </CharString>
      <CharString index="72">
        12 -34 rlineto
        279 hlineto
        -72 callgsubr
        return
      </CharString>
      <CharString index="73">
        108 -78 89 -193 -93 -104 -24 -20 -51 vhcurveto
        -45 callsubr
        -494 vlineto
        -62 -14 -16 -50 -15 1 callgsubr
        279 hlineto
        return
      </CharString>
      <CharString index="74">
        hvcurveto
        -16 12 -15 -12 rlineto
        -164 vlineto
        31 -11 6 21 rlineto
        return
      </CharString>
      <CharString index="75">
        62 12 14 52 vhcurveto
        return
      </CharString>
      <CharString index="76">
        20 -18 rlineto
        12 20 19 5 16 hhcurveto
        45 22 -37 -37 -38 -22 -38 -41 hvcurveto
        endchar
      </CharString>
      <CharString index="77">
        -13 -44 callsubr
        return
      </CharString>
      <CharString index="78">
        51 -104 callsubr
        return
      </CharString>
      <CharString index="79">
        -21 718 -20 return
      </CharString>
      <CharString index="80">
        vlineto
        -83 callsubr
        -219 -62 callgsubr
        return
      </CharString>
      <CharString index="81">
        -30 -14 77 392 55 return
      </CharString>
      <CharString index="82">
        -46 callsubr
        hstem
        return
      </CharString>
      <CharString index="83">
        18 -40 callgsubr
        return
      </CharString>
      <CharString index="84">
        30 -13 callsubr
        return
      </CharString>
      <CharString index="85">
        vlineto
        75 11 38 30 1 callsubr
        -254 vlineto
        -57 return
      </CharString>
      <CharString index="86">
        51 vhcurveto
        -75 callgsubr
        return
      </CharString>
      <CharString index="87">
        -39 -72 6 125 hvcurveto
        return
      </CharString>
      <CharString index="88">
        -21 131 -20 return
      </CharString>
      <CharString index="89">
        vlineto
        19 -13 13 -19 return
      </CharString>
      <CharString index="90">
        522 395 rmoveto
        -423 171 rlineto
        -76 vlineto
        338 -133 -338 -133 rlineto
        -76 vlineto
        423 171 rlineto
        return
      </CharString>
      <CharString index="91">
        29 callgsubr
        242 205 -36 callsubr
        -228 hlineto
        endchar
      </CharString>
      <CharString index="92">
        -23 34 12 rlineto
        return
      </CharString>
      <CharString index="93">
        99 319 rmoveto
        423 -171 rlineto
        76 vlineto
        -338 133 338 133 rlineto
        76 vlineto
        -423 -171 rlineto
        return
      </CharString>
      <CharString index="94">
        245 hlineto
        11 32 -21 6 return
      </CharString>
      <CharString index="95">
        rmoveto
        70 54 46 94 hvcurveto
        -55 hlineto
        -40 -31 -24 -38 -39 -31 24 40 vhcurveto
        -55 hlineto
        -94 54 -46 71 vhcurveto
        endchar
      </CharString>
      <CharString index="96">
        63 240 45 hstem
        -105 89 125 90 return
      </CharString>
      <CharString index="97">
        -21 39 54 35 -20 24 -20 hstemhm
        return
      </CharString>
      <CharString index="98">
        -45 -51 -10 -25 -10 4 -10 9 return
      </CharString>
      <CharString index="99">
        vhcurveto
        -21 -6 return
      </CharString>
      <CharString index="100">
        rmoveto
        447 194 -320 vlineto
        -141 -35 -97 -91 -31 -25 15 27 -18 vhcurveto
        4 21 2 24 24 vvcurveto
        return
      </CharString>
      <CharString index="101">
        99 319 rmoveto
        174 -173 75 173 174 76 -174 174 -75 -174 -174 hlineto
        return
      </CharString>
      <CharString index="102">
        -12 -13 10 -16 rlineto
        30 -48 14 -63 -62 vvcurveto
        -123 return
      </CharString>
      <CharString index="103">
        -20 -10 callsubr
        return
      </CharString>
      <CharString index="104">
        45 105 251 89 return
      </CharString>
      <CharString index="105">
        -21 191 -20 hstem
        return
      </CharString>
      <CharString index="106">
        -21 callsubr
        88 return
      </CharString>
      <CharString index="107">
        99 -14 59 630 57 return
      </CharString>
      <CharString index="108">
        vhcurveto
        -87 callsubr
        return
      </CharString>
      <CharString index="109">
        -14 -42 callsubr
        return
      </CharString>
      <CharString index="110">
        446 rmoveto
        26 -38 39 -23 -25 -38 -39 -26 -26 38 -40 25 24 37 40 26 vhcurveto
        return
      </CharString>
      <CharString index="111">
        262 rmoveto
        hintmask 01100000
        20 15 6 31 24 vvcurveto
        return
      </CharString>
      <CharString index="112">
        rmoveto
        98 62 43 80 50 -29 45 -59 20 hvcurveto
        return
      </CharString>
      <CharString index="113">
        -146 -78 -114 -171 -15 return
      </CharString>
      <CharString index="114">
        -15 -57 vvcurveto
        return
      </CharString>
      <CharString index="115">
        vlineto
        77 11 35 30 42 -40 callsubr
        return
      </CharString>
      <CharString index="116">
        50 355 46 hstemhm
        39 91 -79 79 118 86 -74 86 hintmask 11100100
        186 return
      </CharString>
      <CharString index="117">
        -57 -13 -15 -46 -13 41 callgsubr
        29 -19 6 return
      </CharString>
      <CharString index="118">
        257 70 -54 -21 80 -20 hstemhm
        hintmask 10000000
        return
      </CharString>
      <CharString index="119">
        13 callsubr
        endchar
      </CharString>
      <CharString index="120">
        -91 -21 886 -20 hstem
        return
      </CharString>
      <CharString index="121">
        40 58 65 -62 46 -87 return
      </CharString>
      <CharString index="122">
        10 29 -19 6 return
      </CharString>
      <CharString index="123">
        -16 hhcurveto
        -12 -11 4 9 -13 hvcurveto
        -16 -27 rlineto
        -26 27 29 -11 29 hhcurveto
        return
      </CharString>
      <CharString index="124">
        -219 -104 -168 -206 return
      </CharString>
      <CharString index="125">
        vhcurveto
        12 17 return
      </CharString>
      <CharString index="126">
        99 60 -64 -75 -87 -54 -63 -96 -20 callgsubr
        endchar
      </CharString>
      <CharString index="127">
        384 rmoveto
        20 10 4 23 57 vvcurveto
        return
      </CharString>
      <CharString index="128">
        91 134 vhcurveto
        return
      </CharString>
      <CharString index="129">
        68 380 63 13 -20 247 45 hstemhm
        -105 89 125 90 return
      </CharString>
      <CharString index="130">
        52 445 -20 hstem
        115 91 218 87 217 91 vstem
        return
      </CharString>
      <CharString index="131">
        -14 -62 hvcurveto
        -452 -4 callsubr
        return
      </CharString>
      <CharString index="132">
        rrcurveto
        22 -13 -20 11 -23 hhcurveto
        -24 -19 -11 -22 -13 hvcurveto
        return
      </CharString>
      <CharString index="133">
        -93 callsubr
        rlineto
        39 -10 return
      </CharString>
      <CharString index="134">
        -16 rlineto
        -21 callsubr
        return
      </CharString>
      <CharString index="135">
        0 48 201 46 202 -20 hstem
        115 90 return
      </CharString>
      <CharString index="136">
        vlineto
        125 -34 57 -100 14 callsubr
        return
      </CharString>
      <CharString index="137">
        vlineto
        -59 -13 -15 -48 2 callgsubr
        -32 rlineto
        return
      </CharString>
      <CharString index="138">
        -21 440 -20 hstem
        129 79 vstem
        208 return
      </CharString>
      <CharString index="139">
        34 35 39 35 81 hhcurveto
        78 39 -32 -79 hvcurveto
        return
      </CharString>
      <CharString index="140">
        hlineto
        -62 -224 rlineto
        71 hlineto
        62 224 rlineto
        return
      </CharString>
      <CharString index="141">
        -60 -40 -14 -32 hhcurveto
        -14 -12 2 9 -12 hvcurveto
        return
      </CharString>
      <CharString index="142">
        -21 418 -20 hstemhm
        hintmask 01100000
        return
      </CharString>
      <CharString index="143">
        -144 21 -21 661 57 return
      </CharString>
      <CharString index="144">
        rlineto
        -20 -10 -4 -23 -57 vvcurveto
        return
      </CharString>
      <CharString index="145">
        -20 -16 callsubr
        return
      </CharString>
      <CharString index="146">
        56 hstemhm
        132 99 229 99 -67 104 return
      </CharString>
      <CharString index="147">
        142 276 33 -2 36 -3 37 hvcurveto
        return
      </CharString>
      <CharString index="148">
        -44 callsubr
        225 hlineto
        10 return
      </CharString>
      <CharString index="149">
        -13 vhcurveto
        -23 -6 return
      </CharString>
      <CharString index="150">
        -21 186 -20 return
      </CharString>
</ttFont>
